<svg width="337" height="580" viewBox="0 0 337 580" fill="none" xmlns="http://www.w3.org/2000/svg">
<path fill-rule="evenodd" clip-rule="evenodd" d="M281.703 -43.2837C273.56 -51.4259 273.56 -64.627 281.703 -72.7692L301.359 -92.4261C309.502 -100.568 322.703 -100.568 330.845 -92.4261C338.987 -84.2839 338.987 -71.0828 330.845 -62.9406L311.188 -43.2837C303.046 -35.1415 289.845 -35.1415 281.703 -43.2837ZM323.473 -70.312C327.544 -74.3831 327.544 -80.9836 323.473 -85.0547C319.402 -89.1258 312.802 -89.1258 308.731 -85.0547L289.074 -65.3978C285.003 -61.3267 285.003 -54.7262 289.074 -50.6551C293.145 -46.584 299.745 -46.584 303.816 -50.6551L323.473 -70.312Z" fill="url(#paint0_linear_45_302)"/>
<path fill-rule="evenodd" clip-rule="evenodd" d="M256.103 -7.94696C247.961 -16.0891 247.961 -29.2902 256.103 -37.4324L275.76 -57.0893C283.902 -65.2315 297.103 -65.2315 305.245 -57.0893C313.388 -48.9471 313.388 -35.746 305.245 -27.6039L285.589 -7.94696C277.446 0.195226 264.245 0.195225 256.103 -7.94696ZM297.874 -34.9752C301.945 -39.0463 301.945 -45.6468 297.874 -49.7179C293.803 -53.789 287.202 -53.789 283.131 -49.7179L263.474 -30.061C259.403 -25.9899 259.403 -19.3894 263.474 -15.3183C267.545 -11.2473 274.146 -11.2473 278.217 -15.3183L297.874 -34.9752Z" fill="url(#paint1_linear_45_302)"/>
<path fill-rule="evenodd" clip-rule="evenodd" d="M281.703 47.8879C273.56 39.7458 273.56 26.5447 281.703 18.4025L301.359 -1.25441C309.502 -9.39659 322.703 -9.39659 330.845 -1.25441C338.987 6.88777 338.987 20.0889 330.845 28.231L311.188 47.888C303.046 56.0301 289.845 56.0301 281.703 47.8879ZM323.473 20.8597C327.544 16.7886 327.544 10.1881 323.473 6.11697C319.402 2.0459 312.802 2.0459 308.731 6.11697L289.074 25.7739C285.003 29.845 285.003 36.4455 289.074 40.5166C293.145 44.5876 299.745 44.5876 303.816 40.5166L323.473 20.8597Z" fill="url(#paint2_linear_45_302)"/>
<path fill-rule="evenodd" clip-rule="evenodd" d="M256.103 83.2247C247.961 75.0825 247.961 61.8814 256.103 53.7393L275.76 34.0823C283.902 25.9402 297.103 25.9402 305.245 34.0824C313.388 42.2245 313.388 55.4256 305.245 63.5678L285.589 83.2247C277.446 91.3669 264.245 91.3669 256.103 83.2247ZM297.874 56.1964C301.945 52.1253 301.945 45.5248 297.874 41.4537C293.803 37.3827 287.202 37.3827 283.131 41.4537L263.474 61.1106C259.403 65.1817 259.403 71.7822 263.474 75.8533C267.545 79.9244 274.146 79.9244 278.217 75.8533L297.874 56.1964Z" fill="url(#paint3_linear_45_302)"/>
<path fill-rule="evenodd" clip-rule="evenodd" d="M281.703 139.06C273.56 130.917 273.56 117.716 281.703 109.574L301.359 89.9173C309.502 81.7751 322.703 81.7751 330.845 89.9173C338.987 98.0594 338.987 111.261 330.845 119.403L311.188 139.06C303.046 147.202 289.845 147.202 281.703 139.06ZM323.473 112.031C327.544 107.96 327.544 101.36 323.473 97.2887C319.402 93.2176 312.802 93.2176 308.731 97.2887L289.074 116.946C285.003 121.017 285.003 127.617 289.074 131.688C293.145 135.759 299.745 135.759 303.816 131.688L323.473 112.031Z" fill="url(#paint4_linear_45_302)"/>
<path fill-rule="evenodd" clip-rule="evenodd" d="M256.103 174.396C247.961 166.254 247.961 153.053 256.103 144.911L275.76 125.254C283.902 117.112 297.103 117.112 305.245 125.254C313.388 133.396 313.388 146.597 305.245 154.739L285.589 174.396C277.446 182.539 264.245 182.539 256.103 174.396ZM297.874 147.368C301.945 143.297 301.945 136.696 297.874 132.625C293.803 128.554 287.202 128.554 283.131 132.625L263.474 152.282C259.403 156.353 259.403 162.954 263.474 167.025C267.545 171.096 274.146 171.096 278.217 167.025L297.874 147.368Z" fill="url(#paint5_linear_45_302)"/>
<path fill-rule="evenodd" clip-rule="evenodd" d="M281.702 230.231C273.56 222.089 273.56 208.888 281.702 200.746L301.359 181.089C309.502 172.947 322.703 172.947 330.845 181.089C338.987 189.231 338.987 202.432 330.845 210.574L311.188 230.231C303.046 238.373 289.845 238.373 281.702 230.231ZM323.473 203.203C327.544 199.132 327.544 192.531 323.473 188.46C319.402 184.389 312.802 184.389 308.731 188.46L289.074 208.117C285.003 212.188 285.003 218.789 289.074 222.86C293.145 226.931 299.745 226.931 303.816 222.86L323.473 203.203Z" fill="url(#paint6_linear_45_302)"/>
<path fill-rule="evenodd" clip-rule="evenodd" d="M256.103 265.568C247.961 257.426 247.961 244.225 256.103 236.083L275.76 216.426C283.902 208.284 297.103 208.284 305.245 216.426C313.388 224.568 313.388 237.769 305.245 245.911L285.589 265.568C277.446 273.71 264.245 273.71 256.103 265.568ZM297.874 238.54C301.945 234.469 301.945 227.868 297.874 223.797C293.803 219.726 287.202 219.726 283.131 223.797L263.474 243.454C259.403 247.525 259.403 254.126 263.474 258.197C267.545 262.268 274.146 262.268 278.217 258.197L297.874 238.54Z" fill="url(#paint7_linear_45_302)"/>
<path fill-rule="evenodd" clip-rule="evenodd" d="M281.702 321.403C273.56 313.261 273.56 300.06 281.702 291.918L301.359 272.261C309.502 264.118 322.703 264.118 330.845 272.261C338.987 280.403 338.987 293.604 330.845 301.746L311.188 321.403C303.046 329.545 289.845 329.545 281.702 321.403ZM323.473 294.375C327.544 290.304 327.544 283.703 323.473 279.632C319.402 275.561 312.802 275.561 308.731 279.632L289.074 299.289C285.003 303.36 285.003 309.961 289.074 314.032C293.145 318.103 299.745 318.103 303.816 314.032L323.473 294.375Z" fill="url(#paint8_linear_45_302)"/>
<path fill-rule="evenodd" clip-rule="evenodd" d="M256.103 356.74C247.961 348.598 247.961 335.396 256.103 327.254L275.76 307.597C283.902 299.455 297.103 299.455 305.245 307.597C313.388 315.74 313.388 328.941 305.245 337.083L285.589 356.74C277.446 364.882 264.245 364.882 256.103 356.74ZM297.874 329.711C301.945 325.64 301.945 319.04 297.874 314.969C293.803 310.898 287.202 310.898 283.131 314.969L263.474 334.626C259.403 338.697 259.403 345.297 263.474 349.368C267.545 353.439 274.146 353.439 278.217 349.368L297.874 329.711Z" fill="url(#paint9_linear_45_302)"/>
<path fill-rule="evenodd" clip-rule="evenodd" d="M281.702 412.575C273.56 404.432 273.56 391.231 281.702 383.089L301.359 363.432C309.502 355.29 322.703 355.29 330.845 363.432C338.987 371.574 338.987 384.776 330.845 392.918L311.188 412.575C303.046 420.717 289.845 420.717 281.702 412.575ZM323.473 385.546C327.544 381.475 327.544 374.875 323.473 370.804C319.402 366.733 312.802 366.733 308.731 370.804L289.074 390.461C285.003 394.532 285.003 401.132 289.074 405.203C293.145 409.274 299.745 409.274 303.816 405.203L323.473 385.546Z" fill="url(#paint10_linear_45_302)"/>
<path fill-rule="evenodd" clip-rule="evenodd" d="M256.103 447.911C247.961 439.769 247.961 426.568 256.103 418.426L275.76 398.769C283.902 390.627 297.103 390.627 305.245 398.769C313.388 406.911 313.388 420.112 305.245 428.255L285.589 447.911C277.446 456.054 264.245 456.054 256.103 447.911ZM297.874 420.883C301.945 416.812 301.945 410.212 297.874 406.14C293.803 402.069 287.202 402.069 283.131 406.14L263.474 425.797C259.403 429.868 259.403 436.469 263.474 440.54C267.545 444.611 274.146 444.611 278.217 440.54L297.874 420.883Z" fill="url(#paint11_linear_45_302)"/>
<path fill-rule="evenodd" clip-rule="evenodd" d="M281.702 503.746C273.56 495.604 273.56 482.403 281.702 474.261L301.359 454.604C309.502 446.462 322.703 446.462 330.845 454.604C338.987 462.746 338.987 475.947 330.845 484.089L311.188 503.746C303.046 511.888 289.845 511.888 281.702 503.746ZM323.473 476.718C327.544 472.647 327.544 466.046 323.473 461.975C319.402 457.904 312.802 457.904 308.731 461.975L289.074 481.632C285.003 485.703 285.003 492.304 289.074 496.375C293.145 500.446 299.745 500.446 303.816 496.375L323.473 476.718Z" fill="url(#paint12_linear_45_302)"/>
<path fill-rule="evenodd" clip-rule="evenodd" d="M256.103 539.083C247.961 530.941 247.961 517.74 256.103 509.598L275.76 489.941C283.902 481.799 297.103 481.799 305.245 489.941C313.388 498.083 313.388 511.284 305.245 519.426L285.589 539.083C277.446 547.225 264.245 547.225 256.103 539.083ZM297.874 512.055C301.945 507.984 301.945 501.383 297.874 497.312C293.803 493.241 287.202 493.241 283.131 497.312L263.474 516.969C259.403 521.04 259.403 527.641 263.474 531.712C267.545 535.783 274.146 535.783 278.217 531.712L297.874 512.055Z" fill="url(#paint13_linear_45_302)"/>
<path fill-rule="evenodd" clip-rule="evenodd" d="M281.702 594.918C273.56 586.776 273.56 573.575 281.702 565.432L301.359 545.776C309.502 537.633 322.703 537.633 330.845 545.776C338.987 553.918 338.987 567.119 330.845 575.261L311.188 594.918C303.046 603.06 289.845 603.06 281.702 594.918ZM323.473 567.89C327.544 563.819 327.544 557.218 323.473 553.147C319.402 549.076 312.802 549.076 308.731 553.147L289.074 572.804C285.003 576.875 285.003 583.476 289.074 587.547C293.145 591.618 299.745 591.618 303.816 587.547L323.473 567.89Z" fill="url(#paint14_linear_45_302)"/>
<path fill-rule="evenodd" clip-rule="evenodd" d="M256.103 630.255C247.961 622.113 247.961 608.911 256.103 600.769L275.76 581.112C283.902 572.97 297.103 572.97 305.245 581.112C313.388 589.255 313.388 602.456 305.245 610.598L285.589 630.255C277.446 638.397 264.245 638.397 256.103 630.255ZM297.874 603.226C301.945 599.155 301.945 592.555 297.874 588.484C293.803 584.413 287.202 584.413 283.131 588.484L263.474 608.141C259.403 612.212 259.403 618.812 263.474 622.883C267.545 626.954 274.146 626.954 278.217 622.883L297.874 603.226Z" fill="url(#paint15_linear_45_302)"/>
<path fill-rule="evenodd" clip-rule="evenodd" d="M281.702 686.09C273.56 677.948 273.56 664.746 281.702 656.604L301.359 636.947C309.502 628.805 322.703 628.805 330.845 636.947C338.987 645.089 338.987 658.291 330.845 666.433L311.188 686.09C303.046 694.232 289.845 694.232 281.702 686.09ZM323.473 659.061C327.544 654.99 327.544 648.39 323.473 644.319C319.402 640.248 312.802 640.248 308.731 644.319L289.074 663.976C285.003 668.047 285.003 674.647 289.074 678.718C293.145 682.789 299.745 682.789 303.816 678.718L323.473 659.061Z" fill="url(#paint16_linear_45_302)"/>
<path fill-rule="evenodd" clip-rule="evenodd" d="M256.103 721.426C247.961 713.284 247.961 700.083 256.103 691.941L275.76 672.284C283.902 664.142 297.103 664.142 305.245 672.284C313.388 680.426 313.388 693.627 305.245 701.769L285.589 721.426C277.446 729.569 264.245 729.569 256.103 721.426ZM297.874 694.398C301.945 690.327 301.945 683.726 297.874 679.655C293.803 675.584 287.202 675.584 283.131 679.655L263.474 699.312C259.403 703.383 259.403 709.984 263.474 714.055C267.545 718.126 274.146 718.126 278.217 714.055L297.874 694.398Z" fill="url(#paint17_linear_45_302)"/>
<path fill-rule="evenodd" clip-rule="evenodd" d="M186.052 -43.2837C177.91 -51.4259 177.91 -64.627 186.052 -72.7692L205.709 -92.4261C213.851 -100.568 227.052 -100.568 235.194 -92.4261C243.337 -84.2839 243.337 -71.0828 235.194 -62.9406L215.537 -43.2837C207.395 -35.1415 194.194 -35.1415 186.052 -43.2837ZM227.823 -70.312C231.894 -74.3831 231.894 -80.9836 227.823 -85.0547C223.752 -89.1258 217.151 -89.1258 213.08 -85.0547L193.423 -65.3978C189.352 -61.3267 189.352 -54.7262 193.423 -50.6551C197.494 -46.584 204.095 -46.584 208.166 -50.6551L227.823 -70.312Z" fill="url(#paint18_linear_45_302)"/>
<path fill-rule="evenodd" clip-rule="evenodd" d="M160.453 -7.94696C152.31 -16.0891 152.31 -29.2902 160.453 -37.4324L180.109 -57.0893C188.252 -65.2315 201.453 -65.2315 209.595 -57.0893C217.737 -48.9471 217.737 -35.746 209.595 -27.6039L189.938 -7.94696C181.796 0.195222 168.595 0.195221 160.453 -7.94696ZM202.223 -34.9752C206.295 -39.0463 206.295 -45.6469 202.223 -49.7179C198.152 -53.789 191.552 -53.789 187.481 -49.7179L167.824 -30.061C163.753 -25.99 163.753 -19.3894 167.824 -15.3183C171.895 -11.2473 178.495 -11.2473 182.567 -15.3183L202.223 -34.9752Z" fill="url(#paint19_linear_45_302)"/>
<path fill-rule="evenodd" clip-rule="evenodd" d="M186.052 47.8879C177.91 39.7458 177.91 26.5447 186.052 18.4025L205.709 -1.25442C213.851 -9.3966 227.052 -9.3966 235.194 -1.25441C243.337 6.88777 243.337 20.0889 235.194 28.231L215.537 47.8879C207.395 56.0301 194.194 56.0301 186.052 47.8879ZM227.823 20.8597C231.894 16.7886 231.894 10.1881 227.823 6.11697C223.752 2.04589 217.151 2.04589 213.08 6.11697L193.423 25.7739C189.352 29.845 189.352 36.4455 193.423 40.5165C197.494 44.5876 204.095 44.5876 208.166 40.5166L227.823 20.8597Z" fill="url(#paint20_linear_45_302)"/>
<path fill-rule="evenodd" clip-rule="evenodd" d="M160.453 83.2247C152.31 75.0825 152.31 61.8814 160.453 53.7393L180.109 34.0823C188.252 25.9402 201.453 25.9402 209.595 34.0823C217.737 42.2245 217.737 55.4256 209.595 63.5678L189.938 83.2247C181.796 91.3669 168.595 91.3669 160.453 83.2247ZM202.223 56.1964C206.295 52.1253 206.295 45.5248 202.223 41.4537C198.152 37.3827 191.552 37.3827 187.481 41.4537L167.824 61.1106C163.753 65.1817 163.753 71.7822 167.824 75.8533C171.895 79.9244 178.495 79.9244 182.567 75.8533L202.223 56.1964Z" fill="url(#paint21_linear_45_302)"/>
<path fill-rule="evenodd" clip-rule="evenodd" d="M186.052 139.06C177.91 130.917 177.91 117.716 186.052 109.574L205.709 89.9173C213.851 81.7751 227.052 81.7751 235.194 89.9173C243.337 98.0594 243.337 111.261 235.194 119.403L215.537 139.06C207.395 147.202 194.194 147.202 186.052 139.06ZM227.823 112.031C231.894 107.96 231.894 101.36 227.823 97.2887C223.752 93.2176 217.151 93.2176 213.08 97.2887L193.423 116.946C189.352 121.017 189.352 127.617 193.423 131.688C197.494 135.759 204.095 135.759 208.166 131.688L227.823 112.031Z" fill="url(#paint22_linear_45_302)"/>
<path fill-rule="evenodd" clip-rule="evenodd" d="M160.453 174.396C152.31 166.254 152.31 153.053 160.453 144.911L180.109 125.254C188.252 117.112 201.453 117.112 209.595 125.254C217.737 133.396 217.737 146.597 209.595 154.739L189.938 174.396C181.796 182.539 168.595 182.539 160.453 174.396ZM202.223 147.368C206.295 143.297 206.295 136.696 202.223 132.625C198.152 128.554 191.552 128.554 187.481 132.625L167.824 152.282C163.753 156.353 163.753 162.954 167.824 167.025C171.895 171.096 178.495 171.096 182.567 167.025L202.223 147.368Z" fill="url(#paint23_linear_45_302)"/>
<path fill-rule="evenodd" clip-rule="evenodd" d="M186.052 230.231C177.91 222.089 177.91 208.888 186.052 200.746L205.709 181.089C213.851 172.947 227.052 172.947 235.194 181.089C243.336 189.231 243.336 202.432 235.194 210.574L215.537 230.231C207.395 238.373 194.194 238.373 186.052 230.231ZM227.823 203.203C231.894 199.132 231.894 192.531 227.823 188.46C223.752 184.389 217.151 184.389 213.08 188.46L193.423 208.117C189.352 212.188 189.352 218.789 193.423 222.86C197.494 226.931 204.095 226.931 208.166 222.86L227.823 203.203Z" fill="url(#paint24_linear_45_302)"/>
<path fill-rule="evenodd" clip-rule="evenodd" d="M160.453 265.568C152.31 257.426 152.31 244.225 160.453 236.083L180.109 216.426C188.252 208.284 201.453 208.284 209.595 216.426C217.737 224.568 217.737 237.769 209.595 245.911L189.938 265.568C181.796 273.71 168.595 273.71 160.453 265.568ZM202.223 238.54C206.295 234.469 206.295 227.868 202.223 223.797C198.152 219.726 191.552 219.726 187.481 223.797L167.824 243.454C163.753 247.525 163.753 254.126 167.824 258.197C171.895 262.268 178.495 262.268 182.567 258.197L202.223 238.54Z" fill="url(#paint25_linear_45_302)"/>
<path fill-rule="evenodd" clip-rule="evenodd" d="M186.052 321.403C177.91 313.261 177.91 300.06 186.052 291.918L205.709 272.261C213.851 264.118 227.052 264.118 235.194 272.261C243.336 280.403 243.336 293.604 235.194 301.746L215.537 321.403C207.395 329.545 194.194 329.545 186.052 321.403ZM227.823 294.375C231.894 290.304 231.894 283.703 227.823 279.632C223.752 275.561 217.151 275.561 213.08 279.632L193.423 299.289C189.352 303.36 189.352 309.961 193.423 314.032C197.494 318.103 204.095 318.103 208.166 314.032L227.823 294.375Z" fill="url(#paint26_linear_45_302)"/>
<path fill-rule="evenodd" clip-rule="evenodd" d="M160.453 356.74C152.31 348.598 152.31 335.396 160.453 327.254L180.109 307.597C188.252 299.455 201.453 299.455 209.595 307.597C217.737 315.74 217.737 328.941 209.595 337.083L189.938 356.74C181.796 364.882 168.595 364.882 160.453 356.74ZM202.223 329.711C206.295 325.64 206.295 319.04 202.223 314.969C198.152 310.898 191.552 310.898 187.481 314.969L167.824 334.626C163.753 338.697 163.753 345.297 167.824 349.368C171.895 353.439 178.495 353.439 182.567 349.368L202.223 329.711Z" fill="url(#paint27_linear_45_302)"/>
<path fill-rule="evenodd" clip-rule="evenodd" d="M186.052 412.575C177.91 404.432 177.91 391.231 186.052 383.089L205.709 363.432C213.851 355.29 227.052 355.29 235.194 363.432C243.336 371.574 243.336 384.776 235.194 392.918L215.537 412.575C207.395 420.717 194.194 420.717 186.052 412.575ZM227.823 385.546C231.894 381.475 231.894 374.875 227.823 370.804C223.752 366.733 217.151 366.733 213.08 370.804L193.423 390.461C189.352 394.532 189.352 401.132 193.423 405.203C197.494 409.274 204.095 409.274 208.166 405.203L227.823 385.546Z" fill="url(#paint28_linear_45_302)"/>
<path fill-rule="evenodd" clip-rule="evenodd" d="M160.453 447.911C152.31 439.769 152.31 426.568 160.453 418.426L180.109 398.769C188.252 390.627 201.453 390.627 209.595 398.769C217.737 406.911 217.737 420.112 209.595 428.255L189.938 447.911C181.796 456.054 168.595 456.054 160.453 447.911ZM202.223 420.883C206.295 416.812 206.295 410.212 202.223 406.14C198.152 402.069 191.552 402.069 187.481 406.14L167.824 425.797C163.753 429.868 163.753 436.469 167.824 440.54C171.895 444.611 178.495 444.611 182.567 440.54L202.223 420.883Z" fill="url(#paint29_linear_45_302)"/>
<path fill-rule="evenodd" clip-rule="evenodd" d="M186.052 503.746C177.91 495.604 177.91 482.403 186.052 474.261L205.709 454.604C213.851 446.462 227.052 446.462 235.194 454.604C243.336 462.746 243.336 475.947 235.194 484.089L215.537 503.746C207.395 511.888 194.194 511.888 186.052 503.746ZM227.823 476.718C231.894 472.647 231.894 466.046 227.823 461.975C223.752 457.904 217.151 457.904 213.08 461.975L193.423 481.632C189.352 485.703 189.352 492.304 193.423 496.375C197.494 500.446 204.095 500.446 208.166 496.375L227.823 476.718Z" fill="url(#paint30_linear_45_302)"/>
<path fill-rule="evenodd" clip-rule="evenodd" d="M160.453 539.083C152.31 530.941 152.31 517.74 160.453 509.598L180.109 489.941C188.252 481.799 201.453 481.799 209.595 489.941C217.737 498.083 217.737 511.284 209.595 519.426L189.938 539.083C181.796 547.225 168.595 547.225 160.453 539.083ZM202.223 512.055C206.294 507.984 206.294 501.383 202.223 497.312C198.152 493.241 191.552 493.241 187.481 497.312L167.824 516.969C163.753 521.04 163.753 527.641 167.824 531.712C171.895 535.783 178.495 535.783 182.567 531.712L202.223 512.055Z" fill="url(#paint31_linear_45_302)"/>
<path fill-rule="evenodd" clip-rule="evenodd" d="M186.052 594.918C177.91 586.776 177.91 573.575 186.052 565.432L205.709 545.776C213.851 537.633 227.052 537.633 235.194 545.776C243.336 553.918 243.336 567.119 235.194 575.261L215.537 594.918C207.395 603.06 194.194 603.06 186.052 594.918ZM227.823 567.89C231.894 563.819 231.894 557.218 227.823 553.147C223.752 549.076 217.151 549.076 213.08 553.147L193.423 572.804C189.352 576.875 189.352 583.476 193.423 587.547C197.494 591.618 204.095 591.618 208.166 587.547L227.823 567.89Z" fill="url(#paint32_linear_45_302)"/>
<path fill-rule="evenodd" clip-rule="evenodd" d="M160.453 630.255C152.31 622.113 152.31 608.911 160.453 600.769L180.109 581.112C188.252 572.97 201.453 572.97 209.595 581.112C217.737 589.255 217.737 602.456 209.595 610.598L189.938 630.255C181.796 638.397 168.595 638.397 160.453 630.255ZM202.223 603.226C206.294 599.155 206.294 592.555 202.223 588.484C198.152 584.413 191.552 584.413 187.481 588.484L167.824 608.141C163.753 612.212 163.753 618.812 167.824 622.883C171.895 626.954 178.495 626.954 182.567 622.883L202.223 603.226Z" fill="url(#paint33_linear_45_302)"/>
<path fill-rule="evenodd" clip-rule="evenodd" d="M186.052 686.09C177.91 677.948 177.91 664.746 186.052 656.604L205.709 636.947C213.851 628.805 227.052 628.805 235.194 636.947C243.336 645.089 243.336 658.291 235.194 666.433L215.537 686.09C207.395 694.232 194.194 694.232 186.052 686.09ZM227.823 659.061C231.894 654.99 231.894 648.39 227.823 644.319C223.752 640.248 217.151 640.248 213.08 644.319L193.423 663.976C189.352 668.047 189.352 674.647 193.423 678.718C197.494 682.789 204.095 682.789 208.166 678.718L227.823 659.061Z" fill="url(#paint34_linear_45_302)"/>
<path fill-rule="evenodd" clip-rule="evenodd" d="M160.453 721.426C152.31 713.284 152.31 700.083 160.453 691.941L180.109 672.284C188.252 664.142 201.453 664.142 209.595 672.284C217.737 680.426 217.737 693.627 209.595 701.769L189.938 721.426C181.796 729.569 168.595 729.569 160.453 721.426ZM202.223 694.398C206.294 690.327 206.294 683.726 202.223 679.655C198.152 675.584 191.552 675.584 187.481 679.655L167.824 699.312C163.753 703.383 163.753 709.984 167.824 714.055C171.895 718.126 178.495 718.126 182.567 714.055L202.223 694.398Z" fill="url(#paint35_linear_45_302)"/>
<path fill-rule="evenodd" clip-rule="evenodd" d="M90.4014 -43.2837C82.2593 -51.4259 82.2593 -64.627 90.4014 -72.7692L110.058 -92.4261C118.201 -100.568 131.402 -100.568 139.544 -92.4261C147.686 -84.2839 147.686 -71.0828 139.544 -62.9406L119.887 -43.2837C111.745 -35.1415 98.5436 -35.1415 90.4014 -43.2837ZM132.172 -70.312C136.243 -74.3831 136.243 -80.9836 132.172 -85.0547C128.101 -89.1258 121.501 -89.1258 117.43 -85.0547L97.7727 -65.3978C93.7017 -61.3267 93.7017 -54.7262 97.7727 -50.6551C101.844 -46.584 108.444 -46.584 112.515 -50.6551L132.172 -70.312Z" fill="url(#paint36_linear_45_302)"/>
<path fill-rule="evenodd" clip-rule="evenodd" d="M64.802 -7.94696C56.6598 -16.0891 56.6598 -29.2902 64.802 -37.4324L84.4589 -57.0893C92.6011 -65.2315 105.802 -65.2315 113.944 -57.0893C122.087 -48.9471 122.087 -35.746 113.944 -27.6039L94.2875 -7.94696C86.1453 0.195218 72.9442 0.195217 64.802 -7.94696ZM106.573 -34.9753C110.644 -39.0463 110.644 -45.6469 106.573 -49.7179C102.502 -53.789 95.9013 -53.789 91.8302 -49.7179L72.1733 -30.061C68.1022 -25.99 68.1022 -19.3894 72.1733 -15.3183C76.2444 -11.2473 82.8449 -11.2473 86.916 -15.3183L106.573 -34.9753Z" fill="url(#paint37_linear_45_302)"/>
<path fill-rule="evenodd" clip-rule="evenodd" d="M90.4014 47.8879C82.2593 39.7457 82.2593 26.5447 90.4014 18.4025L110.058 -1.25442C118.201 -9.3966 131.402 -9.3966 139.544 -1.25442C147.686 6.88776 147.686 20.0889 139.544 28.231L119.887 47.8879C111.745 56.0301 98.5436 56.0301 90.4014 47.8879ZM132.172 20.8596C136.243 16.7886 136.243 10.188 132.172 6.11696C128.101 2.04589 121.501 2.04589 117.43 6.11696L97.7727 25.7739C93.7017 29.845 93.7017 36.4455 97.7727 40.5165C101.844 44.5876 108.444 44.5876 112.515 40.5165L132.172 20.8596Z" fill="url(#paint38_linear_45_302)"/>
<path fill-rule="evenodd" clip-rule="evenodd" d="M64.802 83.2247C56.6598 75.0825 56.6598 61.8814 64.802 53.7392L84.4589 34.0823C92.6011 25.9402 105.802 25.9402 113.944 34.0823C122.087 42.2245 122.087 55.4256 113.944 63.5678L94.2875 83.2247C86.1453 91.3669 72.9442 91.3669 64.802 83.2247ZM106.573 56.1964C110.644 52.1253 110.644 45.5248 106.573 41.4537C102.502 37.3826 95.9013 37.3826 91.8302 41.4537L72.1733 61.1106C68.1022 65.1817 68.1022 71.7822 72.1733 75.8533C76.2444 79.9244 82.8449 79.9244 86.916 75.8533L106.573 56.1964Z" fill="url(#paint39_linear_45_302)"/>
<path fill-rule="evenodd" clip-rule="evenodd" d="M90.4014 139.06C82.2593 130.917 82.2593 117.716 90.4014 109.574L110.058 89.9173C118.201 81.7751 131.402 81.7751 139.544 89.9173C147.686 98.0594 147.686 111.261 139.544 119.403L119.887 139.06C111.745 147.202 98.5436 147.202 90.4014 139.06ZM132.172 112.031C136.243 107.96 136.243 101.36 132.172 97.2887C128.101 93.2176 121.501 93.2176 117.43 97.2887L97.7727 116.946C93.7017 121.017 93.7017 127.617 97.7727 131.688C101.844 135.759 108.444 135.759 112.515 131.688L132.172 112.031Z" fill="url(#paint40_linear_45_302)"/>
<path fill-rule="evenodd" clip-rule="evenodd" d="M64.802 174.396C56.6598 166.254 56.6598 153.053 64.802 144.911L84.4589 125.254C92.6011 117.112 105.802 117.112 113.944 125.254C122.087 133.396 122.087 146.597 113.944 154.739L94.2875 174.396C86.1453 182.539 72.9442 182.539 64.802 174.396ZM106.573 147.368C110.644 143.297 110.644 136.696 106.573 132.625C102.502 128.554 95.9013 128.554 91.8302 132.625L72.1733 152.282C68.1022 156.353 68.1022 162.954 72.1733 167.025C76.2444 171.096 82.8449 171.096 86.916 167.025L106.573 147.368Z" fill="url(#paint41_linear_45_302)"/>
<path fill-rule="evenodd" clip-rule="evenodd" d="M90.4014 230.231C82.2592 222.089 82.2592 208.888 90.4014 200.746L110.058 181.089C118.201 172.947 131.402 172.947 139.544 181.089C147.686 189.231 147.686 202.432 139.544 210.574L119.887 230.231C111.745 238.373 98.5436 238.373 90.4014 230.231ZM132.172 203.203C136.243 199.132 136.243 192.531 132.172 188.46C128.101 184.389 121.501 184.389 117.43 188.46L97.7727 208.117C93.7016 212.188 93.7016 218.789 97.7727 222.86C101.844 226.931 108.444 226.931 112.515 222.86L132.172 203.203Z" fill="url(#paint42_linear_45_302)"/>
<path fill-rule="evenodd" clip-rule="evenodd" d="M64.802 265.568C56.6598 257.426 56.6598 244.225 64.802 236.083L84.4589 216.426C92.6011 208.283 105.802 208.283 113.944 216.426C122.087 224.568 122.087 237.769 113.944 245.911L94.2875 265.568C86.1453 273.71 72.9442 273.71 64.802 265.568ZM106.573 238.54C110.644 234.469 110.644 227.868 106.573 223.797C102.502 219.726 95.9013 219.726 91.8302 223.797L72.1733 243.454C68.1022 247.525 68.1022 254.126 72.1733 258.197C76.2444 262.268 82.8449 262.268 86.916 258.197L106.573 238.54Z" fill="url(#paint43_linear_45_302)"/>
<path fill-rule="evenodd" clip-rule="evenodd" d="M90.4014 321.403C82.2592 313.261 82.2592 300.06 90.4014 291.918L110.058 272.261C118.2 264.118 131.402 264.118 139.544 272.261C147.686 280.403 147.686 293.604 139.544 301.746L119.887 321.403C111.745 329.545 98.5436 329.545 90.4014 321.403ZM132.172 294.375C136.243 290.304 136.243 283.703 132.172 279.632C128.101 275.561 121.501 275.561 117.43 279.632L97.7727 299.289C93.7016 303.36 93.7016 309.96 97.7727 314.032C101.844 318.103 108.444 318.103 112.515 314.032L132.172 294.375Z" fill="url(#paint44_linear_45_302)"/>
<path fill-rule="evenodd" clip-rule="evenodd" d="M64.802 356.74C56.6598 348.598 56.6598 335.396 64.802 327.254L84.4589 307.597C92.6011 299.455 105.802 299.455 113.944 307.597C122.087 315.74 122.087 328.941 113.944 337.083L94.2875 356.74C86.1453 364.882 72.9442 364.882 64.802 356.74ZM106.573 329.711C110.644 325.64 110.644 319.04 106.573 314.969C102.502 310.898 95.9013 310.898 91.8302 314.969L72.1733 334.626C68.1022 338.697 68.1022 345.297 72.1733 349.368C76.2444 353.439 82.8449 353.439 86.916 349.368L106.573 329.711Z" fill="url(#paint45_linear_45_302)"/>
<path fill-rule="evenodd" clip-rule="evenodd" d="M90.4014 412.575C82.2592 404.432 82.2592 391.231 90.4014 383.089L110.058 363.432C118.2 355.29 131.402 355.29 139.544 363.432C147.686 371.574 147.686 384.776 139.544 392.918L119.887 412.575C111.745 420.717 98.5436 420.717 90.4014 412.575ZM132.172 385.546C136.243 381.475 136.243 374.875 132.172 370.804C128.101 366.733 121.501 366.733 117.43 370.804L97.7727 390.461C93.7016 394.532 93.7016 401.132 97.7727 405.203C101.844 409.274 108.444 409.274 112.515 405.203L132.172 385.546Z" fill="url(#paint46_linear_45_302)"/>
<path fill-rule="evenodd" clip-rule="evenodd" d="M64.802 447.911C56.6598 439.769 56.6598 426.568 64.802 418.426L84.4589 398.769C92.6011 390.627 105.802 390.627 113.944 398.769C122.087 406.911 122.087 420.112 113.944 428.255L94.2875 447.911C86.1453 456.054 72.9442 456.054 64.802 447.911ZM106.573 420.883C110.644 416.812 110.644 410.212 106.573 406.14C102.502 402.069 95.9013 402.069 91.8302 406.14L72.1733 425.797C68.1022 429.868 68.1022 436.469 72.1733 440.54C76.2444 444.611 82.8449 444.611 86.916 440.54L106.573 420.883Z" fill="url(#paint47_linear_45_302)"/>
<path fill-rule="evenodd" clip-rule="evenodd" d="M90.4014 503.746C82.2592 495.604 82.2592 482.403 90.4014 474.261L110.058 454.604C118.2 446.462 131.402 446.462 139.544 454.604C147.686 462.746 147.686 475.947 139.544 484.089L119.887 503.746C111.745 511.888 98.5436 511.888 90.4014 503.746ZM132.172 476.718C136.243 472.647 136.243 466.046 132.172 461.975C128.101 457.904 121.501 457.904 117.43 461.975L97.7727 481.632C93.7016 485.703 93.7016 492.304 97.7727 496.375C101.844 500.446 108.444 500.446 112.515 496.375L132.172 476.718Z" fill="url(#paint48_linear_45_302)"/>
<path fill-rule="evenodd" clip-rule="evenodd" d="M64.802 539.083C56.6598 530.941 56.6598 517.74 64.802 509.598L84.4589 489.941C92.6011 481.799 105.802 481.799 113.944 489.941C122.087 498.083 122.087 511.284 113.944 519.426L94.2874 539.083C86.1453 547.225 72.9442 547.225 64.802 539.083ZM106.573 512.055C110.644 507.984 110.644 501.383 106.573 497.312C102.502 493.241 95.9013 493.241 91.8302 497.312L72.1733 516.969C68.1022 521.04 68.1022 527.641 72.1733 531.712C76.2444 535.783 82.8449 535.783 86.916 531.712L106.573 512.055Z" fill="url(#paint49_linear_45_302)"/>
<path fill-rule="evenodd" clip-rule="evenodd" d="M90.4014 594.918C82.2592 586.776 82.2592 573.575 90.4014 565.432L110.058 545.776C118.2 537.633 131.402 537.633 139.544 545.776C147.686 553.918 147.686 567.119 139.544 575.261L119.887 594.918C111.745 603.06 98.5436 603.06 90.4014 594.918ZM132.172 567.89C136.243 563.819 136.243 557.218 132.172 553.147C128.101 549.076 121.501 549.076 117.43 553.147L97.7727 572.804C93.7016 576.875 93.7016 583.476 97.7727 587.547C101.844 591.618 108.444 591.618 112.515 587.547L132.172 567.89Z" fill="url(#paint50_linear_45_302)"/>
<path fill-rule="evenodd" clip-rule="evenodd" d="M64.802 630.255C56.6598 622.113 56.6598 608.911 64.802 600.769L84.4589 581.112C92.6011 572.97 105.802 572.97 113.944 581.112C122.087 589.255 122.087 602.456 113.944 610.598L94.2874 630.255C86.1453 638.397 72.9442 638.397 64.802 630.255ZM106.573 603.226C110.644 599.155 110.644 592.555 106.573 588.484C102.502 584.413 95.9013 584.413 91.8302 588.484L72.1733 608.141C68.1022 612.212 68.1022 618.812 72.1733 622.883C76.2444 626.954 82.8449 626.954 86.916 622.883L106.573 603.226Z" fill="url(#paint51_linear_45_302)"/>
<path fill-rule="evenodd" clip-rule="evenodd" d="M90.4014 686.09C82.2592 677.947 82.2592 664.746 90.4014 656.604L110.058 636.947C118.2 628.805 131.402 628.805 139.544 636.947C147.686 645.089 147.686 658.291 139.544 666.433L119.887 686.09C111.745 694.232 98.5436 694.232 90.4014 686.09ZM132.172 659.061C136.243 654.99 136.243 648.39 132.172 644.319C128.101 640.248 121.501 640.248 117.43 644.319L97.7727 663.976C93.7016 668.047 93.7016 674.647 97.7727 678.718C101.844 682.789 108.444 682.789 112.515 678.718L132.172 659.061Z" fill="url(#paint52_linear_45_302)"/>
<path fill-rule="evenodd" clip-rule="evenodd" d="M64.802 721.426C56.6598 713.284 56.6598 700.083 64.802 691.941L84.4589 672.284C92.6011 664.142 105.802 664.142 113.944 672.284C122.087 680.426 122.087 693.627 113.944 701.769L94.2874 721.426C86.1453 729.569 72.9442 729.569 64.802 721.426ZM106.573 694.398C110.644 690.327 110.644 683.726 106.573 679.655C102.502 675.584 95.9013 675.584 91.8302 679.655L72.1733 699.312C68.1022 703.383 68.1022 709.984 72.1733 714.055C76.2443 718.126 82.8449 718.126 86.916 714.055L106.573 694.398Z" fill="url(#paint53_linear_45_302)"/>
<path fill-rule="evenodd" clip-rule="evenodd" d="M-5.24912 -43.2837C-13.3913 -51.4259 -13.3913 -64.627 -5.24912 -72.7692L14.4078 -92.4261C22.55 -100.568 35.751 -100.568 43.8932 -92.4261C52.0354 -84.2839 52.0354 -71.0828 43.8932 -62.9406L24.2363 -43.2837C16.0941 -35.1416 2.89306 -35.1416 -5.24912 -43.2837ZM36.5218 -70.312C40.5928 -74.3831 40.5928 -80.9836 36.5218 -85.0547C32.4507 -89.1258 25.8502 -89.1258 21.7791 -85.0547L2.12216 -65.3978C-1.94892 -61.3267 -1.94892 -54.7262 2.12216 -50.6551C6.19327 -46.584 12.7938 -46.584 16.8649 -50.6551L36.5218 -70.312Z" fill="url(#paint54_linear_45_302)"/>
<path fill-rule="evenodd" clip-rule="evenodd" d="M-30.8485 -7.94697C-38.9907 -16.0892 -38.9907 -29.2902 -30.8485 -37.4324L-11.1916 -57.0893C-3.04944 -65.2315 10.1517 -65.2315 18.2939 -57.0893C26.436 -48.9471 26.436 -35.7461 18.2939 -27.6039L-1.36307 -7.94697C-9.50525 0.195213 -22.7063 0.195213 -30.8485 -7.94697ZM10.9224 -34.9753C14.9934 -39.0463 14.9934 -45.6469 10.9224 -49.7179C6.85129 -53.789 0.250761 -53.789 -3.82031 -49.7179L-23.4772 -30.061C-27.5483 -25.99 -27.5483 -19.3894 -23.4772 -15.3184C-19.4061 -11.2473 -12.8056 -11.2473 -8.73453 -15.3184L10.9224 -34.9753Z" fill="url(#paint55_linear_45_302)"/>
<path fill-rule="evenodd" clip-rule="evenodd" d="M-5.24912 47.8879C-13.3913 39.7457 -13.3913 26.5447 -5.24912 18.4025L14.4078 -1.25442C22.55 -9.3966 35.751 -9.3966 43.8932 -1.25442C52.0354 6.88776 52.0354 20.0888 43.8932 28.231L24.2363 47.8879C16.0941 56.0301 2.89306 56.0301 -5.24912 47.8879ZM36.5218 20.8596C40.5928 16.7886 40.5928 10.188 36.5218 6.11696C32.4507 2.04589 25.8502 2.04588 21.7791 6.11696L2.12216 25.7739C-1.94892 29.845 -1.94892 36.4455 2.12216 40.5165C6.19326 44.5876 12.7938 44.5876 16.8649 40.5165L36.5218 20.8596Z" fill="url(#paint56_linear_45_302)"/>
<path fill-rule="evenodd" clip-rule="evenodd" d="M-30.8485 83.2247C-38.9907 75.0825 -38.9907 61.8814 -30.8485 53.7392L-11.1916 34.0823C-3.04944 25.9402 10.1517 25.9402 18.2938 34.0823C26.436 42.2245 26.436 55.4256 18.2938 63.5678L-1.36308 83.2247C-9.50526 91.3669 -22.7063 91.3669 -30.8485 83.2247ZM10.9224 56.1964C14.9934 52.1253 14.9934 45.5248 10.9224 41.4537C6.85128 37.3826 0.250757 37.3826 -3.82032 41.4537L-23.4772 61.1106C-27.5483 65.1817 -27.5483 71.7822 -23.4772 75.8533C-19.4061 79.9244 -12.8056 79.9244 -8.73454 75.8533L10.9224 56.1964Z" fill="url(#paint57_linear_45_302)"/>
<path fill-rule="evenodd" clip-rule="evenodd" d="M-5.24913 139.06C-13.3913 130.917 -13.3913 117.716 -5.24912 109.574L14.4078 89.9173C22.55 81.7751 35.751 81.7751 43.8932 89.9173C52.0354 98.0594 52.0354 111.261 43.8932 119.403L24.2363 139.06C16.0941 147.202 2.89306 147.202 -5.24913 139.06ZM36.5217 112.031C40.5928 107.96 40.5928 101.36 36.5218 97.2887C32.4507 93.2176 25.8502 93.2176 21.7791 97.2887L2.12215 116.946C-1.94892 121.017 -1.94892 127.617 2.12215 131.688C6.19326 135.759 12.7938 135.759 16.8649 131.688L36.5217 112.031Z" fill="url(#paint58_linear_45_302)"/>
<path fill-rule="evenodd" clip-rule="evenodd" d="M-30.8485 174.396C-38.9907 166.254 -38.9907 153.053 -30.8485 144.911L-11.1916 125.254C-3.04945 117.112 10.1517 117.112 18.2938 125.254C26.436 133.396 26.436 146.597 18.2938 154.739L-1.36308 174.396C-9.50526 182.539 -22.7063 182.539 -30.8485 174.396ZM10.9224 147.368C14.9934 143.297 14.9934 136.696 10.9224 132.625C6.85128 128.554 0.250753 128.554 -3.82032 132.625L-23.4772 152.282C-27.5483 156.353 -27.5483 162.954 -23.4772 167.025C-19.4061 171.096 -12.8056 171.096 -8.73454 167.025L10.9224 147.368Z" fill="url(#paint59_linear_45_302)"/>
<path fill-rule="evenodd" clip-rule="evenodd" d="M-5.24913 230.231C-13.3913 222.089 -13.3913 208.888 -5.24913 200.746L14.4078 181.089C22.55 172.947 35.751 172.947 43.8932 181.089C52.0354 189.231 52.0354 202.432 43.8932 210.574L24.2363 230.231C16.0941 238.373 2.89305 238.373 -5.24913 230.231ZM36.5217 203.203C40.5928 199.132 40.5928 192.531 36.5217 188.46C32.4507 184.389 25.8501 184.389 21.7791 188.46L2.12215 208.117C-1.94893 212.188 -1.94893 218.789 2.12215 222.86C6.19325 226.931 12.7937 226.931 16.8649 222.86L36.5217 203.203Z" fill="url(#paint60_linear_45_302)"/>
<path fill-rule="evenodd" clip-rule="evenodd" d="M-30.8485 265.568C-38.9907 257.426 -38.9907 244.225 -30.8485 236.083L-11.1916 216.426C-3.04945 208.283 10.1517 208.283 18.2938 216.426C26.436 224.568 26.436 237.769 18.2938 245.911L-1.36308 265.568C-9.50527 273.71 -22.7063 273.71 -30.8485 265.568ZM10.9223 238.54C14.9934 234.469 14.9934 227.868 10.9223 223.797C6.85127 219.726 0.250749 219.726 -3.82033 223.797L-23.4772 243.454C-27.5483 247.525 -27.5483 254.126 -23.4772 258.197C-19.4061 262.268 -12.8056 262.268 -8.73454 258.197L10.9223 238.54Z" fill="url(#paint61_linear_45_302)"/>
<path fill-rule="evenodd" clip-rule="evenodd" d="M-5.24913 321.403C-13.3913 313.261 -13.3913 300.06 -5.24913 291.917L14.4078 272.261C22.55 264.118 35.751 264.118 43.8932 272.261C52.0354 280.403 52.0354 293.604 43.8932 301.746L24.2363 321.403C16.0941 329.545 2.89305 329.545 -5.24913 321.403ZM36.5217 294.375C40.5928 290.304 40.5928 283.703 36.5217 279.632C32.4507 275.561 25.8501 275.561 21.7791 279.632L2.12214 299.289C-1.94893 303.36 -1.94893 309.96 2.12214 314.032C6.19325 318.103 12.7937 318.103 16.8649 314.032L36.5217 294.375Z" fill="url(#paint62_linear_45_302)"/>
<path fill-rule="evenodd" clip-rule="evenodd" d="M-30.8485 356.74C-38.9907 348.598 -38.9907 335.396 -30.8485 327.254L-11.1916 307.597C-3.04946 299.455 10.1517 299.455 18.2938 307.597C26.436 315.74 26.436 328.941 18.2938 337.083L-1.36309 356.74C-9.50527 364.882 -22.7063 364.882 -30.8485 356.74ZM10.9223 329.711C14.9934 325.64 14.9934 319.04 10.9223 314.969C6.85127 310.898 0.250745 310.898 -3.82033 314.969L-23.4772 334.626C-27.5483 338.697 -27.5483 345.297 -23.4772 349.368C-19.4061 353.439 -12.8056 353.439 -8.73455 349.368L10.9223 329.711Z" fill="url(#paint63_linear_45_302)"/>
<path fill-rule="evenodd" clip-rule="evenodd" d="M-5.24914 412.575C-13.3913 404.432 -13.3913 391.231 -5.24914 383.089L14.4078 363.432C22.55 355.29 35.751 355.29 43.8932 363.432C52.0354 371.574 52.0354 384.776 43.8932 392.918L24.2363 412.575C16.0941 420.717 2.89304 420.717 -5.24914 412.575ZM36.5217 385.546C40.5928 381.475 40.5928 374.875 36.5217 370.804C32.4507 366.733 25.8501 366.733 21.7791 370.804L2.12214 390.461C-1.94894 394.532 -1.94894 401.132 2.12214 405.203C6.19325 409.274 12.7937 409.274 16.8648 405.203L36.5217 385.546Z" fill="url(#paint64_linear_45_302)"/>
<path fill-rule="evenodd" clip-rule="evenodd" d="M-30.8485 447.911C-38.9907 439.769 -38.9907 426.568 -30.8485 418.426L-11.1916 398.769C-3.04946 390.627 10.1517 390.627 18.2938 398.769C26.436 406.911 26.436 420.112 18.2938 428.255L-1.36309 447.911C-9.50527 456.054 -22.7064 456.054 -30.8485 447.911ZM10.9223 420.883C14.9934 416.812 14.9934 410.212 10.9223 406.14C6.85127 402.069 0.250741 402.069 -3.82033 406.14L-23.4772 425.797C-27.5483 429.868 -27.5483 436.469 -23.4772 440.54C-19.4062 444.611 -12.8056 444.611 -8.73455 440.54L10.9223 420.883Z" fill="url(#paint65_linear_45_302)"/>
<path fill-rule="evenodd" clip-rule="evenodd" d="M-5.24914 503.746C-13.3913 495.604 -13.3913 482.403 -5.24914 474.261L14.4078 454.604C22.55 446.462 35.751 446.462 43.8932 454.604C52.0354 462.746 52.0354 475.947 43.8932 484.089L24.2363 503.746C16.0941 511.888 2.89304 511.888 -5.24914 503.746ZM36.5217 476.718C40.5928 472.647 40.5928 466.046 36.5217 461.975C32.4507 457.904 25.8501 457.904 21.7791 461.975L2.12214 481.632C-1.94894 485.703 -1.94894 492.304 2.12214 496.375C6.19324 500.446 12.7937 500.446 16.8648 496.375L36.5217 476.718Z" fill="url(#paint66_linear_45_302)"/>
<path fill-rule="evenodd" clip-rule="evenodd" d="M-30.8485 539.083C-38.9907 530.941 -38.9907 517.74 -30.8485 509.598L-11.1916 489.941C-3.04946 481.799 10.1516 481.799 18.2938 489.941C26.436 498.083 26.436 511.284 18.2938 519.426L-1.3631 539.083C-9.50528 547.225 -22.7064 547.225 -30.8485 539.083ZM10.9223 512.055C14.9934 507.984 14.9934 501.383 10.9223 497.312C6.85126 493.241 0.250737 493.241 -3.82034 497.312L-23.4772 516.969C-27.5483 521.04 -27.5483 527.641 -23.4772 531.712C-19.4062 535.783 -12.8056 535.783 -8.73456 531.712L10.9223 512.055Z" fill="url(#paint67_linear_45_302)"/>
<path fill-rule="evenodd" clip-rule="evenodd" d="M-5.24915 594.918C-13.3913 586.776 -13.3913 573.575 -5.24914 565.432L14.4078 545.776C22.55 537.633 35.751 537.633 43.8932 545.776C52.0354 553.918 52.0354 567.119 43.8932 575.261L24.2363 594.918C16.0941 603.06 2.89304 603.06 -5.24915 594.918ZM36.5217 567.89C40.5928 563.819 40.5928 557.218 36.5217 553.147C32.4507 549.076 25.8501 549.076 21.7791 553.147L2.12213 572.804C-1.94894 576.875 -1.94894 583.476 2.12213 587.547C6.19324 591.618 12.7937 591.618 16.8648 587.547L36.5217 567.89Z" fill="url(#paint68_linear_45_302)"/>
<path fill-rule="evenodd" clip-rule="evenodd" d="M-30.8485 630.255C-38.9907 622.113 -38.9907 608.911 -30.8485 600.769L-11.1916 581.112C-3.04947 572.97 10.1516 572.97 18.2938 581.112C26.436 589.255 26.436 602.456 18.2938 610.598L-1.3631 630.255C-9.50528 638.397 -22.7064 638.397 -30.8485 630.255ZM10.9223 603.226C14.9934 599.155 14.9934 592.555 10.9223 588.484C6.85126 584.413 0.250733 584.413 -3.82034 588.484L-23.4772 608.141C-27.5483 612.212 -27.5483 618.812 -23.4772 622.883C-19.4062 626.954 -12.8056 626.954 -8.73456 622.883L10.9223 603.226Z" fill="url(#paint69_linear_45_302)"/>
<path fill-rule="evenodd" clip-rule="evenodd" d="M-5.24915 686.09C-13.3913 677.947 -13.3913 664.746 -5.24915 656.604L14.4078 636.947C22.55 628.805 35.751 628.805 43.8932 636.947C52.0354 645.089 52.0354 658.291 43.8932 666.433L24.2363 686.09C16.0941 694.232 2.89303 694.232 -5.24915 686.09ZM36.5217 659.061C40.5928 654.99 40.5928 648.39 36.5217 644.319C32.4507 640.248 25.8501 640.248 21.7791 644.319L2.12213 663.976C-1.94895 668.047 -1.94895 674.647 2.12213 678.718C6.19323 682.789 12.7937 682.789 16.8648 678.718L36.5217 659.061Z" fill="url(#paint70_linear_45_302)"/>
<path fill-rule="evenodd" clip-rule="evenodd" d="M-30.8485 721.426C-38.9907 713.284 -38.9907 700.083 -30.8485 691.941L-11.1917 672.284C-3.04947 664.142 10.1516 664.142 18.2938 672.284C26.436 680.426 26.436 693.627 18.2938 701.769L-1.3631 721.426C-9.50529 729.569 -22.7064 729.569 -30.8485 721.426ZM10.9223 694.398C14.9934 690.327 14.9934 683.726 10.9223 679.655C6.85125 675.584 0.250729 675.584 -3.82035 679.655L-23.4772 699.312C-27.5483 703.383 -27.5483 709.984 -23.4772 714.055C-19.4062 718.126 -12.8056 718.126 -8.73456 714.055L10.9223 694.398Z" fill="url(#paint71_linear_45_302)"/>
<path fill-rule="evenodd" clip-rule="evenodd" d="M-100.9 -43.2837C-109.042 -51.4259 -109.042 -64.627 -100.9 -72.7692L-81.2427 -92.4261C-73.1006 -100.568 -59.8995 -100.568 -51.7573 -92.4261C-43.6151 -84.2839 -43.6151 -71.0828 -51.7573 -62.9406L-71.4142 -43.2837C-79.5564 -35.1416 -92.7575 -35.1416 -100.9 -43.2837ZM-59.1288 -70.312C-55.0577 -74.3831 -55.0577 -80.9836 -59.1288 -85.0547C-63.1999 -89.1258 -69.8004 -89.1258 -73.8715 -85.0547L-93.5284 -65.3978C-97.5994 -61.3267 -97.5994 -54.7262 -93.5284 -50.6551C-89.4572 -46.584 -82.8567 -46.584 -78.7856 -50.6551L-59.1288 -70.312Z" fill="url(#paint72_linear_45_302)"/>
<path fill-rule="evenodd" clip-rule="evenodd" d="M-126.499 -7.94697C-134.641 -16.0892 -134.641 -29.2902 -126.499 -37.4324L-106.842 -57.0893C-98.7 -65.2315 -85.4988 -65.2315 -77.3567 -57.0893C-69.2145 -48.9471 -69.2145 -35.7461 -77.3567 -27.6039L-97.0136 -7.94697C-105.156 0.195209 -118.357 0.195209 -126.499 -7.94697ZM-84.7282 -34.9753C-80.6571 -39.0463 -80.6571 -45.6469 -84.7282 -49.7179C-88.7993 -53.789 -95.3998 -53.789 -99.4709 -49.7179L-119.128 -30.061C-123.199 -25.99 -123.199 -19.3894 -119.128 -15.3184C-115.057 -11.2473 -108.456 -11.2473 -104.385 -15.3184L-84.7282 -34.9753Z" fill="url(#paint73_linear_45_302)"/>
<path fill-rule="evenodd" clip-rule="evenodd" d="M-100.9 47.8879C-109.042 39.7457 -109.042 26.5447 -100.9 18.4025L-81.2427 -1.25443C-73.1006 -9.39661 -59.8995 -9.39661 -51.7573 -1.25443C-43.6151 6.88775 -43.6151 20.0888 -51.7573 28.231L-71.4142 47.8879C-79.5564 56.0301 -92.7575 56.0301 -100.9 47.8879ZM-59.1288 20.8596C-55.0577 16.7886 -55.0577 10.188 -59.1288 6.11696C-63.1999 2.04588 -69.8004 2.04588 -73.8715 6.11696L-93.5284 25.7739C-97.5994 29.845 -97.5994 36.4455 -93.5284 40.5165C-89.4573 44.5876 -82.8567 44.5876 -78.7857 40.5165L-59.1288 20.8596Z" fill="url(#paint74_linear_45_302)"/>
<path fill-rule="evenodd" clip-rule="evenodd" d="M-126.499 83.2247C-134.641 75.0825 -134.641 61.8814 -126.499 53.7392L-106.842 34.0823C-98.7 25.9402 -85.4988 25.9402 -77.3567 34.0823C-69.2145 42.2245 -69.2145 55.4256 -77.3567 63.5678L-97.0136 83.2247C-105.156 91.3669 -118.357 91.3669 -126.499 83.2247ZM-84.7282 56.1964C-80.6571 52.1253 -80.6571 45.5248 -84.7282 41.4537C-88.7993 37.3826 -95.3998 37.3826 -99.4709 41.4537L-119.128 61.1106C-123.199 65.1817 -123.199 71.7822 -119.128 75.8533C-115.057 79.9244 -108.456 79.9244 -104.385 75.8533L-84.7282 56.1964Z" fill="url(#paint75_linear_45_302)"/>
<path fill-rule="evenodd" clip-rule="evenodd" d="M-100.9 139.06C-109.042 130.917 -109.042 117.716 -100.9 109.574L-81.2427 89.9172C-73.1006 81.7751 -59.8995 81.7751 -51.7573 89.9172C-43.6151 98.0594 -43.6151 111.261 -51.7573 119.403L-71.4142 139.06C-79.5564 147.202 -92.7575 147.202 -100.9 139.06ZM-59.1288 112.031C-55.0577 107.96 -55.0577 101.36 -59.1288 97.2886C-63.1999 93.2176 -69.8004 93.2176 -73.8715 97.2886L-93.5284 116.946C-97.5994 121.017 -97.5994 127.617 -93.5284 131.688C-89.4573 135.759 -82.8567 135.759 -78.7857 131.688L-59.1288 112.031Z" fill="url(#paint76_linear_45_302)"/>
<path fill-rule="evenodd" clip-rule="evenodd" d="M-126.499 174.396C-134.641 166.254 -134.641 153.053 -126.499 144.911L-106.842 125.254C-98.7 117.112 -85.4988 117.112 -77.3567 125.254C-69.2145 133.396 -69.2145 146.597 -77.3567 154.739L-97.0136 174.396C-105.156 182.539 -118.357 182.539 -126.499 174.396ZM-84.7282 147.368C-80.6571 143.297 -80.6571 136.696 -84.7282 132.625C-88.7993 128.554 -95.3998 128.554 -99.4709 132.625L-119.128 152.282C-123.199 156.353 -123.199 162.954 -119.128 167.025C-115.057 171.096 -108.456 171.096 -104.385 167.025L-84.7282 147.368Z" fill="url(#paint77_linear_45_302)"/>
<path fill-rule="evenodd" clip-rule="evenodd" d="M-100.9 230.231C-109.042 222.089 -109.042 208.888 -100.9 200.746L-81.2427 181.089C-73.1006 172.947 -59.8995 172.947 -51.7573 181.089C-43.6151 189.231 -43.6151 202.432 -51.7573 210.574L-71.4142 230.231C-79.5564 238.373 -92.7575 238.373 -100.9 230.231ZM-59.1288 203.203C-55.0577 199.132 -55.0577 192.531 -59.1288 188.46C-63.1999 184.389 -69.8004 184.389 -73.8715 188.46L-93.5284 208.117C-97.5994 212.188 -97.5994 218.789 -93.5284 222.86C-89.4573 226.931 -82.8567 226.931 -78.7857 222.86L-59.1288 203.203Z" fill="url(#paint78_linear_45_302)"/>
<path fill-rule="evenodd" clip-rule="evenodd" d="M-126.499 265.568C-134.641 257.426 -134.641 244.225 -126.499 236.083L-106.842 216.426C-98.7 208.283 -85.4989 208.283 -77.3567 216.426C-69.2145 224.568 -69.2145 237.769 -77.3567 245.911L-97.0136 265.568C-105.156 273.71 -118.357 273.71 -126.499 265.568ZM-84.7282 238.54C-80.6571 234.469 -80.6571 227.868 -84.7282 223.797C-88.7993 219.726 -95.3998 219.726 -99.4709 223.797L-119.128 243.454C-123.199 247.525 -123.199 254.126 -119.128 258.197C-115.057 262.268 -108.456 262.268 -104.385 258.197L-84.7282 238.54Z" fill="url(#paint79_linear_45_302)"/>
<path fill-rule="evenodd" clip-rule="evenodd" d="M-100.9 321.403C-109.042 313.261 -109.042 300.06 -100.9 291.917L-81.2428 272.261C-73.1006 264.118 -59.8995 264.118 -51.7573 272.261C-43.6151 280.403 -43.6151 293.604 -51.7573 301.746L-71.4142 321.403C-79.5564 329.545 -92.7575 329.545 -100.9 321.403ZM-59.1288 294.375C-55.0577 290.304 -55.0577 283.703 -59.1288 279.632C-63.1999 275.561 -69.8004 275.561 -73.8715 279.632L-93.5284 299.289C-97.5994 303.36 -97.5994 309.96 -93.5284 314.032C-89.4573 318.103 -82.8567 318.103 -78.7857 314.032L-59.1288 294.375Z" fill="url(#paint80_linear_45_302)"/>
<path fill-rule="evenodd" clip-rule="evenodd" d="M-126.499 356.74C-134.641 348.598 -134.641 335.396 -126.499 327.254L-106.842 307.597C-98.7 299.455 -85.4989 299.455 -77.3567 307.597C-69.2145 315.74 -69.2145 328.941 -77.3567 337.083L-97.0136 356.74C-105.156 364.882 -118.357 364.882 -126.499 356.74ZM-84.7282 329.711C-80.6571 325.64 -80.6571 319.04 -84.7282 314.969C-88.7993 310.898 -95.3998 310.898 -99.4709 314.969L-119.128 334.626C-123.199 338.697 -123.199 345.297 -119.128 349.368C-115.057 353.439 -108.456 353.439 -104.385 349.368L-84.7282 329.711Z" fill="url(#paint81_linear_45_302)"/>
<path fill-rule="evenodd" clip-rule="evenodd" d="M-100.9 412.575C-109.042 404.432 -109.042 391.231 -100.9 383.089L-81.2428 363.432C-73.1006 355.29 -59.8995 355.29 -51.7573 363.432C-43.6151 371.574 -43.6151 384.776 -51.7573 392.918L-71.4142 412.575C-79.5564 420.717 -92.7575 420.717 -100.9 412.575ZM-59.1288 385.546C-55.0577 381.475 -55.0577 374.875 -59.1288 370.804C-63.1999 366.733 -69.8004 366.733 -73.8715 370.804L-93.5284 390.461C-97.5994 394.532 -97.5994 401.132 -93.5284 405.203C-89.4573 409.274 -82.8567 409.274 -78.7857 405.203L-59.1288 385.546Z" fill="url(#paint82_linear_45_302)"/>
<path fill-rule="evenodd" clip-rule="evenodd" d="M-126.499 447.911C-134.641 439.769 -134.641 426.568 -126.499 418.426L-106.842 398.769C-98.7 390.627 -85.4989 390.627 -77.3567 398.769C-69.2145 406.911 -69.2145 420.112 -77.3567 428.254L-97.0136 447.911C-105.156 456.054 -118.357 456.054 -126.499 447.911ZM-84.7282 420.883C-80.6571 416.812 -80.6571 410.211 -84.7282 406.14C-88.7993 402.069 -95.3998 402.069 -99.4709 406.14L-119.128 425.797C-123.199 429.868 -123.199 436.469 -119.128 440.54C-115.057 444.611 -108.456 444.611 -104.385 440.54L-84.7282 420.883Z" fill="url(#paint83_linear_45_302)"/>
<path fill-rule="evenodd" clip-rule="evenodd" d="M-100.9 503.746C-109.042 495.604 -109.042 482.403 -100.9 474.261L-81.2428 454.604C-73.1006 446.462 -59.8995 446.462 -51.7573 454.604C-43.6151 462.746 -43.6151 475.947 -51.7573 484.089L-71.4142 503.746C-79.5564 511.888 -92.7575 511.888 -100.9 503.746ZM-59.1288 476.718C-55.0577 472.647 -55.0577 466.046 -59.1288 461.975C-63.1999 457.904 -69.8004 457.904 -73.8715 461.975L-93.5284 481.632C-97.5995 485.703 -97.5995 492.304 -93.5284 496.375C-89.4573 500.446 -82.8567 500.446 -78.7857 496.375L-59.1288 476.718Z" fill="url(#paint84_linear_45_302)"/>
<path fill-rule="evenodd" clip-rule="evenodd" d="M-126.499 539.083C-134.641 530.941 -134.641 517.74 -126.499 509.598L-106.842 489.941C-98.7 481.799 -85.4989 481.799 -77.3567 489.941C-69.2145 498.083 -69.2145 511.284 -77.3567 519.426L-97.0136 539.083C-105.156 547.225 -118.357 547.225 -126.499 539.083ZM-84.7282 512.055C-80.6571 507.984 -80.6571 501.383 -84.7282 497.312C-88.7993 493.241 -95.3998 493.241 -99.4709 497.312L-119.128 516.969C-123.199 521.04 -123.199 527.641 -119.128 531.712C-115.057 535.783 -108.456 535.783 -104.385 531.712L-84.7282 512.055Z" fill="url(#paint85_linear_45_302)"/>
<path fill-rule="evenodd" clip-rule="evenodd" d="M-100.9 594.918C-109.042 586.776 -109.042 573.575 -100.9 565.432L-81.2428 545.776C-73.1006 537.633 -59.8995 537.633 -51.7573 545.776C-43.6151 553.918 -43.6151 567.119 -51.7573 575.261L-71.4142 594.918C-79.5564 603.06 -92.7575 603.06 -100.9 594.918ZM-59.1288 567.89C-55.0577 563.819 -55.0577 557.218 -59.1288 553.147C-63.1999 549.076 -69.8004 549.076 -73.8715 553.147L-93.5284 572.804C-97.5995 576.875 -97.5995 583.476 -93.5284 587.547C-89.4573 591.618 -82.8568 591.618 -78.7857 587.547L-59.1288 567.89Z" fill="url(#paint86_linear_45_302)"/>
<path fill-rule="evenodd" clip-rule="evenodd" d="M-126.499 630.255C-134.641 622.113 -134.641 608.911 -126.499 600.769L-106.842 581.112C-98.7 572.97 -85.4989 572.97 -77.3567 581.112C-69.2145 589.255 -69.2145 602.456 -77.3567 610.598L-97.0136 630.255C-105.156 638.397 -118.357 638.397 -126.499 630.255ZM-84.7282 603.226C-80.6571 599.155 -80.6571 592.555 -84.7282 588.484C-88.7993 584.413 -95.3998 584.413 -99.4709 588.484L-119.128 608.141C-123.199 612.212 -123.199 618.812 -119.128 622.883C-115.057 626.954 -108.456 626.954 -104.385 622.883L-84.7282 603.226Z" fill="url(#paint87_linear_45_302)"/>
<path fill-rule="evenodd" clip-rule="evenodd" d="M-100.9 686.09C-109.042 677.947 -109.042 664.746 -100.9 656.604L-81.2428 636.947C-73.1006 628.805 -59.8995 628.805 -51.7573 636.947C-43.6151 645.089 -43.6151 658.291 -51.7573 666.433L-71.4142 686.09C-79.5564 694.232 -92.7575 694.232 -100.9 686.09ZM-59.1288 659.061C-55.0577 654.99 -55.0577 648.39 -59.1288 644.319C-63.1999 640.248 -69.8004 640.248 -73.8715 644.319L-93.5284 663.976C-97.5995 668.047 -97.5995 674.647 -93.5284 678.718C-89.4573 682.789 -82.8568 682.789 -78.7857 678.718L-59.1288 659.061Z" fill="url(#paint88_linear_45_302)"/>
<path fill-rule="evenodd" clip-rule="evenodd" d="M-126.499 721.426C-134.641 713.284 -134.641 700.083 -126.499 691.941L-106.842 672.284C-98.7 664.142 -85.4989 664.142 -77.3567 672.284C-69.2145 680.426 -69.2145 693.627 -77.3567 701.769L-97.0136 721.426C-105.156 729.569 -118.357 729.569 -126.499 721.426ZM-84.7282 694.398C-80.6571 690.327 -80.6571 683.726 -84.7282 679.655C-88.7993 675.584 -95.3998 675.584 -99.4709 679.655L-119.128 699.312C-123.199 703.383 -123.199 709.984 -119.128 714.055C-115.057 718.126 -108.456 718.126 -104.385 714.055L-84.7282 694.398Z" fill="url(#paint89_linear_45_302)"/>
<defs>
<linearGradient id="paint0_linear_45_302" x1="336.951" y1="314.5" x2="-132.606" y2="314.5" gradientUnits="userSpaceOnUse">
<stop stop-color="#F5F5F5" stop-opacity="0"/>
<stop offset="1" stop-color="#FF9720"/>
</linearGradient>
<linearGradient id="paint1_linear_45_302" x1="336.951" y1="314.5" x2="-132.606" y2="314.5" gradientUnits="userSpaceOnUse">
<stop stop-color="#F5F5F5" stop-opacity="0"/>
<stop offset="1" stop-color="#FF9720"/>
</linearGradient>
<linearGradient id="paint2_linear_45_302" x1="336.951" y1="314.5" x2="-132.606" y2="314.5" gradientUnits="userSpaceOnUse">
<stop stop-color="#F5F5F5" stop-opacity="0"/>
<stop offset="1" stop-color="#FF9720"/>
</linearGradient>
<linearGradient id="paint3_linear_45_302" x1="336.951" y1="314.5" x2="-132.606" y2="314.5" gradientUnits="userSpaceOnUse">
<stop stop-color="#F5F5F5" stop-opacity="0"/>
<stop offset="1" stop-color="#FF9720"/>
</linearGradient>
<linearGradient id="paint4_linear_45_302" x1="336.951" y1="314.5" x2="-132.606" y2="314.5" gradientUnits="userSpaceOnUse">
<stop stop-color="#F5F5F5" stop-opacity="0"/>
<stop offset="1" stop-color="#FF9720"/>
</linearGradient>
<linearGradient id="paint5_linear_45_302" x1="336.951" y1="314.5" x2="-132.606" y2="314.5" gradientUnits="userSpaceOnUse">
<stop stop-color="#F5F5F5" stop-opacity="0"/>
<stop offset="1" stop-color="#FF9720"/>
</linearGradient>
<linearGradient id="paint6_linear_45_302" x1="336.951" y1="314.5" x2="-132.606" y2="314.5" gradientUnits="userSpaceOnUse">
<stop stop-color="#F5F5F5" stop-opacity="0"/>
<stop offset="1" stop-color="#FF9720"/>
</linearGradient>
<linearGradient id="paint7_linear_45_302" x1="336.951" y1="314.5" x2="-132.606" y2="314.5" gradientUnits="userSpaceOnUse">
<stop stop-color="#F5F5F5" stop-opacity="0"/>
<stop offset="1" stop-color="#FF9720"/>
</linearGradient>
<linearGradient id="paint8_linear_45_302" x1="336.951" y1="314.5" x2="-132.606" y2="314.5" gradientUnits="userSpaceOnUse">
<stop stop-color="#F5F5F5" stop-opacity="0"/>
<stop offset="1" stop-color="#FF9720"/>
</linearGradient>
<linearGradient id="paint9_linear_45_302" x1="336.951" y1="314.5" x2="-132.606" y2="314.5" gradientUnits="userSpaceOnUse">
<stop stop-color="#F5F5F5" stop-opacity="0"/>
<stop offset="1" stop-color="#FF9720"/>
</linearGradient>
<linearGradient id="paint10_linear_45_302" x1="336.951" y1="314.5" x2="-132.606" y2="314.5" gradientUnits="userSpaceOnUse">
<stop stop-color="#F5F5F5" stop-opacity="0"/>
<stop offset="1" stop-color="#FF9720"/>
</linearGradient>
<linearGradient id="paint11_linear_45_302" x1="336.951" y1="314.5" x2="-132.606" y2="314.5" gradientUnits="userSpaceOnUse">
<stop stop-color="#F5F5F5" stop-opacity="0"/>
<stop offset="1" stop-color="#FF9720"/>
</linearGradient>
<linearGradient id="paint12_linear_45_302" x1="336.951" y1="314.5" x2="-132.606" y2="314.5" gradientUnits="userSpaceOnUse">
<stop stop-color="#F5F5F5" stop-opacity="0"/>
<stop offset="1" stop-color="#FF9720"/>
</linearGradient>
<linearGradient id="paint13_linear_45_302" x1="336.951" y1="314.5" x2="-132.606" y2="314.5" gradientUnits="userSpaceOnUse">
<stop stop-color="#F5F5F5" stop-opacity="0"/>
<stop offset="1" stop-color="#FF9720"/>
</linearGradient>
<linearGradient id="paint14_linear_45_302" x1="336.951" y1="314.5" x2="-132.606" y2="314.5" gradientUnits="userSpaceOnUse">
<stop stop-color="#F5F5F5" stop-opacity="0"/>
<stop offset="1" stop-color="#FF9720"/>
</linearGradient>
<linearGradient id="paint15_linear_45_302" x1="336.951" y1="314.5" x2="-132.606" y2="314.5" gradientUnits="userSpaceOnUse">
<stop stop-color="#F5F5F5" stop-opacity="0"/>
<stop offset="1" stop-color="#FF9720"/>
</linearGradient>
<linearGradient id="paint16_linear_45_302" x1="336.951" y1="314.5" x2="-132.606" y2="314.5" gradientUnits="userSpaceOnUse">
<stop stop-color="#F5F5F5" stop-opacity="0"/>
<stop offset="1" stop-color="#FF9720"/>
</linearGradient>
<linearGradient id="paint17_linear_45_302" x1="336.951" y1="314.5" x2="-132.606" y2="314.5" gradientUnits="userSpaceOnUse">
<stop stop-color="#F5F5F5" stop-opacity="0"/>
<stop offset="1" stop-color="#FF9720"/>
</linearGradient>
<linearGradient id="paint18_linear_45_302" x1="336.951" y1="314.5" x2="-132.606" y2="314.5" gradientUnits="userSpaceOnUse">
<stop stop-color="#F5F5F5" stop-opacity="0"/>
<stop offset="1" stop-color="#FF9720"/>
</linearGradient>
<linearGradient id="paint19_linear_45_302" x1="336.951" y1="314.5" x2="-132.606" y2="314.5" gradientUnits="userSpaceOnUse">
<stop stop-color="#F5F5F5" stop-opacity="0"/>
<stop offset="1" stop-color="#FF9720"/>
</linearGradient>
<linearGradient id="paint20_linear_45_302" x1="336.951" y1="314.5" x2="-132.606" y2="314.5" gradientUnits="userSpaceOnUse">
<stop stop-color="#F5F5F5" stop-opacity="0"/>
<stop offset="1" stop-color="#FF9720"/>
</linearGradient>
<linearGradient id="paint21_linear_45_302" x1="336.951" y1="314.5" x2="-132.606" y2="314.5" gradientUnits="userSpaceOnUse">
<stop stop-color="#F5F5F5" stop-opacity="0"/>
<stop offset="1" stop-color="#FF9720"/>
</linearGradient>
<linearGradient id="paint22_linear_45_302" x1="336.951" y1="314.5" x2="-132.606" y2="314.5" gradientUnits="userSpaceOnUse">
<stop stop-color="#F5F5F5" stop-opacity="0"/>
<stop offset="1" stop-color="#FF9720"/>
</linearGradient>
<linearGradient id="paint23_linear_45_302" x1="336.951" y1="314.5" x2="-132.606" y2="314.5" gradientUnits="userSpaceOnUse">
<stop stop-color="#F5F5F5" stop-opacity="0"/>
<stop offset="1" stop-color="#FF9720"/>
</linearGradient>
<linearGradient id="paint24_linear_45_302" x1="336.951" y1="314.5" x2="-132.606" y2="314.5" gradientUnits="userSpaceOnUse">
<stop stop-color="#F5F5F5" stop-opacity="0"/>
<stop offset="1" stop-color="#FF9720"/>
</linearGradient>
<linearGradient id="paint25_linear_45_302" x1="336.951" y1="314.5" x2="-132.606" y2="314.5" gradientUnits="userSpaceOnUse">
<stop stop-color="#F5F5F5" stop-opacity="0"/>
<stop offset="1" stop-color="#FF9720"/>
</linearGradient>
<linearGradient id="paint26_linear_45_302" x1="336.951" y1="314.5" x2="-132.606" y2="314.5" gradientUnits="userSpaceOnUse">
<stop stop-color="#F5F5F5" stop-opacity="0"/>
<stop offset="1" stop-color="#FF9720"/>
</linearGradient>
<linearGradient id="paint27_linear_45_302" x1="336.951" y1="314.5" x2="-132.606" y2="314.5" gradientUnits="userSpaceOnUse">
<stop stop-color="#F5F5F5" stop-opacity="0"/>
<stop offset="1" stop-color="#FF9720"/>
</linearGradient>
<linearGradient id="paint28_linear_45_302" x1="336.951" y1="314.5" x2="-132.606" y2="314.5" gradientUnits="userSpaceOnUse">
<stop stop-color="#F5F5F5" stop-opacity="0"/>
<stop offset="1" stop-color="#FF9720"/>
</linearGradient>
<linearGradient id="paint29_linear_45_302" x1="336.951" y1="314.5" x2="-132.606" y2="314.5" gradientUnits="userSpaceOnUse">
<stop stop-color="#F5F5F5" stop-opacity="0"/>
<stop offset="1" stop-color="#FF9720"/>
</linearGradient>
<linearGradient id="paint30_linear_45_302" x1="336.951" y1="314.5" x2="-132.606" y2="314.5" gradientUnits="userSpaceOnUse">
<stop stop-color="#F5F5F5" stop-opacity="0"/>
<stop offset="1" stop-color="#FF9720"/>
</linearGradient>
<linearGradient id="paint31_linear_45_302" x1="336.951" y1="314.5" x2="-132.606" y2="314.5" gradientUnits="userSpaceOnUse">
<stop stop-color="#F5F5F5" stop-opacity="0"/>
<stop offset="1" stop-color="#FF9720"/>
</linearGradient>
<linearGradient id="paint32_linear_45_302" x1="336.951" y1="314.5" x2="-132.606" y2="314.5" gradientUnits="userSpaceOnUse">
<stop stop-color="#F5F5F5" stop-opacity="0"/>
<stop offset="1" stop-color="#FF9720"/>
</linearGradient>
<linearGradient id="paint33_linear_45_302" x1="336.951" y1="314.5" x2="-132.606" y2="314.5" gradientUnits="userSpaceOnUse">
<stop stop-color="#F5F5F5" stop-opacity="0"/>
<stop offset="1" stop-color="#FF9720"/>
</linearGradient>
<linearGradient id="paint34_linear_45_302" x1="336.951" y1="314.5" x2="-132.606" y2="314.5" gradientUnits="userSpaceOnUse">
<stop stop-color="#F5F5F5" stop-opacity="0"/>
<stop offset="1" stop-color="#FF9720"/>
</linearGradient>
<linearGradient id="paint35_linear_45_302" x1="336.951" y1="314.5" x2="-132.606" y2="314.5" gradientUnits="userSpaceOnUse">
<stop stop-color="#F5F5F5" stop-opacity="0"/>
<stop offset="1" stop-color="#FF9720"/>
</linearGradient>
<linearGradient id="paint36_linear_45_302" x1="336.951" y1="314.5" x2="-132.606" y2="314.5" gradientUnits="userSpaceOnUse">
<stop stop-color="#F5F5F5" stop-opacity="0"/>
<stop offset="1" stop-color="#FF9720"/>
</linearGradient>
<linearGradient id="paint37_linear_45_302" x1="336.951" y1="314.5" x2="-132.606" y2="314.5" gradientUnits="userSpaceOnUse">
<stop stop-color="#F5F5F5" stop-opacity="0"/>
<stop offset="1" stop-color="#FF9720"/>
</linearGradient>
<linearGradient id="paint38_linear_45_302" x1="336.951" y1="314.5" x2="-132.606" y2="314.5" gradientUnits="userSpaceOnUse">
<stop stop-color="#F5F5F5" stop-opacity="0"/>
<stop offset="1" stop-color="#FF9720"/>
</linearGradient>
<linearGradient id="paint39_linear_45_302" x1="336.951" y1="314.5" x2="-132.606" y2="314.5" gradientUnits="userSpaceOnUse">
<stop stop-color="#F5F5F5" stop-opacity="0"/>
<stop offset="1" stop-color="#FF9720"/>
</linearGradient>
<linearGradient id="paint40_linear_45_302" x1="336.951" y1="314.5" x2="-132.606" y2="314.5" gradientUnits="userSpaceOnUse">
<stop stop-color="#F5F5F5" stop-opacity="0"/>
<stop offset="1" stop-color="#FF9720"/>
</linearGradient>
<linearGradient id="paint41_linear_45_302" x1="336.951" y1="314.5" x2="-132.606" y2="314.5" gradientUnits="userSpaceOnUse">
<stop stop-color="#F5F5F5" stop-opacity="0"/>
<stop offset="1" stop-color="#FF9720"/>
</linearGradient>
<linearGradient id="paint42_linear_45_302" x1="336.951" y1="314.5" x2="-132.606" y2="314.5" gradientUnits="userSpaceOnUse">
<stop stop-color="#F5F5F5" stop-opacity="0"/>
<stop offset="1" stop-color="#FF9720"/>
</linearGradient>
<linearGradient id="paint43_linear_45_302" x1="336.951" y1="314.5" x2="-132.606" y2="314.5" gradientUnits="userSpaceOnUse">
<stop stop-color="#F5F5F5" stop-opacity="0"/>
<stop offset="1" stop-color="#FF9720"/>
</linearGradient>
<linearGradient id="paint44_linear_45_302" x1="336.951" y1="314.5" x2="-132.606" y2="314.5" gradientUnits="userSpaceOnUse">
<stop stop-color="#F5F5F5" stop-opacity="0"/>
<stop offset="1" stop-color="#FF9720"/>
</linearGradient>
<linearGradient id="paint45_linear_45_302" x1="336.951" y1="314.5" x2="-132.606" y2="314.5" gradientUnits="userSpaceOnUse">
<stop stop-color="#F5F5F5" stop-opacity="0"/>
<stop offset="1" stop-color="#FF9720"/>
</linearGradient>
<linearGradient id="paint46_linear_45_302" x1="336.951" y1="314.5" x2="-132.606" y2="314.5" gradientUnits="userSpaceOnUse">
<stop stop-color="#F5F5F5" stop-opacity="0"/>
<stop offset="1" stop-color="#FF9720"/>
</linearGradient>
<linearGradient id="paint47_linear_45_302" x1="336.951" y1="314.5" x2="-132.606" y2="314.5" gradientUnits="userSpaceOnUse">
<stop stop-color="#F5F5F5" stop-opacity="0"/>
<stop offset="1" stop-color="#FF9720"/>
</linearGradient>
<linearGradient id="paint48_linear_45_302" x1="336.951" y1="314.5" x2="-132.606" y2="314.5" gradientUnits="userSpaceOnUse">
<stop stop-color="#F5F5F5" stop-opacity="0"/>
<stop offset="1" stop-color="#FF9720"/>
</linearGradient>
<linearGradient id="paint49_linear_45_302" x1="336.951" y1="314.5" x2="-132.606" y2="314.5" gradientUnits="userSpaceOnUse">
<stop stop-color="#F5F5F5" stop-opacity="0"/>
<stop offset="1" stop-color="#FF9720"/>
</linearGradient>
<linearGradient id="paint50_linear_45_302" x1="336.951" y1="314.5" x2="-132.606" y2="314.5" gradientUnits="userSpaceOnUse">
<stop stop-color="#F5F5F5" stop-opacity="0"/>
<stop offset="1" stop-color="#FF9720"/>
</linearGradient>
<linearGradient id="paint51_linear_45_302" x1="336.951" y1="314.5" x2="-132.606" y2="314.5" gradientUnits="userSpaceOnUse">
<stop stop-color="#F5F5F5" stop-opacity="0"/>
<stop offset="1" stop-color="#FF9720"/>
</linearGradient>
<linearGradient id="paint52_linear_45_302" x1="336.951" y1="314.5" x2="-132.606" y2="314.5" gradientUnits="userSpaceOnUse">
<stop stop-color="#F5F5F5" stop-opacity="0"/>
<stop offset="1" stop-color="#FF9720"/>
</linearGradient>
<linearGradient id="paint53_linear_45_302" x1="336.951" y1="314.5" x2="-132.606" y2="314.5" gradientUnits="userSpaceOnUse">
<stop stop-color="#F5F5F5" stop-opacity="0"/>
<stop offset="1" stop-color="#FF9720"/>
</linearGradient>
<linearGradient id="paint54_linear_45_302" x1="336.951" y1="314.5" x2="-132.606" y2="314.5" gradientUnits="userSpaceOnUse">
<stop stop-color="#F5F5F5" stop-opacity="0"/>
<stop offset="1" stop-color="#FF9720"/>
</linearGradient>
<linearGradient id="paint55_linear_45_302" x1="336.951" y1="314.5" x2="-132.606" y2="314.5" gradientUnits="userSpaceOnUse">
<stop stop-color="#F5F5F5" stop-opacity="0"/>
<stop offset="1" stop-color="#FF9720"/>
</linearGradient>
<linearGradient id="paint56_linear_45_302" x1="336.951" y1="314.5" x2="-132.606" y2="314.5" gradientUnits="userSpaceOnUse">
<stop stop-color="#F5F5F5" stop-opacity="0"/>
<stop offset="1" stop-color="#FF9720"/>
</linearGradient>
<linearGradient id="paint57_linear_45_302" x1="336.951" y1="314.5" x2="-132.606" y2="314.5" gradientUnits="userSpaceOnUse">
<stop stop-color="#F5F5F5" stop-opacity="0"/>
<stop offset="1" stop-color="#FF9720"/>
</linearGradient>
<linearGradient id="paint58_linear_45_302" x1="336.951" y1="314.5" x2="-132.606" y2="314.5" gradientUnits="userSpaceOnUse">
<stop stop-color="#F5F5F5" stop-opacity="0"/>
<stop offset="1" stop-color="#FF9720"/>
</linearGradient>
<linearGradient id="paint59_linear_45_302" x1="336.951" y1="314.5" x2="-132.606" y2="314.5" gradientUnits="userSpaceOnUse">
<stop stop-color="#F5F5F5" stop-opacity="0"/>
<stop offset="1" stop-color="#FF9720"/>
</linearGradient>
<linearGradient id="paint60_linear_45_302" x1="336.951" y1="314.5" x2="-132.606" y2="314.5" gradientUnits="userSpaceOnUse">
<stop stop-color="#F5F5F5" stop-opacity="0"/>
<stop offset="1" stop-color="#FF9720"/>
</linearGradient>
<linearGradient id="paint61_linear_45_302" x1="336.951" y1="314.5" x2="-132.606" y2="314.5" gradientUnits="userSpaceOnUse">
<stop stop-color="#F5F5F5" stop-opacity="0"/>
<stop offset="1" stop-color="#FF9720"/>
</linearGradient>
<linearGradient id="paint62_linear_45_302" x1="336.951" y1="314.5" x2="-132.606" y2="314.5" gradientUnits="userSpaceOnUse">
<stop stop-color="#F5F5F5" stop-opacity="0"/>
<stop offset="1" stop-color="#FF9720"/>
</linearGradient>
<linearGradient id="paint63_linear_45_302" x1="336.951" y1="314.5" x2="-132.606" y2="314.5" gradientUnits="userSpaceOnUse">
<stop stop-color="#F5F5F5" stop-opacity="0"/>
<stop offset="1" stop-color="#FF9720"/>
</linearGradient>
<linearGradient id="paint64_linear_45_302" x1="336.951" y1="314.5" x2="-132.606" y2="314.5" gradientUnits="userSpaceOnUse">
<stop stop-color="#F5F5F5" stop-opacity="0"/>
<stop offset="1" stop-color="#FF9720"/>
</linearGradient>
<linearGradient id="paint65_linear_45_302" x1="336.951" y1="314.5" x2="-132.606" y2="314.5" gradientUnits="userSpaceOnUse">
<stop stop-color="#F5F5F5" stop-opacity="0"/>
<stop offset="1" stop-color="#FF9720"/>
</linearGradient>
<linearGradient id="paint66_linear_45_302" x1="336.951" y1="314.5" x2="-132.606" y2="314.5" gradientUnits="userSpaceOnUse">
<stop stop-color="#F5F5F5" stop-opacity="0"/>
<stop offset="1" stop-color="#FF9720"/>
</linearGradient>
<linearGradient id="paint67_linear_45_302" x1="336.951" y1="314.5" x2="-132.606" y2="314.5" gradientUnits="userSpaceOnUse">
<stop stop-color="#F5F5F5" stop-opacity="0"/>
<stop offset="1" stop-color="#FF9720"/>
</linearGradient>
<linearGradient id="paint68_linear_45_302" x1="336.951" y1="314.5" x2="-132.606" y2="314.5" gradientUnits="userSpaceOnUse">
<stop stop-color="#F5F5F5" stop-opacity="0"/>
<stop offset="1" stop-color="#FF9720"/>
</linearGradient>
<linearGradient id="paint69_linear_45_302" x1="336.951" y1="314.5" x2="-132.606" y2="314.5" gradientUnits="userSpaceOnUse">
<stop stop-color="#F5F5F5" stop-opacity="0"/>
<stop offset="1" stop-color="#FF9720"/>
</linearGradient>
<linearGradient id="paint70_linear_45_302" x1="336.951" y1="314.5" x2="-132.606" y2="314.5" gradientUnits="userSpaceOnUse">
<stop stop-color="#F5F5F5" stop-opacity="0"/>
<stop offset="1" stop-color="#FF9720"/>
</linearGradient>
<linearGradient id="paint71_linear_45_302" x1="336.951" y1="314.5" x2="-132.606" y2="314.5" gradientUnits="userSpaceOnUse">
<stop stop-color="#F5F5F5" stop-opacity="0"/>
<stop offset="1" stop-color="#FF9720"/>
</linearGradient>
<linearGradient id="paint72_linear_45_302" x1="336.951" y1="314.5" x2="-132.606" y2="314.5" gradientUnits="userSpaceOnUse">
<stop stop-color="#F5F5F5" stop-opacity="0"/>
<stop offset="1" stop-color="#FF9720"/>
</linearGradient>
<linearGradient id="paint73_linear_45_302" x1="336.951" y1="314.5" x2="-132.606" y2="314.5" gradientUnits="userSpaceOnUse">
<stop stop-color="#F5F5F5" stop-opacity="0"/>
<stop offset="1" stop-color="#FF9720"/>
</linearGradient>
<linearGradient id="paint74_linear_45_302" x1="336.951" y1="314.5" x2="-132.606" y2="314.5" gradientUnits="userSpaceOnUse">
<stop stop-color="#F5F5F5" stop-opacity="0"/>
<stop offset="1" stop-color="#FF9720"/>
</linearGradient>
<linearGradient id="paint75_linear_45_302" x1="336.951" y1="314.5" x2="-132.606" y2="314.5" gradientUnits="userSpaceOnUse">
<stop stop-color="#F5F5F5" stop-opacity="0"/>
<stop offset="1" stop-color="#FF9720"/>
</linearGradient>
<linearGradient id="paint76_linear_45_302" x1="336.951" y1="314.5" x2="-132.606" y2="314.5" gradientUnits="userSpaceOnUse">
<stop stop-color="#F5F5F5" stop-opacity="0"/>
<stop offset="1" stop-color="#FF9720"/>
</linearGradient>
<linearGradient id="paint77_linear_45_302" x1="336.951" y1="314.5" x2="-132.606" y2="314.5" gradientUnits="userSpaceOnUse">
<stop stop-color="#F5F5F5" stop-opacity="0"/>
<stop offset="1" stop-color="#FF9720"/>
</linearGradient>
<linearGradient id="paint78_linear_45_302" x1="336.951" y1="314.5" x2="-132.606" y2="314.5" gradientUnits="userSpaceOnUse">
<stop stop-color="#F5F5F5" stop-opacity="0"/>
<stop offset="1" stop-color="#FF9720"/>
</linearGradient>
<linearGradient id="paint79_linear_45_302" x1="336.951" y1="314.5" x2="-132.606" y2="314.5" gradientUnits="userSpaceOnUse">
<stop stop-color="#F5F5F5" stop-opacity="0"/>
<stop offset="1" stop-color="#FF9720"/>
</linearGradient>
<linearGradient id="paint80_linear_45_302" x1="336.951" y1="314.5" x2="-132.606" y2="314.5" gradientUnits="userSpaceOnUse">
<stop stop-color="#F5F5F5" stop-opacity="0"/>
<stop offset="1" stop-color="#FF9720"/>
</linearGradient>
<linearGradient id="paint81_linear_45_302" x1="336.951" y1="314.5" x2="-132.606" y2="314.5" gradientUnits="userSpaceOnUse">
<stop stop-color="#F5F5F5" stop-opacity="0"/>
<stop offset="1" stop-color="#FF9720"/>
</linearGradient>
<linearGradient id="paint82_linear_45_302" x1="336.951" y1="314.5" x2="-132.606" y2="314.5" gradientUnits="userSpaceOnUse">
<stop stop-color="#F5F5F5" stop-opacity="0"/>
<stop offset="1" stop-color="#FF9720"/>
</linearGradient>
<linearGradient id="paint83_linear_45_302" x1="336.951" y1="314.5" x2="-132.606" y2="314.5" gradientUnits="userSpaceOnUse">
<stop stop-color="#F5F5F5" stop-opacity="0"/>
<stop offset="1" stop-color="#FF9720"/>
</linearGradient>
<linearGradient id="paint84_linear_45_302" x1="336.951" y1="314.5" x2="-132.606" y2="314.5" gradientUnits="userSpaceOnUse">
<stop stop-color="#F5F5F5" stop-opacity="0"/>
<stop offset="1" stop-color="#FF9720"/>
</linearGradient>
<linearGradient id="paint85_linear_45_302" x1="336.951" y1="314.5" x2="-132.606" y2="314.5" gradientUnits="userSpaceOnUse">
<stop stop-color="#F5F5F5" stop-opacity="0"/>
<stop offset="1" stop-color="#FF9720"/>
</linearGradient>
<linearGradient id="paint86_linear_45_302" x1="336.951" y1="314.5" x2="-132.606" y2="314.5" gradientUnits="userSpaceOnUse">
<stop stop-color="#F5F5F5" stop-opacity="0"/>
<stop offset="1" stop-color="#FF9720"/>
</linearGradient>
<linearGradient id="paint87_linear_45_302" x1="336.951" y1="314.5" x2="-132.606" y2="314.5" gradientUnits="userSpaceOnUse">
<stop stop-color="#F5F5F5" stop-opacity="0"/>
<stop offset="1" stop-color="#FF9720"/>
</linearGradient>
<linearGradient id="paint88_linear_45_302" x1="336.951" y1="314.5" x2="-132.606" y2="314.5" gradientUnits="userSpaceOnUse">
<stop stop-color="#F5F5F5" stop-opacity="0"/>
<stop offset="1" stop-color="#FF9720"/>
</linearGradient>
<linearGradient id="paint89_linear_45_302" x1="336.951" y1="314.5" x2="-132.606" y2="314.5" gradientUnits="userSpaceOnUse">
<stop stop-color="#F5F5F5" stop-opacity="0"/>
<stop offset="1" stop-color="#FF9720"/>
</linearGradient>
</defs>
</svg>
