<svg width="320" height="580" viewBox="0 0 320 580" fill="none" xmlns="http://www.w3.org/2000/svg">
<path fill-rule="evenodd" clip-rule="evenodd" d="M335.238 12.4983C328.65 5.91005 328.65 -4.77165 335.238 -11.3599L351.144 -27.2653C357.732 -33.8536 368.414 -33.8536 375.002 -27.2653C381.59 -20.6771 381.59 -9.99538 375.002 -3.40711L359.097 12.4983C352.508 19.0866 341.827 19.0866 335.238 12.4983ZM369.038 -9.37169C372.332 -12.6658 372.332 -18.0066 369.038 -21.3008C365.743 -24.5949 360.403 -24.5949 357.108 -21.3008L341.203 -5.39534C337.909 -2.10121 337.909 3.23961 341.203 6.53374C344.497 9.82786 349.838 9.82786 353.132 6.53374L369.038 -9.37169Z" fill="url(#paint0_linear_45_303)"/>
<path fill-rule="evenodd" clip-rule="evenodd" d="M314.525 41.0911C307.936 34.5029 307.936 23.8212 314.525 17.2329L330.43 1.32748C337.018 -5.26078 347.7 -5.26078 354.288 1.32749C360.877 7.91576 360.877 18.5974 354.288 25.1857L338.383 41.0911C331.795 47.6794 321.113 47.6794 314.525 41.0911ZM348.324 19.2211C351.618 15.927 351.618 10.5862 348.324 7.29206C345.03 3.99794 339.689 3.99794 336.395 7.29206L320.489 23.1975C317.195 26.4916 317.195 31.8324 320.489 35.1266C323.783 38.4207 329.124 38.4207 332.418 35.1266L348.324 19.2211Z" fill="url(#paint1_linear_45_303)"/>
<path fill-rule="evenodd" clip-rule="evenodd" d="M335.238 86.2701C328.65 79.6818 328.65 69.0001 335.238 62.4119L351.144 46.5064C357.732 39.9182 368.414 39.9182 375.002 46.5064C381.59 53.0947 381.59 63.7764 375.002 70.3647L359.097 86.2701C352.508 92.8584 341.827 92.8584 335.238 86.2701ZM369.038 64.4001C372.332 61.106 372.332 55.7651 369.038 52.471C365.743 49.1769 360.403 49.1769 357.108 52.471L341.203 68.3764C337.909 71.6706 337.909 77.0114 341.203 80.3055C344.497 83.5996 349.838 83.5996 353.132 80.3055L369.038 64.4001Z" fill="url(#paint2_linear_45_303)"/>
<path fill-rule="evenodd" clip-rule="evenodd" d="M314.525 114.863C307.936 108.275 307.936 97.593 314.525 91.0047L330.43 75.0993C337.018 68.511 347.7 68.511 354.288 75.0993C360.877 81.6875 360.877 92.3692 354.288 98.9575L338.383 114.863C331.795 121.451 321.113 121.451 314.525 114.863ZM348.324 92.9929C351.618 89.6988 351.618 84.358 348.324 81.0638C345.03 77.7697 339.689 77.7697 336.395 81.0638L320.489 96.9693C317.195 100.263 317.195 105.604 320.489 108.898C323.783 112.192 329.124 112.192 332.418 108.898L348.324 92.9929Z" fill="url(#paint3_linear_45_303)"/>
<path fill-rule="evenodd" clip-rule="evenodd" d="M335.238 160.042C328.65 153.454 328.65 142.772 335.238 136.184L351.144 120.278C357.732 113.69 368.414 113.69 375.002 120.278C381.59 126.866 381.59 137.548 375.002 144.136L359.097 160.042C352.508 166.63 341.827 166.63 335.238 160.042ZM369.037 138.172C372.332 134.878 372.332 129.537 369.037 126.243C365.743 122.949 360.403 122.949 357.108 126.243L341.203 142.148C337.909 145.442 337.909 150.783 341.203 154.077C344.497 157.371 349.838 157.371 353.132 154.077L369.037 138.172Z" fill="url(#paint4_linear_45_303)"/>
<path fill-rule="evenodd" clip-rule="evenodd" d="M314.525 188.635C307.936 182.046 307.936 171.365 314.525 164.776L330.43 148.871C337.018 142.283 347.7 142.283 354.288 148.871C360.877 155.459 360.877 166.141 354.288 172.729L338.383 188.635C331.795 195.223 321.113 195.223 314.525 188.635ZM348.324 166.765C351.618 163.471 351.618 158.13 348.324 154.836C345.03 151.542 339.689 151.542 336.395 154.836L320.489 170.741C317.195 174.035 317.195 179.376 320.489 182.67C323.783 185.964 329.124 185.964 332.418 182.67L348.324 166.765Z" fill="url(#paint5_linear_45_303)"/>
<path fill-rule="evenodd" clip-rule="evenodd" d="M335.238 233.814C328.65 227.225 328.65 216.544 335.238 209.955L351.144 194.05C357.732 187.462 368.414 187.462 375.002 194.05C381.59 200.638 381.59 211.32 375.002 217.908L359.097 233.814C352.508 240.402 341.827 240.402 335.238 233.814ZM369.037 211.944C372.332 208.65 372.332 203.309 369.037 200.015C365.743 196.72 360.403 196.72 357.108 200.015L341.203 215.92C337.909 219.214 337.909 224.555 341.203 227.849C344.497 231.143 349.838 231.143 353.132 227.849L369.037 211.944Z" fill="url(#paint6_linear_45_303)"/>
<path fill-rule="evenodd" clip-rule="evenodd" d="M314.525 262.406C307.936 255.818 307.936 245.137 314.525 238.548L330.43 222.643C337.018 216.055 347.7 216.055 354.288 222.643C360.877 229.231 360.877 239.913 354.288 246.501L338.383 262.406C331.795 268.995 321.113 268.995 314.525 262.406ZM348.324 240.536C351.618 237.242 351.618 231.902 348.324 228.607C345.03 225.313 339.689 225.313 336.395 228.607L320.489 244.513C317.195 247.807 317.195 253.148 320.489 256.442C323.783 259.736 329.124 259.736 332.418 256.442L348.324 240.536Z" fill="url(#paint7_linear_45_303)"/>
<path fill-rule="evenodd" clip-rule="evenodd" d="M335.238 307.585C328.65 300.997 328.65 290.315 335.238 283.727L351.144 267.822C357.732 261.233 368.414 261.234 375.002 267.822C381.59 274.41 381.59 285.092 375.002 291.68L359.097 307.585C352.508 314.174 341.827 314.174 335.238 307.585ZM369.037 285.715C372.332 282.421 372.332 277.08 369.037 273.786C365.743 270.492 360.403 270.492 357.108 273.786L341.203 289.692C337.909 292.986 337.909 298.327 341.203 301.621C344.497 304.915 349.838 304.915 353.132 301.621L369.037 285.715Z" fill="url(#paint8_linear_45_303)"/>
<path fill-rule="evenodd" clip-rule="evenodd" d="M314.525 336.178C307.936 329.59 307.936 318.908 314.525 312.32L330.43 296.415C337.018 289.826 347.7 289.826 354.288 296.415C360.877 303.003 360.877 313.685 354.288 320.273L338.383 336.178C331.795 342.767 321.113 342.767 314.525 336.178ZM348.324 314.308C351.618 311.014 351.618 305.673 348.324 302.379C345.03 299.085 339.689 299.085 336.395 302.379L320.489 318.285C317.195 321.579 317.195 326.92 320.489 330.214C323.783 333.508 329.124 333.508 332.418 330.214L348.324 314.308Z" fill="url(#paint9_linear_45_303)"/>
<path fill-rule="evenodd" clip-rule="evenodd" d="M335.238 381.357C328.65 374.769 328.65 364.087 335.238 357.499L351.144 341.594C357.732 335.005 368.414 335.005 375.002 341.594C381.59 348.182 381.59 358.864 375.002 365.452L359.097 381.357C352.508 387.945 341.827 387.945 335.238 381.357ZM369.037 359.487C372.332 356.193 372.332 350.852 369.037 347.558C365.743 344.264 360.403 344.264 357.108 347.558L341.203 363.464C337.909 366.758 337.909 372.099 341.203 375.393C344.497 378.687 349.838 378.687 353.132 375.393L369.037 359.487Z" fill="url(#paint10_linear_45_303)"/>
<path fill-rule="evenodd" clip-rule="evenodd" d="M314.525 409.95C307.936 403.362 307.936 392.68 314.525 386.092L330.43 370.186C337.018 363.598 347.7 363.598 354.288 370.186C360.877 376.775 360.877 387.456 354.288 394.045L338.383 409.95C331.795 416.538 321.113 416.538 314.525 409.95ZM348.324 388.08C351.618 384.786 351.618 379.445 348.324 376.151C345.03 372.857 339.689 372.857 336.395 376.151L320.489 392.056C317.195 395.351 317.195 400.691 320.489 403.985C323.783 407.28 329.124 407.28 332.418 403.985L348.324 388.08Z" fill="url(#paint11_linear_45_303)"/>
<path fill-rule="evenodd" clip-rule="evenodd" d="M335.238 455.129C328.65 448.541 328.65 437.859 335.238 431.271L351.144 415.365C357.732 408.777 368.414 408.777 375.002 415.365C381.59 421.954 381.59 432.635 375.002 439.224L359.097 455.129C352.508 461.717 341.827 461.717 335.238 455.129ZM369.037 433.259C372.332 429.965 372.332 424.624 369.037 421.33C365.743 418.036 360.403 418.036 357.108 421.33L341.203 437.235C337.909 440.529 337.909 445.87 341.203 449.164C344.497 452.459 349.838 452.459 353.132 449.164L369.037 433.259Z" fill="url(#paint12_linear_45_303)"/>
<path fill-rule="evenodd" clip-rule="evenodd" d="M314.525 483.722C307.936 477.134 307.936 466.452 314.525 459.864L330.43 443.958C337.018 437.37 347.7 437.37 354.288 443.958C360.877 450.546 360.877 461.228 354.288 467.816L338.383 483.722C331.795 490.31 321.113 490.31 314.525 483.722ZM348.324 461.852C351.618 458.558 351.618 453.217 348.324 449.923C345.03 446.629 339.689 446.629 336.395 449.923L320.489 465.828C317.195 469.122 317.195 474.463 320.489 477.757C323.783 481.051 329.124 481.051 332.418 477.757L348.324 461.852Z" fill="url(#paint13_linear_45_303)"/>
<path fill-rule="evenodd" clip-rule="evenodd" d="M335.238 528.901C328.65 522.312 328.65 511.631 335.238 505.043L351.144 489.137C357.732 482.549 368.414 482.549 375.002 489.137C381.59 495.725 381.59 506.407 375.002 512.995L359.097 528.901C352.508 535.489 341.827 535.489 335.238 528.901ZM369.037 507.031C372.332 503.737 372.332 498.396 369.037 495.102C365.743 491.808 360.403 491.808 357.108 495.102L341.203 511.007C337.909 514.301 337.909 519.642 341.203 522.936C344.497 526.23 349.838 526.23 353.132 522.936L369.037 507.031Z" fill="url(#paint14_linear_45_303)"/>
<path fill-rule="evenodd" clip-rule="evenodd" d="M314.525 557.494C307.936 550.905 307.936 540.224 314.525 533.635L330.43 517.73C337.018 511.142 347.7 511.142 354.288 517.73C360.877 524.318 360.877 535 354.288 541.588L338.383 557.494C331.795 564.082 321.113 564.082 314.525 557.494ZM348.324 535.624C351.618 532.329 351.618 526.989 348.324 523.695C345.03 520.4 339.689 520.4 336.395 523.695L320.489 539.6C317.195 542.894 317.195 548.235 320.489 551.529C323.783 554.823 329.124 554.823 332.418 551.529L348.324 535.624Z" fill="url(#paint15_linear_45_303)"/>
<path fill-rule="evenodd" clip-rule="evenodd" d="M335.238 602.673C328.65 596.084 328.65 585.403 335.238 578.814L351.144 562.909C357.732 556.321 368.414 556.321 375.002 562.909C381.59 569.497 381.59 580.179 375.002 586.767L359.097 602.673C352.508 609.261 341.827 609.261 335.238 602.673ZM369.037 580.803C372.332 577.508 372.332 572.168 369.037 568.873C365.743 565.579 360.403 565.579 357.108 568.873L341.203 584.779C337.909 588.073 337.909 593.414 341.203 596.708C344.497 600.002 349.838 600.002 353.132 596.708L369.037 580.803Z" fill="url(#paint16_linear_45_303)"/>
<path fill-rule="evenodd" clip-rule="evenodd" d="M314.525 631.265C307.936 624.677 307.936 613.995 314.525 607.407L330.43 591.502C337.018 584.913 347.7 584.913 354.288 591.502C360.877 598.09 360.877 608.772 354.288 615.36L338.383 631.265C331.795 637.854 321.113 637.854 314.525 631.265ZM348.324 609.395C351.618 606.101 351.618 600.76 348.324 597.466C345.03 594.172 339.689 594.172 336.395 597.466L320.489 613.372C317.195 616.666 317.195 622.007 320.489 625.301C323.783 628.595 329.124 628.595 332.418 625.301L348.324 609.395Z" fill="url(#paint17_linear_45_303)"/>
<path fill-rule="evenodd" clip-rule="evenodd" d="M257.843 12.4983C251.254 5.91004 251.254 -4.77165 257.843 -11.3599L273.748 -27.2653C280.336 -33.8536 291.018 -33.8536 297.606 -27.2653C304.195 -20.6771 304.195 -9.99538 297.606 -3.40712L281.701 12.4983C275.113 19.0866 264.431 19.0866 257.843 12.4983ZM291.642 -9.3717C294.936 -12.6658 294.936 -18.0066 291.642 -21.3008C288.348 -24.5949 283.007 -24.5949 279.713 -21.3008L263.807 -5.39534C260.513 -2.10122 260.513 3.23961 263.807 6.53374C267.101 9.82786 272.442 9.82786 275.736 6.53374L291.642 -9.3717Z" fill="url(#paint18_linear_45_303)"/>
<path fill-rule="evenodd" clip-rule="evenodd" d="M237.129 41.0911C230.541 34.5029 230.541 23.8212 237.129 17.2329L253.034 1.32748C259.623 -5.26079 270.304 -5.26078 276.892 1.32748C283.481 7.91575 283.481 18.5974 276.892 25.1857L260.987 41.0911C254.399 47.6794 243.717 47.6794 237.129 41.0911ZM270.928 19.2211C274.222 15.927 274.222 10.5862 270.928 7.29206C267.634 3.99794 262.293 3.99793 258.999 7.29206L243.093 23.1975C239.799 26.4916 239.799 31.8324 243.093 35.1266C246.387 38.4207 251.728 38.4207 255.022 35.1266L270.928 19.2211Z" fill="url(#paint19_linear_45_303)"/>
<path fill-rule="evenodd" clip-rule="evenodd" d="M257.843 86.2701C251.254 79.6818 251.254 69.0001 257.843 62.4119L273.748 46.5064C280.336 39.9182 291.018 39.9182 297.606 46.5064C304.195 53.0947 304.195 63.7764 297.606 70.3647L281.701 86.2701C275.113 92.8584 264.431 92.8584 257.843 86.2701ZM291.642 64.4001C294.936 61.106 294.936 55.7651 291.642 52.471C288.348 49.1769 283.007 49.1769 279.713 52.471L263.807 68.3764C260.513 71.6706 260.513 77.0114 263.807 80.3055C267.101 83.5996 272.442 83.5996 275.736 80.3055L291.642 64.4001Z" fill="url(#paint20_linear_45_303)"/>
<path fill-rule="evenodd" clip-rule="evenodd" d="M237.129 114.863C230.541 108.275 230.541 97.593 237.129 91.0047L253.034 75.0993C259.623 68.511 270.304 68.511 276.892 75.0993C283.481 81.6875 283.481 92.3692 276.892 98.9575L260.987 114.863C254.399 121.451 243.717 121.451 237.129 114.863ZM270.928 92.9929C274.222 89.6988 274.222 84.358 270.928 81.0638C267.634 77.7697 262.293 77.7697 258.999 81.0638L243.093 96.9693C239.799 100.263 239.799 105.604 243.093 108.898C246.387 112.192 251.728 112.192 255.022 108.898L270.928 92.9929Z" fill="url(#paint21_linear_45_303)"/>
<path fill-rule="evenodd" clip-rule="evenodd" d="M257.843 160.042C251.254 153.454 251.254 142.772 257.843 136.184L273.748 120.278C280.336 113.69 291.018 113.69 297.606 120.278C304.195 126.866 304.195 137.548 297.606 144.136L281.701 160.042C275.113 166.63 264.431 166.63 257.843 160.042ZM291.642 138.172C294.936 134.878 294.936 129.537 291.642 126.243C288.348 122.949 283.007 122.949 279.713 126.243L263.807 142.148C260.513 145.442 260.513 150.783 263.807 154.077C267.101 157.371 272.442 157.371 275.736 154.077L291.642 138.172Z" fill="url(#paint22_linear_45_303)"/>
<path fill-rule="evenodd" clip-rule="evenodd" d="M237.129 188.635C230.541 182.046 230.541 171.365 237.129 164.776L253.034 148.871C259.623 142.283 270.304 142.283 276.892 148.871C283.481 155.459 283.481 166.141 276.892 172.729L260.987 188.635C254.399 195.223 243.717 195.223 237.129 188.635ZM270.928 166.765C274.222 163.471 274.222 158.13 270.928 154.836C267.634 151.541 262.293 151.541 258.999 154.836L243.093 170.741C239.799 174.035 239.799 179.376 243.093 182.67C246.387 185.964 251.728 185.964 255.022 182.67L270.928 166.765Z" fill="url(#paint23_linear_45_303)"/>
<path fill-rule="evenodd" clip-rule="evenodd" d="M257.843 233.814C251.254 227.225 251.254 216.544 257.843 209.955L273.748 194.05C280.336 187.462 291.018 187.462 297.606 194.05C304.195 200.638 304.195 211.32 297.606 217.908L281.701 233.814C275.113 240.402 264.431 240.402 257.843 233.814ZM291.642 211.944C294.936 208.65 294.936 203.309 291.642 200.015C288.348 196.72 283.007 196.72 279.713 200.015L263.807 215.92C260.513 219.214 260.513 224.555 263.807 227.849C267.101 231.143 272.442 231.143 275.736 227.849L291.642 211.944Z" fill="url(#paint24_linear_45_303)"/>
<path fill-rule="evenodd" clip-rule="evenodd" d="M237.129 262.406C230.541 255.818 230.541 245.137 237.129 238.548L253.034 222.643C259.623 216.055 270.304 216.055 276.892 222.643C283.481 229.231 283.481 239.913 276.892 246.501L260.987 262.406C254.399 268.995 243.717 268.995 237.129 262.406ZM270.928 240.536C274.222 237.242 274.222 231.902 270.928 228.607C267.634 225.313 262.293 225.313 258.999 228.607L243.093 244.513C239.799 247.807 239.799 253.148 243.093 256.442C246.387 259.736 251.728 259.736 255.022 256.442L270.928 240.536Z" fill="url(#paint25_linear_45_303)"/>
<path fill-rule="evenodd" clip-rule="evenodd" d="M257.843 307.585C251.254 300.997 251.254 290.315 257.843 283.727L273.748 267.822C280.336 261.233 291.018 261.234 297.606 267.822C304.195 274.41 304.195 285.092 297.606 291.68L281.701 307.585C275.113 314.174 264.431 314.174 257.843 307.585ZM291.642 285.715C294.936 282.421 294.936 277.08 291.642 273.786C288.347 270.492 283.007 270.492 279.713 273.786L263.807 289.692C260.513 292.986 260.513 298.327 263.807 301.621C267.101 304.915 272.442 304.915 275.736 301.621L291.642 285.715Z" fill="url(#paint26_linear_45_303)"/>
<path fill-rule="evenodd" clip-rule="evenodd" d="M237.129 336.178C230.541 329.59 230.541 318.908 237.129 312.32L253.034 296.415C259.622 289.826 270.304 289.826 276.892 296.415C283.481 303.003 283.481 313.685 276.892 320.273L260.987 336.178C254.399 342.767 243.717 342.767 237.129 336.178ZM270.928 314.308C274.222 311.014 274.222 305.673 270.928 302.379C267.634 299.085 262.293 299.085 258.999 302.379L243.093 318.285C239.799 321.579 239.799 326.92 243.093 330.214C246.387 333.508 251.728 333.508 255.022 330.214L270.928 314.308Z" fill="url(#paint27_linear_45_303)"/>
<path fill-rule="evenodd" clip-rule="evenodd" d="M257.843 381.357C251.254 374.769 251.254 364.087 257.843 357.499L273.748 341.594C280.336 335.005 291.018 335.005 297.606 341.594C304.195 348.182 304.195 358.864 297.606 365.452L281.701 381.357C275.113 387.945 264.431 387.945 257.843 381.357ZM291.642 359.487C294.936 356.193 294.936 350.852 291.642 347.558C288.347 344.264 283.007 344.264 279.713 347.558L263.807 363.464C260.513 366.758 260.513 372.099 263.807 375.393C267.101 378.687 272.442 378.687 275.736 375.393L291.642 359.487Z" fill="url(#paint28_linear_45_303)"/>
<path fill-rule="evenodd" clip-rule="evenodd" d="M237.129 409.95C230.541 403.362 230.541 392.68 237.129 386.092L253.034 370.186C259.622 363.598 270.304 363.598 276.892 370.186C283.481 376.775 283.481 387.456 276.892 394.045L260.987 409.95C254.399 416.538 243.717 416.538 237.129 409.95ZM270.928 388.08C274.222 384.786 274.222 379.445 270.928 376.151C267.634 372.857 262.293 372.857 258.999 376.151L243.093 392.056C239.799 395.351 239.799 400.691 243.093 403.985C246.387 407.28 251.728 407.28 255.022 403.985L270.928 388.08Z" fill="url(#paint29_linear_45_303)"/>
<path fill-rule="evenodd" clip-rule="evenodd" d="M257.843 455.129C251.254 448.541 251.254 437.859 257.843 431.271L273.748 415.365C280.336 408.777 291.018 408.777 297.606 415.365C304.195 421.954 304.195 432.635 297.606 439.224L281.701 455.129C275.113 461.717 264.431 461.717 257.843 455.129ZM291.642 433.259C294.936 429.965 294.936 424.624 291.642 421.33C288.347 418.036 283.007 418.036 279.713 421.33L263.807 437.235C260.513 440.529 260.513 445.87 263.807 449.164C267.101 452.459 272.442 452.459 275.736 449.164L291.642 433.259Z" fill="url(#paint30_linear_45_303)"/>
<path fill-rule="evenodd" clip-rule="evenodd" d="M237.129 483.722C230.541 477.134 230.541 466.452 237.129 459.864L253.034 443.958C259.622 437.37 270.304 437.37 276.892 443.958C283.481 450.546 283.481 461.228 276.892 467.816L260.987 483.722C254.399 490.31 243.717 490.31 237.129 483.722ZM270.928 461.852C274.222 458.558 274.222 453.217 270.928 449.923C267.634 446.629 262.293 446.629 258.999 449.923L243.093 465.828C239.799 469.122 239.799 474.463 243.093 477.757C246.387 481.051 251.728 481.051 255.022 477.757L270.928 461.852Z" fill="url(#paint31_linear_45_303)"/>
<path fill-rule="evenodd" clip-rule="evenodd" d="M257.843 528.901C251.254 522.312 251.254 511.631 257.843 505.043L273.748 489.137C280.336 482.549 291.018 482.549 297.606 489.137C304.195 495.725 304.195 506.407 297.606 512.995L281.701 528.901C275.113 535.489 264.431 535.489 257.843 528.901ZM291.642 507.031C294.936 503.737 294.936 498.396 291.642 495.102C288.347 491.808 283.007 491.808 279.713 495.102L263.807 511.007C260.513 514.301 260.513 519.642 263.807 522.936C267.101 526.23 272.442 526.23 275.736 522.936L291.642 507.031Z" fill="url(#paint32_linear_45_303)"/>
<path fill-rule="evenodd" clip-rule="evenodd" d="M237.129 557.494C230.541 550.905 230.541 540.224 237.129 533.635L253.034 517.73C259.622 511.142 270.304 511.142 276.892 517.73C283.481 524.318 283.481 535 276.892 541.588L260.987 557.494C254.399 564.082 243.717 564.082 237.129 557.494ZM270.928 535.624C274.222 532.329 274.222 526.989 270.928 523.695C267.634 520.4 262.293 520.4 258.999 523.695L243.093 539.6C239.799 542.894 239.799 548.235 243.093 551.529C246.387 554.823 251.728 554.823 255.022 551.529L270.928 535.624Z" fill="url(#paint33_linear_45_303)"/>
<path fill-rule="evenodd" clip-rule="evenodd" d="M257.843 602.673C251.254 596.084 251.254 585.403 257.843 578.814L273.748 562.909C280.336 556.321 291.018 556.321 297.606 562.909C304.195 569.497 304.195 580.179 297.606 586.767L281.701 602.673C275.113 609.261 264.431 609.261 257.843 602.673ZM291.642 580.803C294.936 577.508 294.936 572.168 291.642 568.873C288.347 565.579 283.007 565.579 279.713 568.873L263.807 584.779C260.513 588.073 260.513 593.414 263.807 596.708C267.101 600.002 272.442 600.002 275.736 596.708L291.642 580.803Z" fill="url(#paint34_linear_45_303)"/>
<path fill-rule="evenodd" clip-rule="evenodd" d="M237.129 631.265C230.541 624.677 230.541 613.995 237.129 607.407L253.034 591.502C259.622 584.913 270.304 584.913 276.892 591.502C283.481 598.09 283.481 608.772 276.892 615.36L260.987 631.265C254.399 637.854 243.717 637.854 237.129 631.265ZM270.928 609.395C274.222 606.101 274.222 600.76 270.928 597.466C267.634 594.172 262.293 594.172 258.999 597.466L243.093 613.372C239.799 616.666 239.799 622.007 243.093 625.301C246.387 628.595 251.728 628.595 255.022 625.301L270.928 609.395Z" fill="url(#paint35_linear_45_303)"/>
<path fill-rule="evenodd" clip-rule="evenodd" d="M180.447 12.4983C173.859 5.91004 173.859 -4.77165 180.447 -11.3599L196.352 -27.2654C202.94 -33.8536 213.622 -33.8536 220.21 -27.2653C226.799 -20.6771 226.799 -9.99539 220.21 -3.40712L204.305 12.4983C197.717 19.0866 187.035 19.0866 180.447 12.4983ZM214.246 -9.3717C217.54 -12.6658 217.54 -18.0066 214.246 -21.3008C210.952 -24.5949 205.611 -24.5949 202.317 -21.3008L186.411 -5.39534C183.117 -2.10122 183.117 3.23961 186.411 6.53373C189.705 9.82786 195.046 9.82786 198.34 6.53373L214.246 -9.3717Z" fill="url(#paint36_linear_45_303)"/>
<path fill-rule="evenodd" clip-rule="evenodd" d="M159.733 41.0911C153.145 34.5029 153.145 23.8212 159.733 17.2329L175.638 1.32748C182.227 -5.26079 192.908 -5.26079 199.497 1.32748C206.085 7.91575 206.085 18.5974 199.497 25.1857L183.591 41.0911C177.003 47.6794 166.321 47.6794 159.733 41.0911ZM193.532 19.2211C196.826 15.927 196.826 10.5862 193.532 7.29206C190.238 3.99793 184.897 3.99793 181.603 7.29206L165.697 23.1975C162.403 26.4916 162.403 31.8324 165.697 35.1266C168.992 38.4207 174.332 38.4207 177.627 35.1266L193.532 19.2211Z" fill="url(#paint37_linear_45_303)"/>
<path fill-rule="evenodd" clip-rule="evenodd" d="M180.447 86.2701C173.859 79.6818 173.859 69.0001 180.447 62.4119L196.352 46.5064C202.94 39.9182 213.622 39.9182 220.21 46.5064C226.799 53.0947 226.799 63.7764 220.21 70.3647L204.305 86.2701C197.717 92.8584 187.035 92.8584 180.447 86.2701ZM214.246 64.4001C217.54 61.106 217.54 55.7651 214.246 52.471C210.952 49.1769 205.611 49.1769 202.317 52.471L186.411 68.3764C183.117 71.6706 183.117 77.0114 186.411 80.3055C189.705 83.5996 195.046 83.5996 198.34 80.3055L214.246 64.4001Z" fill="url(#paint38_linear_45_303)"/>
<path fill-rule="evenodd" clip-rule="evenodd" d="M159.733 114.863C153.145 108.275 153.145 97.5929 159.733 91.0047L175.638 75.0993C182.227 68.511 192.908 68.511 199.497 75.0993C206.085 81.6875 206.085 92.3692 199.497 98.9575L183.591 114.863C177.003 121.451 166.321 121.451 159.733 114.863ZM193.532 92.9929C196.826 89.6988 196.826 84.358 193.532 81.0638C190.238 77.7697 184.897 77.7697 181.603 81.0638L165.697 96.9693C162.403 100.263 162.403 105.604 165.697 108.898C168.992 112.192 174.332 112.192 177.627 108.898L193.532 92.9929Z" fill="url(#paint39_linear_45_303)"/>
<path fill-rule="evenodd" clip-rule="evenodd" d="M180.447 160.042C173.858 153.454 173.858 142.772 180.447 136.184L196.352 120.278C202.94 113.69 213.622 113.69 220.21 120.278C226.799 126.866 226.799 137.548 220.21 144.136L204.305 160.042C197.717 166.63 187.035 166.63 180.447 160.042ZM214.246 138.172C217.54 134.878 217.54 129.537 214.246 126.243C210.952 122.949 205.611 122.949 202.317 126.243L186.411 142.148C183.117 145.442 183.117 150.783 186.411 154.077C189.705 157.371 195.046 157.371 198.34 154.077L214.246 138.172Z" fill="url(#paint40_linear_45_303)"/>
<path fill-rule="evenodd" clip-rule="evenodd" d="M159.733 188.635C153.145 182.046 153.145 171.365 159.733 164.776L175.638 148.871C182.227 142.283 192.908 142.283 199.497 148.871C206.085 155.459 206.085 166.141 199.497 172.729L183.591 188.635C177.003 195.223 166.321 195.223 159.733 188.635ZM193.532 166.765C196.826 163.471 196.826 158.13 193.532 154.836C190.238 151.541 184.897 151.541 181.603 154.836L165.697 170.741C162.403 174.035 162.403 179.376 165.697 182.67C168.992 185.964 174.332 185.964 177.627 182.67L193.532 166.765Z" fill="url(#paint41_linear_45_303)"/>
<path fill-rule="evenodd" clip-rule="evenodd" d="M180.447 233.814C173.858 227.225 173.858 216.544 180.447 209.955L196.352 194.05C202.94 187.462 213.622 187.462 220.21 194.05C226.799 200.638 226.799 211.32 220.21 217.908L204.305 233.814C197.717 240.402 187.035 240.402 180.447 233.814ZM214.246 211.944C217.54 208.65 217.54 203.309 214.246 200.015C210.952 196.72 205.611 196.72 202.317 200.015L186.411 215.92C183.117 219.214 183.117 224.555 186.411 227.849C189.705 231.143 195.046 231.143 198.34 227.849L214.246 211.944Z" fill="url(#paint42_linear_45_303)"/>
<path fill-rule="evenodd" clip-rule="evenodd" d="M159.733 262.406C153.145 255.818 153.145 245.137 159.733 238.548L175.638 222.643C182.227 216.055 192.908 216.055 199.497 222.643C206.085 229.231 206.085 239.913 199.497 246.501L183.591 262.406C177.003 268.995 166.321 268.995 159.733 262.406ZM193.532 240.536C196.826 237.242 196.826 231.902 193.532 228.607C190.238 225.313 184.897 225.313 181.603 228.607L165.697 244.513C162.403 247.807 162.403 253.148 165.697 256.442C168.992 259.736 174.332 259.736 177.626 256.442L193.532 240.536Z" fill="url(#paint43_linear_45_303)"/>
<path fill-rule="evenodd" clip-rule="evenodd" d="M180.447 307.585C173.858 300.997 173.858 290.315 180.447 283.727L196.352 267.822C202.94 261.233 213.622 261.234 220.21 267.822C226.799 274.41 226.799 285.092 220.21 291.68L204.305 307.585C197.717 314.174 187.035 314.174 180.447 307.585ZM214.246 285.715C217.54 282.421 217.54 277.08 214.246 273.786C210.952 270.492 205.611 270.492 202.317 273.786L186.411 289.692C183.117 292.986 183.117 298.327 186.411 301.621C189.705 304.915 195.046 304.915 198.34 301.621L214.246 285.715Z" fill="url(#paint44_linear_45_303)"/>
<path fill-rule="evenodd" clip-rule="evenodd" d="M159.733 336.178C153.145 329.59 153.145 318.908 159.733 312.32L175.638 296.415C182.227 289.826 192.908 289.826 199.497 296.415C206.085 303.003 206.085 313.685 199.497 320.273L183.591 336.178C177.003 342.767 166.321 342.767 159.733 336.178ZM193.532 314.308C196.826 311.014 196.826 305.673 193.532 302.379C190.238 299.085 184.897 299.085 181.603 302.379L165.697 318.285C162.403 321.579 162.403 326.92 165.697 330.214C168.992 333.508 174.332 333.508 177.626 330.214L193.532 314.308Z" fill="url(#paint45_linear_45_303)"/>
<path fill-rule="evenodd" clip-rule="evenodd" d="M180.447 381.357C173.858 374.769 173.858 364.087 180.447 357.499L196.352 341.594C202.94 335.005 213.622 335.005 220.21 341.594C226.799 348.182 226.799 358.864 220.21 365.452L204.305 381.357C197.717 387.945 187.035 387.945 180.447 381.357ZM214.246 359.487C217.54 356.193 217.54 350.852 214.246 347.558C210.952 344.264 205.611 344.264 202.317 347.558L186.411 363.464C183.117 366.758 183.117 372.099 186.411 375.393C189.705 378.687 195.046 378.687 198.34 375.393L214.246 359.487Z" fill="url(#paint46_linear_45_303)"/>
<path fill-rule="evenodd" clip-rule="evenodd" d="M159.733 409.95C153.145 403.362 153.145 392.68 159.733 386.092L175.638 370.186C182.227 363.598 192.908 363.598 199.497 370.186C206.085 376.775 206.085 387.456 199.497 394.045L183.591 409.95C177.003 416.538 166.321 416.538 159.733 409.95ZM193.532 388.08C196.826 384.786 196.826 379.445 193.532 376.151C190.238 372.857 184.897 372.857 181.603 376.151L165.697 392.056C162.403 395.351 162.403 400.691 165.697 403.985C168.992 407.28 174.332 407.28 177.626 403.985L193.532 388.08Z" fill="url(#paint47_linear_45_303)"/>
<path fill-rule="evenodd" clip-rule="evenodd" d="M180.447 455.129C173.858 448.541 173.858 437.859 180.447 431.271L196.352 415.365C202.94 408.777 213.622 408.777 220.21 415.365C226.799 421.954 226.799 432.635 220.21 439.224L204.305 455.129C197.717 461.717 187.035 461.717 180.447 455.129ZM214.246 433.259C217.54 429.965 217.54 424.624 214.246 421.33C210.952 418.036 205.611 418.036 202.317 421.33L186.411 437.235C183.117 440.529 183.117 445.87 186.411 449.164C189.705 452.459 195.046 452.459 198.34 449.164L214.246 433.259Z" fill="url(#paint48_linear_45_303)"/>
<path fill-rule="evenodd" clip-rule="evenodd" d="M159.733 483.722C153.145 477.134 153.145 466.452 159.733 459.864L175.638 443.958C182.227 437.37 192.908 437.37 199.497 443.958C206.085 450.546 206.085 461.228 199.497 467.816L183.591 483.722C177.003 490.31 166.321 490.31 159.733 483.722ZM193.532 461.852C196.826 458.558 196.826 453.217 193.532 449.923C190.238 446.629 184.897 446.629 181.603 449.923L165.697 465.828C162.403 469.122 162.403 474.463 165.697 477.757C168.992 481.051 174.332 481.051 177.626 477.757L193.532 461.852Z" fill="url(#paint49_linear_45_303)"/>
<path fill-rule="evenodd" clip-rule="evenodd" d="M180.447 528.901C173.858 522.312 173.858 511.631 180.447 505.043L196.352 489.137C202.94 482.549 213.622 482.549 220.21 489.137C226.799 495.725 226.799 506.407 220.21 512.995L204.305 528.901C197.717 535.489 187.035 535.489 180.447 528.901ZM214.246 507.031C217.54 503.737 217.54 498.396 214.246 495.102C210.952 491.808 205.611 491.808 202.317 495.102L186.411 511.007C183.117 514.301 183.117 519.642 186.411 522.936C189.705 526.23 195.046 526.23 198.34 522.936L214.246 507.031Z" fill="url(#paint50_linear_45_303)"/>
<path fill-rule="evenodd" clip-rule="evenodd" d="M159.733 557.494C153.145 550.905 153.145 540.224 159.733 533.635L175.638 517.73C182.227 511.142 192.908 511.142 199.497 517.73C206.085 524.318 206.085 535 199.497 541.588L183.591 557.494C177.003 564.082 166.321 564.082 159.733 557.494ZM193.532 535.624C196.826 532.329 196.826 526.989 193.532 523.695C190.238 520.4 184.897 520.4 181.603 523.695L165.697 539.6C162.403 542.894 162.403 548.235 165.697 551.529C168.992 554.823 174.332 554.823 177.626 551.529L193.532 535.624Z" fill="url(#paint51_linear_45_303)"/>
<path fill-rule="evenodd" clip-rule="evenodd" d="M180.447 602.673C173.858 596.084 173.858 585.403 180.447 578.814L196.352 562.909C202.94 556.321 213.622 556.321 220.21 562.909C226.799 569.497 226.799 580.179 220.21 586.767L204.305 602.673C197.717 609.261 187.035 609.261 180.447 602.673ZM214.246 580.803C217.54 577.508 217.54 572.168 214.246 568.873C210.952 565.579 205.611 565.579 202.317 568.873L186.411 584.779C183.117 588.073 183.117 593.414 186.411 596.708C189.705 600.002 195.046 600.002 198.34 596.708L214.246 580.803Z" fill="url(#paint52_linear_45_303)"/>
<path fill-rule="evenodd" clip-rule="evenodd" d="M159.733 631.265C153.145 624.677 153.145 613.995 159.733 607.407L175.638 591.502C182.227 584.913 192.908 584.913 199.497 591.502C206.085 598.09 206.085 608.772 199.497 615.36L183.591 631.265C177.003 637.854 166.321 637.854 159.733 631.265ZM193.532 609.395C196.826 606.101 196.826 600.76 193.532 597.466C190.238 594.172 184.897 594.172 181.603 597.466L165.697 613.372C162.403 616.666 162.403 622.007 165.697 625.301C168.992 628.595 174.332 628.595 177.626 625.301L193.532 609.395Z" fill="url(#paint53_linear_45_303)"/>
<path fill-rule="evenodd" clip-rule="evenodd" d="M103.051 12.4983C96.4626 5.91004 96.4626 -4.77166 103.051 -11.3599L118.956 -27.2654C125.545 -33.8536 136.226 -33.8536 142.815 -27.2654C149.403 -20.6771 149.403 -9.99539 142.815 -3.40712L126.909 12.4983C120.321 19.0866 109.639 19.0866 103.051 12.4983ZM136.85 -9.3717C140.144 -12.6658 140.144 -18.0067 136.85 -21.3008C133.556 -24.5949 128.215 -24.5949 124.921 -21.3008L109.015 -5.39535C105.721 -2.10122 105.721 3.2396 109.015 6.53373C112.31 9.82785 117.65 9.82785 120.944 6.53373L136.85 -9.3717Z" fill="url(#paint54_linear_45_303)"/>
<path fill-rule="evenodd" clip-rule="evenodd" d="M82.3371 41.0911C75.7488 34.5029 75.7488 23.8212 82.3371 17.2329L98.2425 1.32747C104.831 -5.26079 115.512 -5.26079 122.101 1.32748C128.689 7.91575 128.689 18.5974 122.101 25.1857L106.195 41.0911C99.607 47.6794 88.9254 47.6794 82.3371 41.0911ZM116.136 19.2211C119.43 15.927 119.43 10.5862 116.136 7.29205C112.842 3.99793 107.501 3.99793 104.207 7.29205L88.3016 23.1975C85.0074 26.4916 85.0074 31.8324 88.3016 35.1266C91.5957 38.4207 96.9365 38.4207 100.231 35.1266L116.136 19.2211Z" fill="url(#paint55_linear_45_303)"/>
<path fill-rule="evenodd" clip-rule="evenodd" d="M103.051 86.2701C96.4626 79.6818 96.4626 69.0001 103.051 62.4119L118.956 46.5064C125.545 39.9182 136.226 39.9182 142.815 46.5064C149.403 53.0947 149.403 63.7764 142.815 70.3647L126.909 86.2701C120.321 92.8584 109.639 92.8583 103.051 86.2701ZM136.85 64.4001C140.144 61.106 140.144 55.7651 136.85 52.471C133.556 49.1769 128.215 49.1769 124.921 52.471L109.015 68.3764C105.721 71.6706 105.721 77.0114 109.015 80.3055C112.31 83.5996 117.65 83.5996 120.944 80.3055L136.85 64.4001Z" fill="url(#paint56_linear_45_303)"/>
<path fill-rule="evenodd" clip-rule="evenodd" d="M82.3371 114.863C75.7488 108.275 75.7488 97.5929 82.3371 91.0047L98.2425 75.0993C104.831 68.511 115.512 68.511 122.101 75.0993C128.689 81.6875 128.689 92.3692 122.101 98.9575L106.195 114.863C99.607 121.451 88.9253 121.451 82.3371 114.863ZM116.136 92.9929C119.43 89.6988 119.43 84.358 116.136 81.0638C112.842 77.7697 107.501 77.7697 104.207 81.0638L88.3016 96.9693C85.0074 100.263 85.0074 105.604 88.3016 108.898C91.5957 112.192 96.9365 112.192 100.231 108.898L116.136 92.9929Z" fill="url(#paint57_linear_45_303)"/>
<path fill-rule="evenodd" clip-rule="evenodd" d="M103.051 160.042C96.4626 153.454 96.4626 142.772 103.051 136.184L118.956 120.278C125.545 113.69 136.226 113.69 142.815 120.278C149.403 126.866 149.403 137.548 142.815 144.136L126.909 160.042C120.321 166.63 109.639 166.63 103.051 160.042ZM136.85 138.172C140.144 134.878 140.144 129.537 136.85 126.243C133.556 122.949 128.215 122.949 124.921 126.243L109.015 142.148C105.721 145.442 105.721 150.783 109.015 154.077C112.31 157.371 117.65 157.371 120.944 154.077L136.85 138.172Z" fill="url(#paint58_linear_45_303)"/>
<path fill-rule="evenodd" clip-rule="evenodd" d="M82.3371 188.635C75.7488 182.046 75.7488 171.365 82.3371 164.776L98.2425 148.871C104.831 142.283 115.512 142.283 122.101 148.871C128.689 155.459 128.689 166.141 122.101 172.729L106.195 188.635C99.607 195.223 88.9253 195.223 82.3371 188.635ZM116.136 166.765C119.43 163.471 119.43 158.13 116.136 154.836C112.842 151.541 107.501 151.541 104.207 154.836L88.3016 170.741C85.0074 174.035 85.0074 179.376 88.3016 182.67C91.5957 185.964 96.9365 185.964 100.231 182.67L116.136 166.765Z" fill="url(#paint59_linear_45_303)"/>
<path fill-rule="evenodd" clip-rule="evenodd" d="M103.051 233.814C96.4626 227.225 96.4626 216.544 103.051 209.955L118.956 194.05C125.545 187.462 136.226 187.462 142.815 194.05C149.403 200.638 149.403 211.32 142.815 217.908L126.909 233.814C120.321 240.402 109.639 240.402 103.051 233.814ZM136.85 211.944C140.144 208.65 140.144 203.309 136.85 200.015C133.556 196.72 128.215 196.72 124.921 200.015L109.015 215.92C105.721 219.214 105.721 224.555 109.015 227.849C112.309 231.143 117.65 231.143 120.944 227.849L136.85 211.944Z" fill="url(#paint60_linear_45_303)"/>
<path fill-rule="evenodd" clip-rule="evenodd" d="M82.3371 262.406C75.7488 255.818 75.7488 245.137 82.3371 238.548L98.2425 222.643C104.831 216.055 115.512 216.055 122.101 222.643C128.689 229.231 128.689 239.913 122.101 246.501L106.195 262.406C99.607 268.995 88.9253 268.995 82.3371 262.406ZM116.136 240.536C119.43 237.242 119.43 231.902 116.136 228.607C112.842 225.313 107.501 225.313 104.207 228.607L88.3016 244.513C85.0074 247.807 85.0074 253.148 88.3016 256.442C91.5957 259.736 96.9365 259.736 100.231 256.442L116.136 240.536Z" fill="url(#paint61_linear_45_303)"/>
<path fill-rule="evenodd" clip-rule="evenodd" d="M103.051 307.585C96.4626 300.997 96.4626 290.315 103.051 283.727L118.956 267.822C125.545 261.233 136.226 261.234 142.815 267.822C149.403 274.41 149.403 285.092 142.815 291.68L126.909 307.585C120.321 314.174 109.639 314.174 103.051 307.585ZM136.85 285.715C140.144 282.421 140.144 277.08 136.85 273.786C133.556 270.492 128.215 270.492 124.921 273.786L109.015 289.692C105.721 292.986 105.721 298.327 109.015 301.621C112.309 304.915 117.65 304.915 120.944 301.621L136.85 285.715Z" fill="url(#paint62_linear_45_303)"/>
<path fill-rule="evenodd" clip-rule="evenodd" d="M82.3371 336.178C75.7488 329.59 75.7488 318.908 82.3371 312.32L98.2425 296.415C104.831 289.826 115.512 289.826 122.101 296.415C128.689 303.003 128.689 313.685 122.101 320.273L106.195 336.178C99.607 342.767 88.9253 342.767 82.3371 336.178ZM116.136 314.308C119.43 311.014 119.43 305.673 116.136 302.379C112.842 299.085 107.501 299.085 104.207 302.379L88.3016 318.285C85.0074 321.579 85.0074 326.92 88.3016 330.214C91.5957 333.508 96.9365 333.508 100.231 330.214L116.136 314.308Z" fill="url(#paint63_linear_45_303)"/>
<path fill-rule="evenodd" clip-rule="evenodd" d="M103.051 381.357C96.4626 374.769 96.4626 364.087 103.051 357.499L118.956 341.594C125.545 335.005 136.226 335.005 142.815 341.594C149.403 348.182 149.403 358.864 142.815 365.452L126.909 381.357C120.321 387.945 109.639 387.945 103.051 381.357ZM136.85 359.487C140.144 356.193 140.144 350.852 136.85 347.558C133.556 344.264 128.215 344.264 124.921 347.558L109.015 363.464C105.721 366.758 105.721 372.098 109.015 375.393C112.309 378.687 117.65 378.687 120.944 375.393L136.85 359.487Z" fill="url(#paint64_linear_45_303)"/>
<path fill-rule="evenodd" clip-rule="evenodd" d="M82.337 409.95C75.7488 403.362 75.7488 392.68 82.337 386.092L98.2425 370.186C104.831 363.598 115.512 363.598 122.101 370.186C128.689 376.775 128.689 387.456 122.101 394.045L106.195 409.95C99.607 416.538 88.9253 416.538 82.337 409.95ZM116.136 388.08C119.43 384.786 119.43 379.445 116.136 376.151C112.842 372.857 107.501 372.857 104.207 376.151L88.3016 392.056C85.0074 395.351 85.0074 400.691 88.3016 403.985C91.5957 407.28 96.9365 407.28 100.231 403.985L116.136 388.08Z" fill="url(#paint65_linear_45_303)"/>
<path fill-rule="evenodd" clip-rule="evenodd" d="M103.051 455.129C96.4626 448.541 96.4626 437.859 103.051 431.271L118.956 415.365C125.545 408.777 136.226 408.777 142.815 415.365C149.403 421.954 149.403 432.635 142.815 439.224L126.909 455.129C120.321 461.717 109.639 461.717 103.051 455.129ZM136.85 433.259C140.144 429.965 140.144 424.624 136.85 421.33C133.556 418.036 128.215 418.036 124.921 421.33L109.015 437.235C105.721 440.529 105.721 445.87 109.015 449.164C112.309 452.459 117.65 452.459 120.944 449.164L136.85 433.259Z" fill="url(#paint66_linear_45_303)"/>
<path fill-rule="evenodd" clip-rule="evenodd" d="M82.337 483.722C75.7488 477.134 75.7488 466.452 82.337 459.864L98.2425 443.958C104.831 437.37 115.512 437.37 122.101 443.958C128.689 450.546 128.689 461.228 122.101 467.816L106.195 483.722C99.607 490.31 88.9253 490.31 82.337 483.722ZM116.136 461.852C119.43 458.558 119.43 453.217 116.136 449.923C112.842 446.629 107.501 446.629 104.207 449.923L88.3016 465.828C85.0074 469.122 85.0074 474.463 88.3016 477.757C91.5957 481.051 96.9365 481.051 100.231 477.757L116.136 461.852Z" fill="url(#paint67_linear_45_303)"/>
<path fill-rule="evenodd" clip-rule="evenodd" d="M103.051 528.901C96.4626 522.312 96.4626 511.631 103.051 505.043L118.956 489.137C125.545 482.549 136.226 482.549 142.815 489.137C149.403 495.725 149.403 506.407 142.815 512.995L126.909 528.901C120.321 535.489 109.639 535.489 103.051 528.901ZM136.85 507.031C140.144 503.737 140.144 498.396 136.85 495.102C133.556 491.808 128.215 491.808 124.921 495.102L109.015 511.007C105.721 514.301 105.721 519.642 109.015 522.936C112.309 526.23 117.65 526.23 120.944 522.936L136.85 507.031Z" fill="url(#paint68_linear_45_303)"/>
<path fill-rule="evenodd" clip-rule="evenodd" d="M82.337 557.494C75.7488 550.905 75.7488 540.224 82.337 533.635L98.2425 517.73C104.831 511.142 115.512 511.142 122.101 517.73C128.689 524.318 128.689 535 122.101 541.588L106.195 557.494C99.607 564.082 88.9253 564.082 82.337 557.494ZM116.136 535.624C119.43 532.329 119.43 526.989 116.136 523.695C112.842 520.4 107.501 520.4 104.207 523.695L88.3015 539.6C85.0074 542.894 85.0074 548.235 88.3015 551.529C91.5957 554.823 96.9365 554.823 100.231 551.529L116.136 535.624Z" fill="url(#paint69_linear_45_303)"/>
<path fill-rule="evenodd" clip-rule="evenodd" d="M103.051 602.673C96.4626 596.084 96.4626 585.403 103.051 578.814L118.956 562.909C125.545 556.321 136.226 556.321 142.815 562.909C149.403 569.497 149.403 580.179 142.815 586.767L126.909 602.673C120.321 609.261 109.639 609.261 103.051 602.673ZM136.85 580.803C140.144 577.508 140.144 572.168 136.85 568.873C133.556 565.579 128.215 565.579 124.921 568.873L109.015 584.779C105.721 588.073 105.721 593.414 109.015 596.708C112.309 600.002 117.65 600.002 120.944 596.708L136.85 580.803Z" fill="url(#paint70_linear_45_303)"/>
<path fill-rule="evenodd" clip-rule="evenodd" d="M82.337 631.265C75.7488 624.677 75.7488 613.995 82.337 607.407L98.2425 591.502C104.831 584.913 115.512 584.913 122.101 591.502C128.689 598.09 128.689 608.772 122.101 615.36L106.195 631.265C99.607 637.854 88.9253 637.854 82.337 631.265ZM116.136 609.395C119.43 606.101 119.43 600.76 116.136 597.466C112.842 594.172 107.501 594.172 104.207 597.466L88.3015 613.372C85.0074 616.666 85.0074 622.007 88.3015 625.301C91.5957 628.595 96.9365 628.595 100.231 625.301L116.136 609.395Z" fill="url(#paint71_linear_45_303)"/>
<path fill-rule="evenodd" clip-rule="evenodd" d="M25.655 12.4983C19.0667 5.91003 19.0667 -4.77166 25.655 -11.3599L41.5605 -27.2654C48.1487 -33.8536 58.8304 -33.8536 65.4187 -27.2654C72.007 -20.6771 72.007 -9.99539 65.4187 -3.40713L49.5132 12.4983C42.925 19.0866 32.2433 19.0866 25.655 12.4983ZM59.454 -9.37171C62.7481 -12.6658 62.7481 -18.0067 59.454 -21.3008C56.1599 -24.5949 50.8191 -24.5949 47.525 -21.3008L31.6195 -5.39535C28.3254 -2.10123 28.3254 3.2396 31.6195 6.53373C34.9137 9.82785 40.2545 9.82785 43.5486 6.53373L59.454 -9.37171Z" fill="url(#paint72_linear_45_303)"/>
<path fill-rule="evenodd" clip-rule="evenodd" d="M4.94122 41.0911C-1.64707 34.5029 -1.64707 23.8212 4.94122 17.2329L20.8466 1.32747C27.4349 -5.2608 38.1166 -5.26079 44.7049 1.32747C51.2932 7.91574 51.2931 18.5974 44.7049 25.1857L28.7994 41.0911C22.2112 47.6794 11.5295 47.6794 4.94122 41.0911ZM38.7402 19.2211C42.0343 15.927 42.0343 10.5862 38.7402 7.29205C35.4461 3.99793 30.1053 3.99792 26.8111 7.29205L10.9057 23.1975C7.61157 26.4916 7.61157 31.8324 10.9057 35.1266C14.1998 38.4207 19.5406 38.4207 22.8348 35.1266L38.7402 19.2211Z" fill="url(#paint73_linear_45_303)"/>
<path fill-rule="evenodd" clip-rule="evenodd" d="M25.655 86.2701C19.0667 79.6818 19.0667 69.0001 25.655 62.4119L41.5605 46.5064C48.1487 39.9182 58.8304 39.9182 65.4187 46.5064C72.007 53.0947 72.007 63.7764 65.4187 70.3646L49.5132 86.2701C42.925 92.8584 32.2433 92.8583 25.655 86.2701ZM59.454 64.4001C62.7481 61.106 62.7481 55.7651 59.454 52.471C56.1599 49.1769 50.8191 49.1769 47.525 52.471L31.6195 68.3764C28.3254 71.6706 28.3254 77.0114 31.6195 80.3055C34.9137 83.5996 40.2545 83.5996 43.5486 80.3055L59.454 64.4001Z" fill="url(#paint74_linear_45_303)"/>
<path fill-rule="evenodd" clip-rule="evenodd" d="M4.94122 114.863C-1.64707 108.275 -1.64707 97.5929 4.94122 91.0047L20.8466 75.0993C27.4349 68.511 38.1166 68.511 44.7049 75.0993C51.2931 81.6875 51.2931 92.3692 44.7049 98.9575L28.7994 114.863C22.2112 121.451 11.5295 121.451 4.94122 114.863ZM38.7402 92.9929C42.0343 89.6988 42.0343 84.3579 38.7402 81.0638C35.4461 77.7697 30.1053 77.7697 26.8111 81.0638L10.9057 96.9693C7.61157 100.263 7.61157 105.604 10.9057 108.898C14.1998 112.192 19.5406 112.192 22.8348 108.898L38.7402 92.9929Z" fill="url(#paint75_linear_45_303)"/>
<path fill-rule="evenodd" clip-rule="evenodd" d="M25.655 160.042C19.0667 153.454 19.0667 142.772 25.655 136.184L41.5604 120.278C48.1487 113.69 58.8304 113.69 65.4187 120.278C72.007 126.866 72.007 137.548 65.4187 144.136L49.5132 160.042C42.925 166.63 32.2433 166.63 25.655 160.042ZM59.454 138.172C62.7481 134.878 62.7481 129.537 59.454 126.243C56.1599 122.949 50.8191 122.949 47.525 126.243L31.6195 142.148C28.3254 145.442 28.3254 150.783 31.6195 154.077C34.9137 157.371 40.2545 157.371 43.5486 154.077L59.454 138.172Z" fill="url(#paint76_linear_45_303)"/>
<path fill-rule="evenodd" clip-rule="evenodd" d="M4.94121 188.635C-1.64707 182.046 -1.64707 171.365 4.94121 164.776L20.8466 148.871C27.4349 142.283 38.1166 142.283 44.7049 148.871C51.2931 155.459 51.2931 166.141 44.7049 172.729L28.7994 188.635C22.2112 195.223 11.5295 195.223 4.94121 188.635ZM38.7402 166.765C42.0343 163.471 42.0343 158.13 38.7402 154.836C35.4461 151.541 30.1052 151.541 26.8111 154.836L10.9057 170.741C7.61156 174.035 7.61156 179.376 10.9057 182.67C14.1998 185.964 19.5406 185.964 22.8348 182.67L38.7402 166.765Z" fill="url(#paint77_linear_45_303)"/>
<path fill-rule="evenodd" clip-rule="evenodd" d="M25.655 233.814C19.0667 227.225 19.0667 216.544 25.655 209.955L41.5604 194.05C48.1487 187.462 58.8304 187.462 65.4187 194.05C72.0069 200.638 72.0069 211.32 65.4187 217.908L49.5132 233.814C42.925 240.402 32.2433 240.402 25.655 233.814ZM59.454 211.944C62.7481 208.65 62.7481 203.309 59.454 200.015C56.1599 196.72 50.8191 196.72 47.525 200.015L31.6195 215.92C28.3254 219.214 28.3254 224.555 31.6195 227.849C34.9137 231.143 40.2545 231.143 43.5486 227.849L59.454 211.944Z" fill="url(#paint78_linear_45_303)"/>
<path fill-rule="evenodd" clip-rule="evenodd" d="M4.94121 262.406C-1.64708 255.818 -1.64708 245.137 4.94121 238.548L20.8466 222.643C27.4349 216.055 38.1166 216.055 44.7049 222.643C51.2931 229.231 51.2931 239.913 44.7049 246.501L28.7994 262.406C22.2112 268.995 11.5295 268.995 4.94121 262.406ZM38.7402 240.536C42.0343 237.242 42.0343 231.902 38.7402 228.607C35.4461 225.313 30.1052 225.313 26.8111 228.607L10.9057 244.513C7.61156 247.807 7.61156 253.148 10.9057 256.442C14.1998 259.736 19.5406 259.736 22.8348 256.442L38.7402 240.536Z" fill="url(#paint79_linear_45_303)"/>
<path fill-rule="evenodd" clip-rule="evenodd" d="M25.655 307.585C19.0667 300.997 19.0667 290.315 25.655 283.727L41.5604 267.822C48.1487 261.233 58.8304 261.234 65.4187 267.822C72.0069 274.41 72.0069 285.092 65.4187 291.68L49.5132 307.585C42.925 314.174 32.2433 314.174 25.655 307.585ZM59.454 285.715C62.7481 282.421 62.7481 277.08 59.454 273.786C56.1599 270.492 50.819 270.492 47.525 273.786L31.6195 289.692C28.3254 292.986 28.3254 298.327 31.6195 301.621C34.9137 304.915 40.2545 304.915 43.5486 301.621L59.454 285.715Z" fill="url(#paint80_linear_45_303)"/>
<path fill-rule="evenodd" clip-rule="evenodd" d="M4.94121 336.178C-1.64708 329.59 -1.64708 318.908 4.94121 312.32L20.8466 296.415C27.4349 289.826 38.1166 289.826 44.7049 296.415C51.2931 303.003 51.2931 313.685 44.7049 320.273L28.7994 336.178C22.2112 342.767 11.5295 342.767 4.94121 336.178ZM38.7402 314.308C42.0343 311.014 42.0343 305.673 38.7402 302.379C35.4461 299.085 30.1052 299.085 26.8111 302.379L10.9057 318.285C7.61156 321.579 7.61156 326.92 10.9057 330.214C14.1998 333.508 19.5406 333.508 22.8348 330.214L38.7402 314.308Z" fill="url(#paint81_linear_45_303)"/>
<path fill-rule="evenodd" clip-rule="evenodd" d="M25.655 381.357C19.0667 374.769 19.0667 364.087 25.655 357.499L41.5604 341.594C48.1487 335.005 58.8304 335.005 65.4187 341.594C72.0069 348.182 72.0069 358.864 65.4187 365.452L49.5132 381.357C42.925 387.945 32.2433 387.945 25.655 381.357ZM59.454 359.487C62.7481 356.193 62.7481 350.852 59.454 347.558C56.1599 344.264 50.819 344.264 47.5249 347.558L31.6195 363.464C28.3254 366.758 28.3254 372.098 31.6195 375.393C34.9136 378.687 40.2545 378.687 43.5486 375.393L59.454 359.487Z" fill="url(#paint82_linear_45_303)"/>
<path fill-rule="evenodd" clip-rule="evenodd" d="M4.9412 409.95C-1.64708 403.362 -1.64708 392.68 4.9412 386.092L20.8466 370.186C27.4349 363.598 38.1166 363.598 44.7049 370.186C51.2931 376.775 51.2931 387.456 44.7049 394.045L28.7994 409.95C22.2112 416.538 11.5295 416.538 4.9412 409.95ZM38.7402 388.08C42.0343 384.786 42.0343 379.445 38.7402 376.151C35.4461 372.857 30.1052 372.857 26.8111 376.151L10.9057 392.056C7.61155 395.351 7.61155 400.691 10.9057 403.985C14.1998 407.28 19.5406 407.28 22.8348 403.985L38.7402 388.08Z" fill="url(#paint83_linear_45_303)"/>
<path fill-rule="evenodd" clip-rule="evenodd" d="M25.655 455.129C19.0667 448.541 19.0667 437.859 25.655 431.271L41.5604 415.365C48.1487 408.777 58.8304 408.777 65.4187 415.365C72.0069 421.954 72.0069 432.635 65.4187 439.224L49.5132 455.129C42.925 461.717 32.2433 461.717 25.655 455.129ZM59.454 433.259C62.7481 429.965 62.7481 424.624 59.454 421.33C56.1599 418.036 50.819 418.036 47.5249 421.33L31.6195 437.235C28.3254 440.529 28.3254 445.87 31.6195 449.164C34.9136 452.459 40.2545 452.459 43.5486 449.164L59.454 433.259Z" fill="url(#paint84_linear_45_303)"/>
<path fill-rule="evenodd" clip-rule="evenodd" d="M4.9412 483.722C-1.64709 477.134 -1.64709 466.452 4.9412 459.864L20.8466 443.958C27.4349 437.37 38.1166 437.37 44.7049 443.958C51.2931 450.546 51.2931 461.228 44.7049 467.816L28.7994 483.722C22.2112 490.31 11.5295 490.31 4.9412 483.722ZM38.7402 461.852C42.0343 458.558 42.0343 453.217 38.7402 449.923C35.4461 446.629 30.1052 446.629 26.8111 449.923L10.9057 465.828C7.61155 469.122 7.61155 474.463 10.9057 477.757C14.1998 481.051 19.5406 481.051 22.8348 477.757L38.7402 461.852Z" fill="url(#paint85_linear_45_303)"/>
<path fill-rule="evenodd" clip-rule="evenodd" d="M25.655 528.901C19.0667 522.312 19.0667 511.631 25.655 505.043L41.5604 489.137C48.1487 482.549 58.8304 482.549 65.4186 489.137C72.0069 495.725 72.0069 506.407 65.4186 512.995L49.5132 528.901C42.925 535.489 32.2433 535.489 25.655 528.901ZM59.454 507.031C62.7481 503.737 62.7481 498.396 59.454 495.102C56.1599 491.808 50.819 491.808 47.5249 495.102L31.6195 511.007C28.3254 514.301 28.3254 519.642 31.6195 522.936C34.9136 526.23 40.2545 526.23 43.5486 522.936L59.454 507.031Z" fill="url(#paint86_linear_45_303)"/>
<path fill-rule="evenodd" clip-rule="evenodd" d="M4.9412 557.494C-1.64709 550.905 -1.64709 540.224 4.9412 533.635L20.8466 517.73C27.4349 511.142 38.1166 511.142 44.7049 517.73C51.2931 524.318 51.2931 535 44.7049 541.588L28.7994 557.494C22.2112 564.082 11.5295 564.082 4.9412 557.494ZM38.7402 535.624C42.0343 532.329 42.0343 526.989 38.7402 523.695C35.4461 520.4 30.1052 520.4 26.8111 523.695L10.9057 539.6C7.61155 542.894 7.61155 548.235 10.9057 551.529C14.1998 554.823 19.5406 554.823 22.8348 551.529L38.7402 535.624Z" fill="url(#paint87_linear_45_303)"/>
<path fill-rule="evenodd" clip-rule="evenodd" d="M25.655 602.673C19.0667 596.084 19.0667 585.403 25.655 578.814L41.5604 562.909C48.1487 556.321 58.8304 556.321 65.4186 562.909C72.0069 569.497 72.0069 580.179 65.4186 586.767L49.5132 602.673C42.925 609.261 32.2433 609.261 25.655 602.673ZM59.454 580.803C62.7481 577.508 62.7481 572.168 59.454 568.873C56.1599 565.579 50.819 565.579 47.5249 568.873L31.6195 584.779C28.3254 588.073 28.3254 593.414 31.6195 596.708C34.9136 600.002 40.2545 600.002 43.5486 596.708L59.454 580.803Z" fill="url(#paint88_linear_45_303)"/>
<path fill-rule="evenodd" clip-rule="evenodd" d="M4.94119 631.265C-1.64709 624.677 -1.64709 613.995 4.9412 607.407L20.8466 591.502C27.4349 584.913 38.1166 584.913 44.7049 591.502C51.2931 598.09 51.2931 608.772 44.7049 615.36L28.7994 631.265C22.2112 637.854 11.5295 637.854 4.94119 631.265ZM38.7402 609.395C42.0343 606.101 42.0343 600.76 38.7402 597.466C35.4461 594.172 30.1052 594.172 26.8111 597.466L10.9057 613.372C7.61154 616.666 7.61154 622.007 10.9057 625.301C14.1998 628.595 19.5406 628.595 22.8347 625.301L38.7402 609.395Z" fill="url(#paint89_linear_45_303)"/>
<defs>
<linearGradient id="paint0_linear_45_303" x1="379.943" y1="302" x2="-1.46086e-05" y2="302" gradientUnits="userSpaceOnUse">
<stop stop-color="#FF9720"/>
<stop offset="1" stop-color="white" stop-opacity="0"/>
</linearGradient>
<linearGradient id="paint1_linear_45_303" x1="379.943" y1="302" x2="-1.46086e-05" y2="302" gradientUnits="userSpaceOnUse">
<stop stop-color="#FF9720"/>
<stop offset="1" stop-color="white" stop-opacity="0"/>
</linearGradient>
<linearGradient id="paint2_linear_45_303" x1="379.943" y1="302" x2="-1.46086e-05" y2="302" gradientUnits="userSpaceOnUse">
<stop stop-color="#FF9720"/>
<stop offset="1" stop-color="white" stop-opacity="0"/>
</linearGradient>
<linearGradient id="paint3_linear_45_303" x1="379.943" y1="302" x2="-1.46086e-05" y2="302" gradientUnits="userSpaceOnUse">
<stop stop-color="#FF9720"/>
<stop offset="1" stop-color="white" stop-opacity="0"/>
</linearGradient>
<linearGradient id="paint4_linear_45_303" x1="379.943" y1="302" x2="-1.46086e-05" y2="302" gradientUnits="userSpaceOnUse">
<stop stop-color="#FF9720"/>
<stop offset="1" stop-color="white" stop-opacity="0"/>
</linearGradient>
<linearGradient id="paint5_linear_45_303" x1="379.943" y1="302" x2="-1.46086e-05" y2="302" gradientUnits="userSpaceOnUse">
<stop stop-color="#FF9720"/>
<stop offset="1" stop-color="white" stop-opacity="0"/>
</linearGradient>
<linearGradient id="paint6_linear_45_303" x1="379.943" y1="302" x2="-1.46086e-05" y2="302" gradientUnits="userSpaceOnUse">
<stop stop-color="#FF9720"/>
<stop offset="1" stop-color="white" stop-opacity="0"/>
</linearGradient>
<linearGradient id="paint7_linear_45_303" x1="379.943" y1="302" x2="-1.46086e-05" y2="302" gradientUnits="userSpaceOnUse">
<stop stop-color="#FF9720"/>
<stop offset="1" stop-color="white" stop-opacity="0"/>
</linearGradient>
<linearGradient id="paint8_linear_45_303" x1="379.943" y1="302" x2="-1.46086e-05" y2="302" gradientUnits="userSpaceOnUse">
<stop stop-color="#FF9720"/>
<stop offset="1" stop-color="white" stop-opacity="0"/>
</linearGradient>
<linearGradient id="paint9_linear_45_303" x1="379.943" y1="302" x2="-1.46086e-05" y2="302" gradientUnits="userSpaceOnUse">
<stop stop-color="#FF9720"/>
<stop offset="1" stop-color="white" stop-opacity="0"/>
</linearGradient>
<linearGradient id="paint10_linear_45_303" x1="379.943" y1="302" x2="-1.46086e-05" y2="302" gradientUnits="userSpaceOnUse">
<stop stop-color="#FF9720"/>
<stop offset="1" stop-color="white" stop-opacity="0"/>
</linearGradient>
<linearGradient id="paint11_linear_45_303" x1="379.943" y1="302" x2="-1.46086e-05" y2="302" gradientUnits="userSpaceOnUse">
<stop stop-color="#FF9720"/>
<stop offset="1" stop-color="white" stop-opacity="0"/>
</linearGradient>
<linearGradient id="paint12_linear_45_303" x1="379.943" y1="302" x2="-1.46086e-05" y2="302" gradientUnits="userSpaceOnUse">
<stop stop-color="#FF9720"/>
<stop offset="1" stop-color="white" stop-opacity="0"/>
</linearGradient>
<linearGradient id="paint13_linear_45_303" x1="379.943" y1="302" x2="-1.46086e-05" y2="302" gradientUnits="userSpaceOnUse">
<stop stop-color="#FF9720"/>
<stop offset="1" stop-color="white" stop-opacity="0"/>
</linearGradient>
<linearGradient id="paint14_linear_45_303" x1="379.943" y1="302" x2="-1.46086e-05" y2="302" gradientUnits="userSpaceOnUse">
<stop stop-color="#FF9720"/>
<stop offset="1" stop-color="white" stop-opacity="0"/>
</linearGradient>
<linearGradient id="paint15_linear_45_303" x1="379.943" y1="302" x2="-1.46086e-05" y2="302" gradientUnits="userSpaceOnUse">
<stop stop-color="#FF9720"/>
<stop offset="1" stop-color="white" stop-opacity="0"/>
</linearGradient>
<linearGradient id="paint16_linear_45_303" x1="379.943" y1="302" x2="-1.46086e-05" y2="302" gradientUnits="userSpaceOnUse">
<stop stop-color="#FF9720"/>
<stop offset="1" stop-color="white" stop-opacity="0"/>
</linearGradient>
<linearGradient id="paint17_linear_45_303" x1="379.943" y1="302" x2="-1.46086e-05" y2="302" gradientUnits="userSpaceOnUse">
<stop stop-color="#FF9720"/>
<stop offset="1" stop-color="white" stop-opacity="0"/>
</linearGradient>
<linearGradient id="paint18_linear_45_303" x1="379.943" y1="302" x2="-1.46086e-05" y2="302" gradientUnits="userSpaceOnUse">
<stop stop-color="#FF9720"/>
<stop offset="1" stop-color="white" stop-opacity="0"/>
</linearGradient>
<linearGradient id="paint19_linear_45_303" x1="379.943" y1="302" x2="-1.46086e-05" y2="302" gradientUnits="userSpaceOnUse">
<stop stop-color="#FF9720"/>
<stop offset="1" stop-color="white" stop-opacity="0"/>
</linearGradient>
<linearGradient id="paint20_linear_45_303" x1="379.943" y1="302" x2="-1.46086e-05" y2="302" gradientUnits="userSpaceOnUse">
<stop stop-color="#FF9720"/>
<stop offset="1" stop-color="white" stop-opacity="0"/>
</linearGradient>
<linearGradient id="paint21_linear_45_303" x1="379.943" y1="302" x2="-1.46086e-05" y2="302" gradientUnits="userSpaceOnUse">
<stop stop-color="#FF9720"/>
<stop offset="1" stop-color="white" stop-opacity="0"/>
</linearGradient>
<linearGradient id="paint22_linear_45_303" x1="379.943" y1="302" x2="-1.46086e-05" y2="302" gradientUnits="userSpaceOnUse">
<stop stop-color="#FF9720"/>
<stop offset="1" stop-color="white" stop-opacity="0"/>
</linearGradient>
<linearGradient id="paint23_linear_45_303" x1="379.943" y1="302" x2="-1.46086e-05" y2="302" gradientUnits="userSpaceOnUse">
<stop stop-color="#FF9720"/>
<stop offset="1" stop-color="white" stop-opacity="0"/>
</linearGradient>
<linearGradient id="paint24_linear_45_303" x1="379.943" y1="302" x2="-1.46086e-05" y2="302" gradientUnits="userSpaceOnUse">
<stop stop-color="#FF9720"/>
<stop offset="1" stop-color="white" stop-opacity="0"/>
</linearGradient>
<linearGradient id="paint25_linear_45_303" x1="379.943" y1="302" x2="-1.46086e-05" y2="302" gradientUnits="userSpaceOnUse">
<stop stop-color="#FF9720"/>
<stop offset="1" stop-color="white" stop-opacity="0"/>
</linearGradient>
<linearGradient id="paint26_linear_45_303" x1="379.943" y1="302" x2="-1.46086e-05" y2="302" gradientUnits="userSpaceOnUse">
<stop stop-color="#FF9720"/>
<stop offset="1" stop-color="white" stop-opacity="0"/>
</linearGradient>
<linearGradient id="paint27_linear_45_303" x1="379.943" y1="302" x2="-1.46086e-05" y2="302" gradientUnits="userSpaceOnUse">
<stop stop-color="#FF9720"/>
<stop offset="1" stop-color="white" stop-opacity="0"/>
</linearGradient>
<linearGradient id="paint28_linear_45_303" x1="379.943" y1="302" x2="-1.46086e-05" y2="302" gradientUnits="userSpaceOnUse">
<stop stop-color="#FF9720"/>
<stop offset="1" stop-color="white" stop-opacity="0"/>
</linearGradient>
<linearGradient id="paint29_linear_45_303" x1="379.943" y1="302" x2="-1.46086e-05" y2="302" gradientUnits="userSpaceOnUse">
<stop stop-color="#FF9720"/>
<stop offset="1" stop-color="white" stop-opacity="0"/>
</linearGradient>
<linearGradient id="paint30_linear_45_303" x1="379.943" y1="302" x2="-1.46086e-05" y2="302" gradientUnits="userSpaceOnUse">
<stop stop-color="#FF9720"/>
<stop offset="1" stop-color="white" stop-opacity="0"/>
</linearGradient>
<linearGradient id="paint31_linear_45_303" x1="379.943" y1="302" x2="-1.46086e-05" y2="302" gradientUnits="userSpaceOnUse">
<stop stop-color="#FF9720"/>
<stop offset="1" stop-color="white" stop-opacity="0"/>
</linearGradient>
<linearGradient id="paint32_linear_45_303" x1="379.943" y1="302" x2="-1.46086e-05" y2="302" gradientUnits="userSpaceOnUse">
<stop stop-color="#FF9720"/>
<stop offset="1" stop-color="white" stop-opacity="0"/>
</linearGradient>
<linearGradient id="paint33_linear_45_303" x1="379.943" y1="302" x2="-1.46086e-05" y2="302" gradientUnits="userSpaceOnUse">
<stop stop-color="#FF9720"/>
<stop offset="1" stop-color="white" stop-opacity="0"/>
</linearGradient>
<linearGradient id="paint34_linear_45_303" x1="379.943" y1="302" x2="-1.46086e-05" y2="302" gradientUnits="userSpaceOnUse">
<stop stop-color="#FF9720"/>
<stop offset="1" stop-color="white" stop-opacity="0"/>
</linearGradient>
<linearGradient id="paint35_linear_45_303" x1="379.943" y1="302" x2="-1.46086e-05" y2="302" gradientUnits="userSpaceOnUse">
<stop stop-color="#FF9720"/>
<stop offset="1" stop-color="white" stop-opacity="0"/>
</linearGradient>
<linearGradient id="paint36_linear_45_303" x1="379.943" y1="302" x2="-1.46086e-05" y2="302" gradientUnits="userSpaceOnUse">
<stop stop-color="#FF9720"/>
<stop offset="1" stop-color="white" stop-opacity="0"/>
</linearGradient>
<linearGradient id="paint37_linear_45_303" x1="379.943" y1="302" x2="-1.46086e-05" y2="302" gradientUnits="userSpaceOnUse">
<stop stop-color="#FF9720"/>
<stop offset="1" stop-color="white" stop-opacity="0"/>
</linearGradient>
<linearGradient id="paint38_linear_45_303" x1="379.943" y1="302" x2="-1.46086e-05" y2="302" gradientUnits="userSpaceOnUse">
<stop stop-color="#FF9720"/>
<stop offset="1" stop-color="white" stop-opacity="0"/>
</linearGradient>
<linearGradient id="paint39_linear_45_303" x1="379.943" y1="302" x2="-1.46086e-05" y2="302" gradientUnits="userSpaceOnUse">
<stop stop-color="#FF9720"/>
<stop offset="1" stop-color="white" stop-opacity="0"/>
</linearGradient>
<linearGradient id="paint40_linear_45_303" x1="379.943" y1="302" x2="-1.46086e-05" y2="302" gradientUnits="userSpaceOnUse">
<stop stop-color="#FF9720"/>
<stop offset="1" stop-color="white" stop-opacity="0"/>
</linearGradient>
<linearGradient id="paint41_linear_45_303" x1="379.943" y1="302" x2="-1.46086e-05" y2="302" gradientUnits="userSpaceOnUse">
<stop stop-color="#FF9720"/>
<stop offset="1" stop-color="white" stop-opacity="0"/>
</linearGradient>
<linearGradient id="paint42_linear_45_303" x1="379.943" y1="302" x2="-1.46086e-05" y2="302" gradientUnits="userSpaceOnUse">
<stop stop-color="#FF9720"/>
<stop offset="1" stop-color="white" stop-opacity="0"/>
</linearGradient>
<linearGradient id="paint43_linear_45_303" x1="379.943" y1="302" x2="-1.46086e-05" y2="302" gradientUnits="userSpaceOnUse">
<stop stop-color="#FF9720"/>
<stop offset="1" stop-color="white" stop-opacity="0"/>
</linearGradient>
<linearGradient id="paint44_linear_45_303" x1="379.943" y1="302" x2="-1.46086e-05" y2="302" gradientUnits="userSpaceOnUse">
<stop stop-color="#FF9720"/>
<stop offset="1" stop-color="white" stop-opacity="0"/>
</linearGradient>
<linearGradient id="paint45_linear_45_303" x1="379.943" y1="302" x2="-1.46086e-05" y2="302" gradientUnits="userSpaceOnUse">
<stop stop-color="#FF9720"/>
<stop offset="1" stop-color="white" stop-opacity="0"/>
</linearGradient>
<linearGradient id="paint46_linear_45_303" x1="379.943" y1="302" x2="-1.46086e-05" y2="302" gradientUnits="userSpaceOnUse">
<stop stop-color="#FF9720"/>
<stop offset="1" stop-color="white" stop-opacity="0"/>
</linearGradient>
<linearGradient id="paint47_linear_45_303" x1="379.943" y1="302" x2="-1.46086e-05" y2="302" gradientUnits="userSpaceOnUse">
<stop stop-color="#FF9720"/>
<stop offset="1" stop-color="white" stop-opacity="0"/>
</linearGradient>
<linearGradient id="paint48_linear_45_303" x1="379.943" y1="302" x2="-1.46086e-05" y2="302" gradientUnits="userSpaceOnUse">
<stop stop-color="#FF9720"/>
<stop offset="1" stop-color="white" stop-opacity="0"/>
</linearGradient>
<linearGradient id="paint49_linear_45_303" x1="379.943" y1="302" x2="-1.46086e-05" y2="302" gradientUnits="userSpaceOnUse">
<stop stop-color="#FF9720"/>
<stop offset="1" stop-color="white" stop-opacity="0"/>
</linearGradient>
<linearGradient id="paint50_linear_45_303" x1="379.943" y1="302" x2="-1.46086e-05" y2="302" gradientUnits="userSpaceOnUse">
<stop stop-color="#FF9720"/>
<stop offset="1" stop-color="white" stop-opacity="0"/>
</linearGradient>
<linearGradient id="paint51_linear_45_303" x1="379.943" y1="302" x2="-1.46086e-05" y2="302" gradientUnits="userSpaceOnUse">
<stop stop-color="#FF9720"/>
<stop offset="1" stop-color="white" stop-opacity="0"/>
</linearGradient>
<linearGradient id="paint52_linear_45_303" x1="379.943" y1="302" x2="-1.46086e-05" y2="302" gradientUnits="userSpaceOnUse">
<stop stop-color="#FF9720"/>
<stop offset="1" stop-color="white" stop-opacity="0"/>
</linearGradient>
<linearGradient id="paint53_linear_45_303" x1="379.943" y1="302" x2="-1.46086e-05" y2="302" gradientUnits="userSpaceOnUse">
<stop stop-color="#FF9720"/>
<stop offset="1" stop-color="white" stop-opacity="0"/>
</linearGradient>
<linearGradient id="paint54_linear_45_303" x1="379.943" y1="302" x2="-1.46086e-05" y2="302" gradientUnits="userSpaceOnUse">
<stop stop-color="#FF9720"/>
<stop offset="1" stop-color="white" stop-opacity="0"/>
</linearGradient>
<linearGradient id="paint55_linear_45_303" x1="379.943" y1="302" x2="-1.46086e-05" y2="302" gradientUnits="userSpaceOnUse">
<stop stop-color="#FF9720"/>
<stop offset="1" stop-color="white" stop-opacity="0"/>
</linearGradient>
<linearGradient id="paint56_linear_45_303" x1="379.943" y1="302" x2="-1.46086e-05" y2="302" gradientUnits="userSpaceOnUse">
<stop stop-color="#FF9720"/>
<stop offset="1" stop-color="white" stop-opacity="0"/>
</linearGradient>
<linearGradient id="paint57_linear_45_303" x1="379.943" y1="302" x2="-1.46086e-05" y2="302" gradientUnits="userSpaceOnUse">
<stop stop-color="#FF9720"/>
<stop offset="1" stop-color="white" stop-opacity="0"/>
</linearGradient>
<linearGradient id="paint58_linear_45_303" x1="379.943" y1="302" x2="-1.46086e-05" y2="302" gradientUnits="userSpaceOnUse">
<stop stop-color="#FF9720"/>
<stop offset="1" stop-color="white" stop-opacity="0"/>
</linearGradient>
<linearGradient id="paint59_linear_45_303" x1="379.943" y1="302" x2="-1.46086e-05" y2="302" gradientUnits="userSpaceOnUse">
<stop stop-color="#FF9720"/>
<stop offset="1" stop-color="white" stop-opacity="0"/>
</linearGradient>
<linearGradient id="paint60_linear_45_303" x1="379.943" y1="302" x2="-1.46086e-05" y2="302" gradientUnits="userSpaceOnUse">
<stop stop-color="#FF9720"/>
<stop offset="1" stop-color="white" stop-opacity="0"/>
</linearGradient>
<linearGradient id="paint61_linear_45_303" x1="379.943" y1="302" x2="-1.46086e-05" y2="302" gradientUnits="userSpaceOnUse">
<stop stop-color="#FF9720"/>
<stop offset="1" stop-color="white" stop-opacity="0"/>
</linearGradient>
<linearGradient id="paint62_linear_45_303" x1="379.943" y1="302" x2="-1.46086e-05" y2="302" gradientUnits="userSpaceOnUse">
<stop stop-color="#FF9720"/>
<stop offset="1" stop-color="white" stop-opacity="0"/>
</linearGradient>
<linearGradient id="paint63_linear_45_303" x1="379.943" y1="302" x2="-1.46086e-05" y2="302" gradientUnits="userSpaceOnUse">
<stop stop-color="#FF9720"/>
<stop offset="1" stop-color="white" stop-opacity="0"/>
</linearGradient>
<linearGradient id="paint64_linear_45_303" x1="379.943" y1="302" x2="-1.46086e-05" y2="302" gradientUnits="userSpaceOnUse">
<stop stop-color="#FF9720"/>
<stop offset="1" stop-color="white" stop-opacity="0"/>
</linearGradient>
<linearGradient id="paint65_linear_45_303" x1="379.943" y1="302" x2="-1.46086e-05" y2="302" gradientUnits="userSpaceOnUse">
<stop stop-color="#FF9720"/>
<stop offset="1" stop-color="white" stop-opacity="0"/>
</linearGradient>
<linearGradient id="paint66_linear_45_303" x1="379.943" y1="302" x2="-1.46086e-05" y2="302" gradientUnits="userSpaceOnUse">
<stop stop-color="#FF9720"/>
<stop offset="1" stop-color="white" stop-opacity="0"/>
</linearGradient>
<linearGradient id="paint67_linear_45_303" x1="379.943" y1="302" x2="-1.46086e-05" y2="302" gradientUnits="userSpaceOnUse">
<stop stop-color="#FF9720"/>
<stop offset="1" stop-color="white" stop-opacity="0"/>
</linearGradient>
<linearGradient id="paint68_linear_45_303" x1="379.943" y1="302" x2="-1.46086e-05" y2="302" gradientUnits="userSpaceOnUse">
<stop stop-color="#FF9720"/>
<stop offset="1" stop-color="white" stop-opacity="0"/>
</linearGradient>
<linearGradient id="paint69_linear_45_303" x1="379.943" y1="302" x2="-1.46086e-05" y2="302" gradientUnits="userSpaceOnUse">
<stop stop-color="#FF9720"/>
<stop offset="1" stop-color="white" stop-opacity="0"/>
</linearGradient>
<linearGradient id="paint70_linear_45_303" x1="379.943" y1="302" x2="-1.46086e-05" y2="302" gradientUnits="userSpaceOnUse">
<stop stop-color="#FF9720"/>
<stop offset="1" stop-color="white" stop-opacity="0"/>
</linearGradient>
<linearGradient id="paint71_linear_45_303" x1="379.943" y1="302" x2="-1.46086e-05" y2="302" gradientUnits="userSpaceOnUse">
<stop stop-color="#FF9720"/>
<stop offset="1" stop-color="white" stop-opacity="0"/>
</linearGradient>
<linearGradient id="paint72_linear_45_303" x1="379.943" y1="302" x2="-1.46086e-05" y2="302" gradientUnits="userSpaceOnUse">
<stop stop-color="#FF9720"/>
<stop offset="1" stop-color="white" stop-opacity="0"/>
</linearGradient>
<linearGradient id="paint73_linear_45_303" x1="379.943" y1="302" x2="-1.46086e-05" y2="302" gradientUnits="userSpaceOnUse">
<stop stop-color="#FF9720"/>
<stop offset="1" stop-color="white" stop-opacity="0"/>
</linearGradient>
<linearGradient id="paint74_linear_45_303" x1="379.943" y1="302" x2="-1.46086e-05" y2="302" gradientUnits="userSpaceOnUse">
<stop stop-color="#FF9720"/>
<stop offset="1" stop-color="white" stop-opacity="0"/>
</linearGradient>
<linearGradient id="paint75_linear_45_303" x1="379.943" y1="302" x2="-1.46086e-05" y2="302" gradientUnits="userSpaceOnUse">
<stop stop-color="#FF9720"/>
<stop offset="1" stop-color="white" stop-opacity="0"/>
</linearGradient>
<linearGradient id="paint76_linear_45_303" x1="379.943" y1="302" x2="-1.46086e-05" y2="302" gradientUnits="userSpaceOnUse">
<stop stop-color="#FF9720"/>
<stop offset="1" stop-color="white" stop-opacity="0"/>
</linearGradient>
<linearGradient id="paint77_linear_45_303" x1="379.943" y1="302" x2="-1.46086e-05" y2="302" gradientUnits="userSpaceOnUse">
<stop stop-color="#FF9720"/>
<stop offset="1" stop-color="white" stop-opacity="0"/>
</linearGradient>
<linearGradient id="paint78_linear_45_303" x1="379.943" y1="302" x2="-1.46086e-05" y2="302" gradientUnits="userSpaceOnUse">
<stop stop-color="#FF9720"/>
<stop offset="1" stop-color="white" stop-opacity="0"/>
</linearGradient>
<linearGradient id="paint79_linear_45_303" x1="379.943" y1="302" x2="-1.46086e-05" y2="302" gradientUnits="userSpaceOnUse">
<stop stop-color="#FF9720"/>
<stop offset="1" stop-color="white" stop-opacity="0"/>
</linearGradient>
<linearGradient id="paint80_linear_45_303" x1="379.943" y1="302" x2="-1.46086e-05" y2="302" gradientUnits="userSpaceOnUse">
<stop stop-color="#FF9720"/>
<stop offset="1" stop-color="white" stop-opacity="0"/>
</linearGradient>
<linearGradient id="paint81_linear_45_303" x1="379.943" y1="302" x2="-1.46086e-05" y2="302" gradientUnits="userSpaceOnUse">
<stop stop-color="#FF9720"/>
<stop offset="1" stop-color="white" stop-opacity="0"/>
</linearGradient>
<linearGradient id="paint82_linear_45_303" x1="379.943" y1="302" x2="-1.46086e-05" y2="302" gradientUnits="userSpaceOnUse">
<stop stop-color="#FF9720"/>
<stop offset="1" stop-color="white" stop-opacity="0"/>
</linearGradient>
<linearGradient id="paint83_linear_45_303" x1="379.943" y1="302" x2="-1.46086e-05" y2="302" gradientUnits="userSpaceOnUse">
<stop stop-color="#FF9720"/>
<stop offset="1" stop-color="white" stop-opacity="0"/>
</linearGradient>
<linearGradient id="paint84_linear_45_303" x1="379.943" y1="302" x2="-1.46086e-05" y2="302" gradientUnits="userSpaceOnUse">
<stop stop-color="#FF9720"/>
<stop offset="1" stop-color="white" stop-opacity="0"/>
</linearGradient>
<linearGradient id="paint85_linear_45_303" x1="379.943" y1="302" x2="-1.46086e-05" y2="302" gradientUnits="userSpaceOnUse">
<stop stop-color="#FF9720"/>
<stop offset="1" stop-color="white" stop-opacity="0"/>
</linearGradient>
<linearGradient id="paint86_linear_45_303" x1="379.943" y1="302" x2="-1.46086e-05" y2="302" gradientUnits="userSpaceOnUse">
<stop stop-color="#FF9720"/>
<stop offset="1" stop-color="white" stop-opacity="0"/>
</linearGradient>
<linearGradient id="paint87_linear_45_303" x1="379.943" y1="302" x2="-1.46086e-05" y2="302" gradientUnits="userSpaceOnUse">
<stop stop-color="#FF9720"/>
<stop offset="1" stop-color="white" stop-opacity="0"/>
</linearGradient>
<linearGradient id="paint88_linear_45_303" x1="379.943" y1="302" x2="-1.46086e-05" y2="302" gradientUnits="userSpaceOnUse">
<stop stop-color="#FF9720"/>
<stop offset="1" stop-color="white" stop-opacity="0"/>
</linearGradient>
<linearGradient id="paint89_linear_45_303" x1="379.943" y1="302" x2="-1.46086e-05" y2="302" gradientUnits="userSpaceOnUse">
<stop stop-color="#FF9720"/>
<stop offset="1" stop-color="white" stop-opacity="0"/>
</linearGradient>
</defs>
</svg>
