<svg width="255" height="106" viewBox="0 0 255 106" fill="none" xmlns="http://www.w3.org/2000/svg">
<g filter="url(#filter0_d_49_58)">
<path fill-rule="evenodd" clip-rule="evenodd" d="M23.0587 61.4087C25.3982 51.6752 31.6021 43.2098 40.236 38.0612C40.7589 37.7494 41.2906 37.4498 41.8309 37.1628C40.5142 35.6657 39.0584 34.2746 37.4819 33.0002C29.1685 26.2799 17.4963 22.8043 5.13356 24.1478C7.16775 31.4646 10.6555 40.0289 15.385 48.7938C17.8398 53.3431 20.4331 57.5831 23.0587 61.4087Z" fill="#E6881D"/>
<path fill-rule="evenodd" clip-rule="evenodd" d="M87.8143 49.9906C82.2868 41.6442 73.5617 35.8112 63.6876 33.9261C63.0896 33.8119 62.4875 33.7122 61.8816 33.6273C62.6069 31.7702 63.4991 29.965 64.5447 28.2283C70.0582 19.0699 79.8377 11.8118 91.9145 8.846C92.5054 16.4173 92.1572 25.6579 90.7106 35.5119C89.9598 40.6264 88.9732 45.4976 87.8143 49.9906Z" fill="#E6881D"/>
<path d="M102.613 58.9433L102.633 58.8892C94.6288 59.5265 89.8366 51.3909 84.5691 45.3314C83.9984 44.6748 83.4046 44.0404 82.7893 43.4291C79.9261 40.585 76.5963 38.2427 72.9527 36.5089C66.5075 33.4422 59.08 32.28 51.5154 33.6138C43.6173 35.0065 36.7904 38.9049 31.7082 44.3473C28.8084 47.4526 26.4766 51.0606 24.8378 54.9925C24.4752 55.8625 24.1466 56.7483 23.8532 57.6481C21.5176 64.811 20.2766 73.4591 13.238 76.1464L13.2681 76.1803C15.3466 76.9618 17.5835 77.3789 19.8871 77.3674C20.8478 76.8251 21.8384 76.3252 22.857 75.8707C25.4673 74.706 28.2611 73.8394 31.2036 73.3205C31.2471 73.3129 31.2906 73.3053 31.3341 73.2977L31.3695 73.2917L31.4244 73.2823L31.4778 73.2732C42.0739 71.4885 52.3804 74.5916 60.0719 80.9544C63.3779 75.3195 68.2142 70.6135 74.124 67.4884C79.4686 64.6623 85.9363 65.9934 91.8903 64.9436C92.2823 64.8745 92.6693 64.7935 93.051 64.7013C94.0607 64.4572 95.0331 64.1337 95.9626 63.7387C98.5524 62.6382 100.809 60.9826 102.613 58.9433Z" fill="#FF9720"/>
<path d="M22.857 75.8707C21.8384 76.3252 20.8478 76.8251 19.8871 77.3674C18.7173 78.0278 17.592 78.7511 16.5149 79.532C19.8306 82.6662 23.5389 85.3612 27.5394 87.5468C35.8996 92.1142 45.5361 94.4571 55.5342 93.9352C57.6829 93.823 59.8483 93.5786 62.0213 93.1954C64.3285 92.7886 66.5742 92.2378 68.7507 91.5539C78.1626 88.5965 86.2813 83.1503 92.4916 76.094C95.5433 72.6265 98.1342 68.7702 100.191 64.6295C98.8087 64.2487 97.3969 63.9502 95.9626 63.7387C95.0331 64.1337 94.0607 64.4572 93.051 64.7013C92.6693 64.7935 92.2823 64.8745 91.8903 64.9436C85.9363 65.9934 79.4686 64.6623 74.124 67.4884C68.2142 70.6135 63.3779 75.3195 60.0719 80.9544C52.3804 74.5916 42.0739 71.4885 31.4778 73.2732L31.4244 73.2823L31.3695 73.2917L31.3341 73.2977C31.2906 73.3053 31.2471 73.3129 31.2036 73.3205C28.2611 73.8394 25.4673 74.706 22.857 75.8707Z" fill="#FFEDD9"/>
<path d="M55.9801 78.2681C57.5555 76.0181 60.6566 75.4713 62.9066 77.0467C64.4975 78.1607 61.9667 80.7834 60.054 81.1206C58.1413 81.4579 54.8661 79.859 55.9801 78.2681Z" fill="#A66215"/>
<path d="M44.2764 66.235C46.3903 67.0044 47.9375 68.6411 48.6636 70.5967C47.868 70.0126 46.9775 69.53 46.0033 69.1754C41.814 67.6507 37.2889 68.9244 34.4744 72.0414C34.5469 71.5715 34.6658 71.1016 34.8346 70.6378C36.2261 66.8148 40.4533 64.8436 44.2764 66.235Z" fill="#261705"/>
<path d="M70.4925 61.6124C68.7692 63.0584 67.8751 65.1255 67.8616 67.2116C68.4094 66.3907 69.0812 65.6326 69.8753 64.9662C73.2905 62.1005 77.9784 61.7498 81.6892 63.7162C81.4603 63.2994 81.1879 62.8985 80.8706 62.5204C78.2555 59.4039 73.609 58.9974 70.4925 61.6124Z" fill="#261705"/>
<path fill-rule="evenodd" clip-rule="evenodd" d="M73.965 51.5502C81.7049 50.1855 89.0857 55.3538 90.4505 63.0937C91.8152 70.8336 86.6471 78.2144 78.9072 79.5792C73.3339 80.5619 67.9467 78.1573 64.8578 73.8442C64.1166 73.462 63.3279 73.1755 62.5102 72.9942C61.2658 72.7183 59.9793 72.6903 58.7241 72.9117C57.469 73.133 56.2697 73.5993 55.1948 74.2841C54.6538 74.6287 54.1495 75.0254 53.689 75.4674C52.3645 80.7446 48.0573 85.0188 42.3526 86.0248C34.6127 87.3895 27.2319 82.2214 25.8671 74.4815C24.5023 66.7416 29.6704 59.3605 37.4103 57.9958C45.1502 56.631 52.5311 61.7993 53.8958 69.5393C53.9334 69.7526 53.9657 69.9656 53.9935 70.1782C55.2498 69.5224 56.6015 69.0622 58.0018 68.8153C59.5142 68.5486 61.0585 68.5353 62.5716 68.7742C62.5155 68.5308 62.4656 68.2847 62.4217 68.0359C61.057 60.296 66.225 52.915 73.965 51.5502ZM38.1517 62.2003C32.7337 63.1556 29.116 68.3222 30.0713 73.7402C31.0267 79.1581 36.1933 82.7756 41.6112 81.8203C47.0291 80.8649 50.6469 75.6985 49.6916 70.2806C48.7363 64.8626 43.5696 61.2449 38.1517 62.2003ZM74.7063 55.7547C69.2884 56.71 65.6706 61.8766 66.626 67.2946C67.5814 72.7125 72.7479 76.33 78.1659 75.3747C83.5837 74.4193 87.2015 69.2529 86.2462 63.835C85.2909 58.4171 80.1243 54.7994 74.7063 55.7547Z" fill="#141421"/>
<path d="M77.9679 35.6516C78.2621 36.5632 79.1667 37.1348 80.1173 37.0169C93.6333 35.341 102.696 34.9665 102.934 36.3155C103.308 38.4385 81.6833 44.0262 54.6336 48.7958C27.584 53.5653 5.35252 55.7107 4.97818 53.5877C4.7491 52.2885 12.7576 49.6922 25.206 46.7797C26.022 46.5888 26.635 45.9096 26.7359 45.0777L30.5871 13.3388C30.7342 12.1267 31.9307 11.3345 33.1121 11.643C53.5165 16.971 58.6653 11.8234 63.084 1.2696C63.8117 -0.468439 66.3291 -0.412895 66.9078 1.38027L77.9679 35.6516Z" fill="#141421"/>
</g>
<path d="M130.405 79.1047H119.228V34.4581H147.11V42.8105H130.405V53.4464H143.084V61.7388H130.405V79.1047Z" fill="#141421"/>
<path d="M165.027 79.5855C161.942 79.5855 159.319 79.1148 157.155 78.1734C155.012 77.2119 153.29 75.9 151.988 74.2375C150.686 72.575 149.744 70.6721 149.163 68.5289C148.583 66.3657 148.302 64.0823 148.322 61.6787C148.382 58.1134 149.153 55.1089 150.636 52.6653C152.118 50.2216 154.151 48.3688 156.735 47.107C159.319 45.8451 162.283 45.2141 165.628 45.2141C169.754 45.2141 173.039 46.0354 175.483 47.6778C177.946 49.3203 179.709 51.4935 180.771 54.1975C181.832 56.9016 182.333 59.856 182.273 63.0608C182.233 66.6461 181.472 69.6707 179.989 72.1343C178.527 74.578 176.504 76.4307 173.92 77.6926C171.337 78.9545 168.372 79.5855 165.027 79.5855ZM165.267 72.0742C167.411 72.0742 168.893 71.2931 169.714 69.7307C170.555 68.1484 170.976 65.7648 170.976 62.5801C170.976 60.7774 170.806 59.1349 170.465 57.6527C170.125 56.1505 169.554 54.9587 168.753 54.0774C167.951 53.176 166.85 52.7253 165.448 52.7253C163.264 52.7253 161.742 53.5165 160.881 55.0989C160.04 56.6813 159.619 58.9947 159.619 62.0393C159.619 63.882 159.789 65.5645 160.13 67.0868C160.49 68.6091 161.081 69.8209 161.902 70.7222C162.724 71.6236 163.845 72.0742 165.267 72.0742Z" fill="#141421"/>
<path d="M195.747 79.1047H183.729L195.807 61.4384L196.047 63.4213L183.789 45.6348H195.567L200.374 53.2662L202.958 57.5926H200.614L202.838 53.2662L207.284 45.6348H219.002L206.563 63.181V60.7774L219.242 79.1047H207.344L202.056 70.572L199.833 66.6662H202.417L200.494 70.572L195.747 79.1047Z" fill="#141421"/>
<path d="M251.308 93.4061V85.0536C250.967 85.1738 250.397 85.304 249.595 85.4442C248.794 85.5844 248.143 85.6545 247.642 85.6545C246.601 85.6545 245.509 85.5243 244.368 85.2639C243.226 85.0036 242.184 84.3526 241.243 83.311C240.281 82.2695 239.57 80.587 239.11 78.2635L238.689 79.1047H243.436L254.973 45.6348H243.496L238.689 63.2411L236.045 74.2375H236.886L234.483 63.2411L230.757 45.6348H219.34L229.856 79.8859C231.078 83.8719 232.63 86.8663 234.513 88.8693C236.396 90.8723 238.409 92.2644 240.552 93.0456C241.293 93.346 242.224 93.5764 243.346 93.7366C244.448 93.9169 245.439 94.007 246.32 94.007C246.621 94.007 247.152 93.9669 247.913 93.8868C248.654 93.8267 249.375 93.7466 250.076 93.6465C250.777 93.5663 251.188 93.4862 251.308 93.4061Z" fill="#141421"/>
<defs>
<filter id="filter0_d_49_58" x="6.00815e-05" y="0" width="107.912" height="105.943" filterUnits="userSpaceOnUse" color-interpolation-filters="sRGB">
<feFlood flood-opacity="0" result="BackgroundImageFix"/>
<feColorMatrix in="SourceAlpha" type="matrix" values="0 0 0 0 0 0 0 0 0 0 0 0 0 0 0 0 0 0 127 0" result="hardAlpha"/>
<feOffset dy="6.96266"/>
<feGaussianBlur stdDeviation="2.48666"/>
<feComposite in2="hardAlpha" operator="out"/>
<feColorMatrix type="matrix" values="0 0 0 0 0 0 0 0 0 0 0 0 0 0 0 0 0 0 0.15 0"/>
<feBlend mode="normal" in2="BackgroundImageFix" result="effect1_dropShadow_49_58"/>
<feBlend mode="normal" in="SourceGraphic" in2="effect1_dropShadow_49_58" result="shape"/>
</filter>
</defs>
</svg>
