<svg width="55" height="26" viewBox="0 0 55 26" fill="none" xmlns="http://www.w3.org/2000/svg">
<path d="M4.71636 18.8401H0V0H11.7655V3.52459H4.71636V8.01274H10.0666V11.512H4.71636V18.8401Z" fill="#0D0802"/>
<path d="M18.5657 19.0429C17.2641 19.0429 16.1568 18.8443 15.244 18.447C14.3396 18.0413 13.6127 17.4877 13.0633 16.7862C12.5139 16.0846 12.1166 15.2817 11.8715 14.3773C11.6264 13.4644 11.5081 12.5009 11.5165 11.4866C11.5419 9.98211 11.8673 8.71427 12.4928 7.6831C13.1182 6.65192 13.9761 5.87009 15.0665 5.3376C16.1568 4.80511 17.4077 4.53886 18.8193 4.53886C20.5604 4.53886 21.9466 4.8854 22.9778 5.57849C24.0174 6.27157 24.7612 7.18864 25.2092 8.32969C25.6571 9.47075 25.8685 10.7175 25.8431 12.0698C25.8262 13.5828 25.505 14.8591 24.8795 15.8987C24.2625 16.9299 23.4088 17.7117 22.3185 18.2442C21.2282 18.7767 19.9772 19.0429 18.5657 19.0429ZM18.6671 15.8733C19.5715 15.8733 20.197 15.5437 20.5435 14.8844C20.8985 14.2167 21.076 13.2109 21.076 11.867C21.076 11.1063 21.0042 10.4132 20.8605 9.78771C20.7168 9.15379 20.4759 8.65088 20.1378 8.27898C19.7997 7.89863 19.3349 7.70846 18.7432 7.70846C17.8219 7.70846 17.1795 8.04232 16.8161 8.71005C16.4611 9.37778 16.2836 10.354 16.2836 11.6388C16.2836 12.4164 16.3554 13.1263 16.4991 13.7687C16.6513 14.4111 16.9006 14.9225 17.2472 15.3028C17.5937 15.6832 18.067 15.8733 18.6671 15.8733Z" fill="#0D0802"/>
<path d="M30.7682 18.8401H25.6969L30.7936 11.3852L30.895 12.222L25.7223 4.71636H30.6922L32.7207 7.93667L33.8111 9.76235H32.8222L33.7603 7.93667L35.6367 4.71636H40.5813L35.3325 12.1205V11.1063L40.6827 18.8401H35.6621L33.4307 15.2394L32.4925 13.5912H33.5829L32.7714 15.2394L30.7682 18.8401Z" fill="#0D0802"/>
<path d="M53.4532 24.875V21.3504C53.3096 21.4011 53.0687 21.456 52.7306 21.5152C52.3925 21.5744 52.1178 21.604 51.9065 21.604C51.467 21.604 51.0063 21.549 50.5245 21.4391C50.0428 21.3293 49.6032 21.0546 49.206 20.615C48.8003 20.1755 48.5002 19.4655 48.3058 18.4851L48.1283 18.8401H50.1315L55 4.71636H50.1569L48.1283 12.1459L47.0126 16.7862H47.3676L46.3533 12.1459L44.7812 4.71636H39.9634L44.4009 19.1697C44.9165 20.8517 45.5715 22.1153 46.366 22.9605C47.1605 23.8058 48.01 24.3932 48.9144 24.7228C49.2271 24.8496 49.6201 24.9468 50.0935 25.0144C50.5583 25.0905 50.9767 25.1285 51.3486 25.1285C51.4754 25.1285 51.6994 25.1116 52.0206 25.0778C52.3333 25.0525 52.6376 25.0187 52.9334 24.9764C53.2293 24.9426 53.4025 24.9088 53.4532 24.875Z" fill="#0D0802"/>
</svg>
