<svg width="350" height="336" viewBox="0 0 350 336" fill="none" xmlns="http://www.w3.org/2000/svg">
<path fill-rule="evenodd" clip-rule="evenodd" d="M64.6134 219.395C72.9719 184.62 95.1366 154.376 125.983 135.981C127.851 134.867 129.751 133.797 131.681 132.772C126.977 127.423 121.776 122.453 116.143 117.9C86.4421 93.8903 44.7407 81.4729 0.572247 86.273C7.83979 112.414 20.3006 143.011 37.1977 174.326C45.968 190.579 55.2328 205.727 64.6134 219.395Z" fill="#E6881D"/>
<path fill-rule="evenodd" clip-rule="evenodd" d="M295.966 178.601C276.218 148.782 245.046 127.943 209.768 121.208C207.632 120.8 205.481 120.444 203.316 120.14C205.908 113.505 209.095 107.056 212.831 100.851C232.529 68.1313 267.468 42.2001 310.615 31.6041C312.726 58.6541 311.482 91.6682 306.314 126.873C303.631 145.146 300.106 162.55 295.966 178.601Z" fill="#E6881D"/>
<path d="M348.838 210.587L348.907 210.394C320.312 212.671 303.191 183.605 284.372 161.956C282.333 159.61 280.211 157.343 278.013 155.159C267.784 144.998 255.888 136.63 242.87 130.436C219.843 119.479 193.307 115.327 166.281 120.092C138.063 125.068 113.673 138.996 95.5155 158.44C85.1555 169.534 76.8246 182.424 70.9698 196.472C69.6744 199.58 68.5001 202.745 67.452 205.96C59.1077 231.551 54.6737 262.448 29.5272 272.048L29.6345 272.17C37.0605 274.962 45.0523 276.452 53.2824 276.411C56.7145 274.473 60.2538 272.687 63.893 271.063C73.2188 266.902 83.2001 263.806 93.7127 261.953C93.8682 261.925 94.0236 261.898 94.1791 261.871L94.3054 261.849L94.5016 261.816L94.6925 261.784C132.549 255.407 169.371 266.494 196.851 289.226C208.662 269.094 225.941 252.281 247.055 241.116C266.149 231.019 289.257 235.775 310.528 232.024C311.929 231.777 313.312 231.488 314.675 231.159C318.283 230.287 321.757 229.131 325.078 227.72C334.33 223.788 342.393 217.873 348.838 210.587Z" fill="#FF9720"/>
<path d="M63.893 271.063C60.2538 272.687 56.7145 274.473 53.2824 276.411C49.1029 278.77 45.0824 281.354 41.2343 284.144C53.0806 295.342 66.3291 304.97 80.6218 312.779C110.49 329.097 144.918 337.467 180.639 335.603C188.315 335.202 196.052 334.328 203.815 332.96C212.058 331.506 220.081 329.538 227.858 327.095C261.483 316.529 290.489 297.071 312.677 271.861C323.58 259.473 332.836 245.696 340.185 230.902C335.246 229.542 330.202 228.475 325.078 227.72C321.757 229.131 318.283 230.287 314.675 231.159C313.312 231.488 311.929 231.777 310.528 232.024C289.257 235.775 266.149 231.019 247.055 241.116C225.941 252.281 208.662 269.094 196.851 289.226C169.371 266.494 132.549 255.407 94.6925 261.784L94.5016 261.816L94.3054 261.849L94.1791 261.871C94.0236 261.898 93.8682 261.925 93.7127 261.953C83.2001 263.806 73.2188 266.902 63.893 271.063Z" fill="#FFEDD9"/>
<path d="M182.232 279.629C187.86 271.59 198.94 269.637 206.978 275.265C212.662 279.245 203.62 288.615 196.787 289.82C189.953 291.025 178.252 285.313 182.232 279.629Z" fill="#A66215"/>
<path d="M140.418 236.638C147.97 239.387 153.498 245.234 156.092 252.221C153.25 250.134 150.068 248.41 146.588 247.143C131.621 241.696 115.454 246.247 105.398 257.383C105.657 255.704 106.082 254.025 106.685 252.368C111.657 238.709 126.759 231.667 140.418 236.638Z" fill="#261705"/>
<path d="M234.08 220.123C227.924 225.289 224.729 232.674 224.681 240.127C226.638 237.194 229.038 234.486 231.876 232.105C244.077 221.867 260.825 220.614 274.083 227.639C273.265 226.15 272.292 224.718 271.158 223.367C261.815 212.232 245.215 210.78 234.08 220.123Z" fill="#261705"/>
<path fill-rule="evenodd" clip-rule="evenodd" d="M246.486 184.174C274.139 179.298 300.508 197.763 305.384 225.415C310.26 253.067 291.796 279.437 264.144 284.313C244.232 287.824 224.985 279.233 213.949 263.824C211.301 262.458 208.483 261.434 205.562 260.787C201.116 259.801 196.52 259.701 192.035 260.492C187.551 261.283 183.267 262.949 179.426 265.395C177.493 266.626 175.692 268.043 174.046 269.623C169.314 288.477 153.926 303.747 133.545 307.341C105.892 312.217 79.5231 293.753 74.647 266.1C69.7711 238.448 88.235 212.078 115.888 207.202C143.54 202.326 169.91 220.791 174.785 248.443C174.92 249.205 175.035 249.966 175.134 250.726C179.623 248.383 184.452 246.739 189.455 245.857C194.858 244.904 200.376 244.856 205.782 245.71C205.581 244.84 205.403 243.961 205.246 243.072C200.37 215.42 218.834 189.049 246.486 184.174ZM118.536 222.223C99.1794 225.636 86.2544 244.095 89.6675 263.452C93.0808 282.808 111.539 295.733 130.896 292.32C150.253 288.906 163.178 270.448 159.765 251.092C156.352 231.735 137.893 218.81 118.536 222.223ZM249.135 199.195C229.778 202.608 216.853 221.067 220.266 240.424C223.68 259.78 242.138 272.705 261.495 269.292C280.852 265.878 293.777 247.42 290.364 228.064C286.951 208.707 268.492 195.782 249.135 199.195Z" fill="#141421"/>
<path d="M260.788 127.373C261.839 130.629 265.071 132.671 268.467 132.25C316.756 126.263 349.133 124.925 349.983 129.744C351.32 137.329 274.062 157.292 177.421 174.333C80.781 191.373 1.35453 199.038 0.0171055 191.453C-0.801303 186.811 27.8107 177.535 72.2851 167.13C75.2005 166.448 77.3904 164.021 77.7511 161.049L91.5101 47.6555C92.0356 43.3251 96.3105 40.4948 100.531 41.5969C173.43 60.6323 191.825 42.2416 207.612 4.53591C210.212 -1.67359 219.206 -1.47515 221.273 4.93129L260.788 127.373Z" fill="#141421"/>
</svg>
